<svg width="116" height="28" viewBox="0 0 116 28" fill="none" xmlns="http://www.w3.org/2000/svg">
<g clip-path="url(#clip0_554_6900)">
<path fill-rule="evenodd" clip-rule="evenodd" d="M22.8759 26.8042H24.4682C24.8372 26.8042 25.1479 26.4935 25.1673 26.1246V8.78318C25.1673 7.07429 23.7885 5.69553 22.0797 5.69553H20.0407C19.6717 5.69553 19.361 5.38481 19.361 5.01585V3.44288C19.361 1.73399 17.9822 0.355225 16.2733 0.355225H3.08766C1.37876 0.355225 0 1.73399 0 3.44288V20.8619C0 22.5514 1.37876 23.9302 3.08766 23.9496H18.3706C18.5065 23.9496 18.6425 23.9884 18.759 24.0661L22.4875 26.6877C22.604 26.7654 22.7399 26.8042 22.8759 26.8042ZM19.1668 21.4834H3.1265C2.73811 21.4834 2.44682 21.1921 2.44682 20.8037V3.48172C2.44682 3.11276 2.75753 2.80205 3.1265 2.80205H16.2345C16.6035 2.80205 16.9142 3.11276 16.9142 3.48172V5.01585C16.9142 5.38481 16.6035 5.69553 16.2345 5.69553H6.46661C6.09764 5.69553 5.78693 6.00621 5.78693 6.37517V17.9296C5.78693 18.2986 6.09764 18.6093 6.46661 18.6093H18.6619C19.0309 18.6093 19.3416 18.2986 19.3416 17.9296V8.82202C19.3416 8.45305 19.6523 8.14234 20.0212 8.14234H22.0214C22.3904 8.14234 22.7011 8.45305 22.7011 8.82202V22.9981C22.7011 23.3476 22.3127 23.5418 22.0408 23.3476L19.5552 21.5999C19.4387 21.5222 19.3027 21.4834 19.1668 21.4834ZM16.5646 16.1431H8.5639C8.38912 16.1431 8.23374 16.0071 8.23374 15.8129V8.47246C8.23374 8.29768 8.36968 8.14234 8.5639 8.14234H16.5646C16.7394 8.14234 16.8947 8.27828 16.8947 8.47246V15.8129C16.8947 15.9877 16.7588 16.1431 16.5646 16.1431ZM87.0221 4.0477C88.042 4.0477 88.8685 3.22111 88.8685 2.20146C88.8685 1.18181 88.042 0.355225 87.0221 0.355225C86.0026 0.355225 85.176 1.18181 85.176 2.20146C85.176 3.22111 86.0026 4.0477 87.0221 4.0477ZM65.9606 6.74683V5.72112H62.9863V18.508H65.9606V9.7726L69.431 8.33663V5.34503H69.3968L65.9606 6.74683ZM54.4363 5.7096C52.5046 5.7096 50.9317 6.34212 49.7351 7.62423C49.1882 8.22255 48.7609 8.90633 48.4531 9.70978C48.1626 10.4962 48.0085 11.3338 48.0085 12.2056C48.0085 14.0006 48.5215 15.4878 49.5644 16.6332C50.7096 17.8982 52.2824 18.5136 54.2826 18.5136C56.2313 18.5136 57.7868 17.8811 58.9666 16.599C60.0775 15.3853 60.6416 13.8638 60.6416 12.0176C60.6416 10.1714 60.0948 8.6841 59.0177 7.52166C57.8722 6.30792 56.3508 5.7096 54.4363 5.7096ZM56.7612 14.804C56.1971 15.5049 55.4108 15.8639 54.419 15.8639C53.3592 15.8639 52.4876 15.5049 51.8378 14.7869C51.53 14.4621 51.291 14.0519 51.12 13.5903C50.949 13.1287 50.8633 12.6501 50.8633 12.1373C50.8633 11.1116 51.1369 10.2568 51.701 9.53885C52.3166 8.76957 53.154 8.37641 54.2311 8.37641C55.291 8.37641 56.1287 8.7354 56.727 9.47045C57.2911 10.1543 57.5816 11.0432 57.5816 12.1544C57.5989 13.2313 57.3253 14.1202 56.7612 14.804ZM85.5155 5.72325H88.4729V18.5272H85.5155V5.72325ZM40.3866 5.7096C38.6942 5.7096 37.3097 6.20536 36.2326 7.19687C35.224 8.13708 34.7111 9.31662 34.7111 10.7355C34.7111 12.0005 35.1556 13.0433 36.0446 13.8809C35.2752 14.4963 34.8992 15.2314 34.8992 16.1032C34.8992 16.6332 34.9676 17.0947 35.0872 17.4879C35.2069 17.8982 35.4462 18.2401 35.8223 18.5478C34.4889 19.2829 33.8393 20.4795 33.8906 22.1206C33.9248 23.5395 34.5402 24.6677 35.7368 25.5225C36.9335 26.3772 38.5232 26.8046 40.4719 26.8046C42.421 26.8046 43.8739 26.4285 44.8654 25.6763C45.8568 24.9241 46.3525 23.8472 46.3525 22.4283C46.3525 21.0265 45.9594 19.9324 45.1732 19.1632C44.7458 18.7529 44.1986 18.4281 43.5319 18.1375C42.8483 17.864 41.9252 17.6247 40.7286 17.4366C39.532 17.2486 38.677 17.0434 38.1643 16.787C37.9249 16.6845 37.7712 16.5648 37.7028 16.4451C37.6344 16.3255 37.6002 16.1545 37.6002 15.9323C37.6002 15.71 37.7539 15.4024 38.0444 15.0092C38.7112 15.2314 39.4463 15.3511 40.2329 15.3511C41.8396 15.3511 43.1561 14.8724 44.1986 13.898C44.6602 13.4536 45.0194 12.9236 45.2758 12.3253C45.5321 11.727 45.652 11.0603 45.652 10.3252C45.652 9.59011 45.481 8.88923 45.139 8.23965C45.139 8.23965 45.139 8.22255 45.1217 8.22255H46.3698V5.7096H40.3866ZM38.318 19.5393L38.9336 19.6419C40.6602 19.8983 41.891 20.2402 42.592 20.7017C43.2245 21.0949 43.5319 21.6248 43.5319 22.2745C43.5319 23.642 42.5578 24.3087 40.6087 24.3087C39.4636 24.3087 38.5405 24.0694 37.8223 23.6078C37.4976 23.4027 37.2413 23.1463 37.0703 22.8557C36.882 22.5651 36.7967 22.2403 36.7967 21.8471C36.7967 21.4539 36.9162 21.0436 37.1556 20.6163C37.4123 20.1718 37.8054 19.8299 38.318 19.5393ZM42.0448 12.2056C41.566 12.633 41.0018 12.8552 40.3697 12.8552C39.5147 12.8552 38.831 12.6159 38.3011 12.1373C38.0617 11.9321 37.8907 11.6757 37.7539 11.4193C37.6344 11.1457 37.566 10.8723 37.566 10.5816C37.566 10.291 37.6171 10.0004 37.737 9.70978C38.1128 8.7354 38.9506 8.25675 40.2671 8.25675C41.0533 8.25675 41.6858 8.46187 42.1304 8.87217C42.5747 9.28242 42.8141 9.82944 42.8141 10.4962C42.7968 11.1457 42.5405 11.727 42.0448 12.2056ZM101.533 8.49607C101.755 9.0773 101.875 9.76108 101.875 10.4962V18.4794H98.9687V17.8811C98.0968 18.2743 97.2932 18.4794 96.5581 18.4794C95.6351 18.4794 94.8658 18.394 94.2163 18.223C93.5665 18.0521 93.0197 17.7956 92.5751 17.4708C91.669 16.787 91.2074 15.8126 91.2074 14.5476C91.2074 13.4194 91.7546 12.4621 92.8829 11.7099C94.0964 10.8893 95.7546 10.4791 97.8404 10.4791L98.3189 10.4962C98.3682 10.4962 98.4175 10.5001 98.4686 10.5042C98.5241 10.5087 98.5817 10.5133 98.6436 10.5133C98.7012 10.5214 98.7545 10.5257 98.806 10.5298C98.8618 10.5343 98.915 10.5385 98.9687 10.5474C98.9003 9.28242 98.3531 8.53024 97.3274 8.32511C97.0027 8.25675 96.6265 8.22255 96.2503 8.22255C95.8572 8.22255 95.4814 8.25675 95.1221 8.32511C94.7462 8.39351 94.387 8.49607 94.0453 8.59864C93.2929 8.83797 92.7288 9.12856 92.4041 9.43629L92.3699 9.41919L92.011 6.80368C93.3955 6.06859 94.9342 5.7096 96.5923 5.7096C99.1735 5.7096 100.815 6.63275 101.533 8.49607ZM98.9687 15.4537V13.8126V12.7014C98.7462 12.6672 98.5241 12.6501 98.302 12.6501H97.8232C96.0797 12.6501 94.9684 13.0433 94.4896 13.8126C94.3531 14.0348 94.2847 14.2741 94.2847 14.5305C94.2847 14.7869 94.3358 15.0092 94.4212 15.1972C94.5238 15.3853 94.6778 15.5562 94.883 15.6759C95.2931 15.9152 95.9087 16.0349 96.7122 16.0349C97.5154 16.0349 98.2678 15.8297 98.9687 15.4537ZM112.8 11.368C113.296 11.6073 113.706 11.8979 114.014 12.2398C114.578 12.8552 114.869 13.6758 114.869 14.7357C114.869 15.8468 114.424 16.7528 113.535 17.4537C112.612 18.1888 111.313 18.5478 109.638 18.5478C107.621 18.5478 106.048 18.2059 104.937 17.5392V14.3938C104.937 14.3767 105.005 14.445 105.125 14.5818C105.245 14.7186 105.484 14.8724 105.809 15.0776C106.133 15.2827 106.527 15.4537 106.954 15.6075C107.894 15.9323 108.869 16.0861 109.894 16.0861C111.262 16.0861 111.946 15.6246 111.946 14.7186C111.946 14.4279 111.809 14.2057 111.552 14.0689C111.091 13.8296 110.407 13.6416 109.501 13.5219C108.595 13.3852 107.86 13.2142 107.279 12.9749C106.698 12.7356 106.219 12.445 105.86 12.1202C105.193 11.4876 104.851 10.6671 104.851 9.65851C104.851 8.42768 105.33 7.4533 106.27 6.75241C107.211 6.05149 108.509 5.7096 110.168 5.7096C111.809 5.7096 113.211 6.17116 114.373 7.11137C114.322 7.31653 114.27 7.52166 114.202 7.70969C114.014 8.23965 113.877 8.61574 113.792 8.83797L113.518 9.53885C113.501 9.60721 113.484 9.64141 113.484 9.64141C113.467 9.64141 113.399 9.55595 113.296 9.38499C112.8 8.80377 112.014 8.42768 110.971 8.23965C110.646 8.17125 110.322 8.13708 109.98 8.13708C108.544 8.13708 107.826 8.56444 107.826 9.43629C107.826 9.72688 107.963 9.96621 108.27 10.1201C108.834 10.4278 109.604 10.65 110.578 10.7868C111.552 10.9406 112.288 11.1286 112.8 11.368ZM76.8139 5.7096C75.1216 5.7096 73.7366 6.20536 72.6599 7.19687C71.6512 8.13708 71.1385 9.31662 71.1385 10.7355C71.1385 12.0005 71.5828 13.0433 72.472 13.8809C71.7026 14.4963 71.3264 15.2314 71.3264 16.1032C71.3264 16.6332 71.3948 17.0947 71.5144 17.4879C71.6342 17.8982 71.8736 18.2401 72.2495 18.5478C70.916 19.2829 70.2666 20.4795 70.3177 22.1206C70.3519 23.5395 70.9675 24.6677 72.1642 25.5225C73.3608 26.3772 74.9506 26.8046 76.8992 26.8046C78.8483 26.8046 80.3012 26.4285 81.2927 25.6763C82.2841 24.9241 82.7798 23.8472 82.7798 22.4283C82.7798 21.0265 82.3867 19.9324 81.6005 19.1632C81.1732 18.7529 80.626 18.4281 79.9592 18.1375C79.2756 17.864 78.3526 17.6247 77.1559 17.4366C75.9593 17.2486 75.1043 17.0434 74.5916 16.787C74.3522 16.6845 74.1985 16.5648 74.1301 16.4451C74.0617 16.3255 74.0275 16.1545 74.0275 15.9323C74.0275 15.71 74.1812 15.4024 74.4718 15.0092C75.1385 15.2314 75.8736 15.3511 76.6598 15.3511C78.2669 15.3511 79.583 14.8724 80.626 13.898C81.0875 13.4536 81.4464 12.9236 81.7031 12.3253C81.9594 11.727 82.0789 11.0603 82.0789 10.3252C82.0789 9.59011 81.9083 8.88923 81.5663 8.23965C81.5663 8.23965 81.5663 8.22255 81.549 8.22255H82.7971V5.7096H76.8139ZM74.7454 19.5393L75.361 19.6419C77.0875 19.8983 78.3184 20.2402 79.0189 20.7017C79.6514 21.0949 79.9592 21.6248 79.9592 22.2745C79.9592 23.642 78.9851 24.3087 77.036 24.3087C75.8909 24.3087 74.9675 24.0694 74.2496 23.6078C73.9249 23.4027 73.6686 23.1463 73.4976 22.8557C73.3093 22.5651 73.224 22.2403 73.224 21.8471C73.224 21.4539 73.3435 21.0436 73.5829 20.6163C73.8392 20.1718 74.2327 19.8299 74.7454 19.5393ZM78.4721 12.2056C77.9933 12.633 77.4292 12.8552 76.7966 12.8552C75.942 12.8552 75.2584 12.6159 74.7284 12.1373C74.489 11.9321 74.318 11.6757 74.1812 11.4193C74.0617 11.1457 73.9933 10.8723 73.9933 10.5816C73.9933 10.291 74.0444 10.0004 74.1643 9.70978C74.5402 8.7354 75.3779 8.25675 76.694 8.25675C77.4806 8.25675 78.1132 8.46187 78.5574 8.87217C79.002 9.28242 79.2414 9.82944 79.2414 10.4962C79.2241 11.1457 78.9678 11.727 78.4721 12.2056Z" fill="#1B263A"/>
</g>
<defs>
<clipPath id="clip0_554_6900">
<rect width="115.2" height="27" fill="white" transform="translate(0 0.0166016)"/>
</clipPath>
</defs>
</svg>
