<svg width="188" height="24" viewBox="0 0 188 24" fill="none" xmlns="http://www.w3.org/2000/svg">
<path d="M10.2014 12.0017L20.434 22.0779H0L10.2014 12.0017Z" fill="#1B263A"/>
<path d="M0 1.95703L10.2014 12.0019L20.434 1.95703H0Z" fill="#1B263A"/>
<path d="M10.2031 12.0019L20.4358 22.0781L30.6371 12.0019L20.4358 1.95703L10.2031 12.0019Z" fill="#1B263A"/>
<path d="M184.91 6.7132C184.91 6.86966 184.722 6.93225 184.628 6.80708C183.877 5.93088 182.657 5.27374 180.967 5.27374C177.306 5.27374 175.241 8.21524 175.241 11.8139C175.241 15.3812 177.306 18.3227 180.967 18.3227C182.688 18.3227 184.034 17.7282 184.848 16.6955C184.941 16.5703 185.16 16.6329 185.16 16.7894V17.8846C185.16 17.9785 185.223 18.0411 185.317 18.0411H187.664C187.758 18.0411 187.82 17.9785 187.82 17.8846V0.173064C187.82 0.0791866 187.758 0.0166016 187.664 0.0166016H185.129C185.035 0.0166016 184.973 0.0791866 184.973 0.173064C184.91 0.173064 184.91 6.7132 184.91 6.7132ZM185.035 11.8139C185.035 14.0356 183.721 15.788 181.531 15.788C179.371 15.788 178.026 14.0356 178.026 11.8139C178.026 9.52952 179.371 7.80844 181.531 7.80844C183.721 7.80844 185.035 9.52952 185.035 11.8139ZM174.49 5.61796C174.49 5.55538 174.427 5.49279 174.365 5.4615C174.271 5.4615 174.177 5.4615 174.083 5.4615C172.331 5.4615 171.298 6.18123 170.735 6.86966C170.641 6.99483 170.422 6.93224 170.422 6.77578V5.74313C170.422 5.64925 170.359 5.58667 170.265 5.58667H167.918C167.824 5.58667 167.762 5.64925 167.762 5.74313V17.9159C167.762 18.0098 167.824 18.0724 167.918 18.0724H170.484C170.578 18.0724 170.641 18.0098 170.641 17.9159V11.5948C170.641 9.18531 171.83 8.15266 173.833 8.15266C173.989 8.15266 174.177 8.18394 174.302 8.18394C174.396 8.18394 174.458 8.12136 174.458 8.05878C174.49 7.9649 174.49 5.61796 174.49 5.61796ZM162.442 12.2207C162.536 12.2207 162.599 12.252 162.599 12.3459C162.599 12.3459 162.599 12.3459 162.599 12.3771V13.003C162.599 14.6928 161.472 16.1322 159.188 16.1322C157.811 16.1322 156.997 15.6629 156.997 14.505C156.997 13.6288 157.56 13.003 159.313 12.7214L162.442 12.2207ZM158.624 18.3227C160.408 18.3227 161.722 17.822 162.599 16.7894C162.692 16.6642 162.911 16.7268 162.911 16.8833C162.943 17.603 163.037 18.0098 163.068 18.0098H165.54C165.634 18.0098 165.728 17.9159 165.697 17.7907C165.509 17.2588 165.415 16.3513 165.415 15.6629V9.93633C165.415 7.08871 163.694 5.27374 160.064 5.27374C156.403 5.27374 154.901 7.18259 154.619 9.31048C154.619 9.40435 154.682 9.46694 154.744 9.46694C154.744 9.46694 154.744 9.46694 154.775 9.46694H157.248C157.31 9.46694 157.373 9.40436 157.404 9.34177C157.623 8.27783 158.499 7.62068 160.001 7.62068C161.691 7.62068 162.661 8.40299 162.661 9.90503V9.96762C162.661 10.0302 162.599 10.0928 162.536 10.1241L159.062 10.6248C155.777 11.0942 154.306 12.4397 154.306 14.5676C154.275 16.6955 155.526 18.3227 158.624 18.3227ZM146.733 18.3227C150.707 18.3227 153.18 15.3186 153.18 11.8139C153.18 8.30912 150.707 5.27374 146.733 5.27374C142.79 5.27374 140.318 8.30912 140.318 11.8139C140.318 15.3186 142.79 18.3227 146.733 18.3227ZM143.166 11.8139C143.166 9.37306 144.699 7.80844 146.765 7.80844C148.83 7.80844 150.363 9.40435 150.363 11.8139C150.363 14.2234 148.83 15.788 146.765 15.788C144.699 15.788 143.166 14.2234 143.166 11.8139ZM129.835 6.80708C129.741 6.93225 129.554 6.86966 129.554 6.7132V0.173064C129.554 0.0791866 129.491 0.0166016 129.397 0.0166016H126.863C126.769 0.0166016 126.706 0.0791866 126.706 0.173064V17.8846C126.706 17.9785 126.769 18.0411 126.863 18.0411H129.209C129.303 18.0411 129.366 17.9785 129.366 17.8846V16.7581C129.366 16.6016 129.585 16.539 129.648 16.6642C130.492 17.6969 131.838 18.3227 133.528 18.3227C137.22 18.3227 139.286 15.3812 139.286 11.8139C139.286 8.24653 137.22 5.27374 133.528 5.27374C131.838 5.30504 130.586 5.96218 129.835 6.80708ZM129.428 11.8139C129.428 9.52952 130.743 7.80844 132.933 7.80844C135.092 7.80844 136.438 9.52952 136.438 11.8139C136.438 14.0356 135.092 15.788 132.933 15.788C130.774 15.788 129.428 14.0669 129.428 11.8139ZM124.265 15.6941C124.265 15.6003 124.203 15.5377 124.109 15.5377H124.077C123.921 15.569 123.671 15.6003 123.389 15.6003C122.419 15.6003 122.012 15.1309 122.012 14.1295V7.9962C122.012 7.90232 122.075 7.83973 122.169 7.83973H124.203C124.297 7.83973 124.359 7.77715 124.359 7.68327V5.71184C124.359 5.61796 124.297 5.55538 124.203 5.55538H122.169C122.075 5.55538 122.012 5.49279 122.012 5.39891V2.45742C122.012 2.36354 121.95 2.30096 121.856 2.30096H119.321C119.227 2.30096 119.165 2.36354 119.165 2.45742V5.39891C119.165 5.49279 119.102 5.55538 119.008 5.55538H117.412C117.318 5.55538 117.256 5.61796 117.256 5.71184V7.68327C117.256 7.77715 117.318 7.83973 117.412 7.83973H119.008C119.102 7.83973 119.165 7.90232 119.165 7.9962V14.4112C119.165 16.7581 120.26 18.0724 122.794 18.0724C123.483 18.0724 123.952 17.9785 124.171 17.9472C124.234 17.9472 124.297 17.8846 124.265 17.822V15.6941ZM104.207 11.8139C104.207 15.4125 106.741 18.3227 110.403 18.3227C114.001 18.3227 115.848 15.8819 116.254 13.6914C116.254 13.6288 116.223 13.535 116.129 13.535H116.098H113.469C113.407 13.535 113.344 13.5663 113.313 13.6601C112.937 14.9431 111.842 15.8193 110.34 15.8193C108.306 15.8193 107.023 14.1608 107.023 11.8452C107.023 9.49823 108.306 7.83973 110.34 7.83973C111.842 7.83973 112.937 8.71592 113.313 9.99891C113.344 10.0615 113.375 10.1241 113.469 10.1241H116.098C116.192 10.1241 116.254 10.0615 116.254 9.99891V9.96762C115.848 7.77714 114.001 5.33633 110.403 5.33633C106.741 5.30504 104.207 8.18395 104.207 11.8139ZM99.419 12.7527C99.419 14.7867 98.3237 15.8819 96.54 15.8819C94.819 15.8819 94.1305 14.7554 94.1305 13.0656V5.74313C94.1305 5.64925 94.0679 5.58667 93.9741 5.58667H91.4394C91.3455 5.58667 91.2829 5.64925 91.2829 5.74313V13.4411C91.2829 16.3513 92.8475 18.3227 95.8516 18.3227C97.5101 18.3227 98.6679 17.6969 99.2938 16.9146C99.3877 16.7894 99.6067 16.852 99.6067 17.0084V17.8846C99.6067 17.9785 99.6693 18.0411 99.7632 18.0411H102.11C102.204 18.0411 102.267 17.9785 102.267 17.8846V5.71184C102.267 5.61796 102.204 5.55538 102.11 5.55538H99.5754C99.4815 5.55538 99.419 5.61796 99.419 5.71184V12.7527ZM86.2761 6.7132C86.2761 6.86966 86.0883 6.93225 85.9945 6.80708C85.2435 5.93088 84.023 5.27374 82.3332 5.27374C78.672 5.27374 76.6067 8.21524 76.6067 11.8139C76.6067 15.3812 78.672 18.3227 82.3332 18.3227C84.0543 18.3227 85.3686 17.7282 86.2135 16.6955C86.3074 16.5703 86.5264 16.6329 86.5264 16.7894V17.8846C86.5264 17.9785 86.589 18.0411 86.6829 18.0411H89.0298C89.1237 18.0411 89.1863 17.9785 89.1863 17.8846V0.173064C89.1863 0.0791866 89.1237 0.0166016 89.0298 0.0166016H86.4952C86.4013 0.0166016 86.3387 0.0791866 86.3387 0.173064L86.2761 6.7132ZM86.4013 11.8139C86.4013 14.0356 85.087 15.788 82.8965 15.788C80.7373 15.788 79.3918 14.0356 79.3918 11.8139C79.3918 9.52952 80.7373 7.80844 82.8965 7.80844C85.087 7.80844 86.4013 9.52952 86.4013 11.8139ZM68.9713 18.3227C72.9455 18.3227 75.4176 15.3186 75.4176 11.8139C75.4176 8.30912 72.9455 5.27374 68.9713 5.27374C65.0285 5.27374 62.5564 8.30912 62.5564 11.8139C62.5251 15.3186 65.0285 18.3227 68.9713 18.3227ZM65.3727 11.8139C65.3727 9.37306 66.906 7.80844 68.9713 7.80844C71.0366 7.80844 72.57 9.40435 72.57 11.8139C72.57 14.2234 71.0366 15.788 68.9713 15.788C66.906 15.788 65.3727 14.2234 65.3727 11.8139ZM62.2122 5.61796C62.2122 5.55538 62.1496 5.49279 62.087 5.4615C61.9931 5.4615 61.8992 5.4615 61.8054 5.4615C60.053 5.4615 59.0203 6.18123 58.4571 6.86966C58.3632 6.99483 58.1441 6.93224 58.1441 6.77578V5.74313C58.1441 5.64925 58.0816 5.58667 57.9877 5.58667H55.6407C55.5469 5.58667 55.4843 5.64925 55.4843 5.74313V17.9159C55.4843 18.0098 55.5469 18.0724 55.6407 18.0724H58.1754C58.2693 18.0724 58.3319 18.0098 58.3319 17.9159V11.5948C58.3319 9.18531 59.521 8.15266 61.5237 8.15266C61.7115 8.15266 61.8679 8.18394 61.9931 8.18394C62.087 8.18394 62.1496 8.12136 62.1496 8.05878C62.2122 7.9649 62.2122 5.61796 62.2122 5.61796ZM44.0312 16.9146C44.0312 16.7581 44.2503 16.6955 44.3441 16.8207C45.0952 17.6969 46.3469 18.3227 48.0054 18.3227C51.6979 18.3227 53.7632 15.3812 53.7632 11.8139C53.7632 8.24653 51.6979 5.27374 48.0054 5.27374C46.3156 5.27374 44.97 5.89959 44.1251 6.93224C44.0312 7.05741 43.8435 6.99483 43.8435 6.83837V5.71184C43.8435 5.61796 43.7809 5.55538 43.687 5.55538H41.3401C41.2462 5.55538 41.1836 5.61796 41.1836 5.71184V22.8601C41.1836 22.954 41.2462 23.0166 41.3401 23.0166H43.8747C43.9686 23.0166 44.0312 22.954 44.0312 22.8601V16.9146ZM43.9373 11.8139C43.9373 9.49823 45.2516 7.74585 47.4421 7.74585C49.6013 7.74585 50.9469 9.49823 50.9469 11.8139C50.9469 14.0356 49.6013 15.788 47.4421 15.788C45.2516 15.788 43.9373 14.0669 43.9373 11.8139Z" fill="#1B263A"/>
</svg>
