<svg width="97" height="27" viewBox="0 0 97 27" fill="none" xmlns="http://www.w3.org/2000/svg">
<g clip-path="url(#clip0_554_6873)">
<path d="M47.45 18.826C47.5313 18.826 47.6125 18.8666 47.6938 18.9479L48.2625 19.5166C47.8563 19.9635 47.4094 20.3291 46.9219 20.6947C46.4344 21.0197 45.9063 21.3447 45.3375 21.5885C44.7688 21.8322 44.1594 21.9947 43.4688 22.1572C42.8188 22.2791 42.0469 22.3604 41.275 22.3604C39.8938 22.3604 38.675 22.1166 37.5375 21.6291C36.4 21.1416 35.425 20.4916 34.6531 19.5979C33.8406 18.7447 33.1906 17.6885 32.7437 16.4697C32.2969 15.2104 32.0938 13.8697 32.0938 12.326C32.0938 10.8635 32.2969 9.52285 32.7844 8.26348C33.2312 7.04473 33.8813 5.98848 34.7344 5.13535C35.5875 4.2416 36.5625 3.55098 37.7406 3.1041C38.9188 2.6166 40.2188 2.37285 41.6406 2.37285C42.3313 2.37285 42.9813 2.41348 43.5906 2.53535C44.1594 2.6166 44.7281 2.7791 45.2563 2.98223C45.7438 3.18535 46.2313 3.4291 46.6781 3.71348C47.125 3.99785 47.5719 4.36348 48.0188 4.7291L47.5719 5.33848C47.4906 5.46035 47.4094 5.50098 47.2469 5.50098C47.1656 5.50098 47.0438 5.46035 46.9219 5.3791C46.8 5.29785 46.6375 5.17598 46.4344 5.01348C46.2313 4.8916 45.9875 4.7291 45.7031 4.5666C45.4188 4.36348 45.0938 4.20098 44.7281 4.0791C44.3219 3.9166 43.875 3.83535 43.3875 3.71348C42.8594 3.63223 42.2906 3.5916 41.6406 3.5916C40.4625 3.5916 39.3656 3.79473 38.35 4.20098C37.375 4.60723 36.5219 5.17598 35.7906 5.94785C35.1 6.71973 34.5313 7.61348 34.125 8.71035C33.7188 9.7666 33.5156 10.9854 33.5156 12.326C33.5156 13.7072 33.7188 14.9666 34.125 16.0635C34.5313 17.1197 35.0594 18.0541 35.75 18.7854C36.4406 19.5572 37.2938 20.126 38.2281 20.5322C39.2031 20.9385 40.2188 21.1416 41.3563 21.1416C42.0469 21.1416 42.6563 21.0604 43.225 20.9791C43.7531 20.8979 44.2813 20.776 44.7281 20.5729C45.175 20.3697 45.6219 20.1666 45.9875 19.8822C46.3938 19.6385 46.8 19.3135 47.1656 18.9479C47.2063 18.9072 47.2875 18.9072 47.3281 18.8666C47.3688 18.826 47.4094 18.826 47.45 18.826ZM52.5688 22.1166V2.04785H53.8688V22.1166H52.5688ZM64.3094 21.2635C65.1219 21.2635 65.8125 21.1416 66.4219 20.8572C67.0719 20.5729 67.5594 20.1666 67.9656 19.6385C68.3719 19.1104 68.6969 18.4604 68.9 17.7291C69.1031 16.9979 69.1844 16.1447 69.1844 15.251C69.1844 14.3166 69.1031 13.5041 68.9 12.7729C68.6969 12.001 68.3719 11.3916 67.9656 10.8635C67.5594 10.2947 67.0719 9.88848 66.4219 9.6041C65.8125 9.31973 65.1219 9.19785 64.3094 9.19785C63.4563 9.19785 62.7656 9.31973 62.1563 9.6041C61.5469 9.88848 61.0188 10.2947 60.6125 10.8635C60.2063 11.3916 59.8813 12.001 59.6781 12.7729C59.475 13.5041 59.3938 14.3166 59.3938 15.251C59.3938 16.1447 59.475 16.9979 59.6781 17.7291C59.8813 18.4604 60.2063 19.1104 60.6125 19.6385C61.0188 20.1666 61.5469 20.5729 62.1563 20.8572C62.7656 21.1416 63.4563 21.2635 64.3094 21.2635ZM64.3094 8.1416C65.2844 8.1416 66.1781 8.34473 66.95 8.66973C67.7219 8.99473 68.3719 9.48223 68.9 10.0916C69.4281 10.701 69.8344 11.4322 70.1188 12.326C70.4031 13.1791 70.5656 14.1541 70.5656 15.251C70.5656 16.3072 70.4031 17.2822 70.1188 18.176C69.8344 19.0291 69.4281 19.7604 68.9 20.3697C68.3719 20.9791 67.7219 21.4666 66.95 21.7916C66.1781 22.1166 65.2844 22.2791 64.3094 22.2791C63.2938 22.2791 62.4406 22.1166 61.6281 21.7916C60.8563 21.4666 60.2063 20.9791 59.6781 20.3697C59.15 19.7604 58.7438 19.0291 58.4594 18.176C58.175 17.2822 58.0125 16.3072 58.0125 15.251C58.0125 14.1541 58.175 13.1791 58.4594 12.326C58.7438 11.4322 59.15 10.701 59.6781 10.0916C60.2063 9.48223 60.8563 8.99473 61.6281 8.66973C62.4406 8.34473 63.2938 8.1416 64.3094 8.1416ZM81.575 10.0916C81.4938 10.2135 81.4125 10.2947 81.25 10.2947C81.1688 10.2947 81.0469 10.2135 80.8844 10.1322C80.7219 10.0104 80.4781 9.88848 80.2344 9.72598C79.9906 9.56348 79.6656 9.4416 79.2594 9.31973C78.8938 9.23848 78.4063 9.15723 77.8781 9.15723C77.35 9.15723 76.9031 9.23848 76.4969 9.36035C76.0906 9.52285 75.7656 9.72598 75.4406 9.96973C75.1563 10.1729 74.9531 10.4572 74.7906 10.7822C74.6281 11.1072 74.5469 11.4322 74.5469 11.7979C74.5469 12.2041 74.6281 12.5697 74.8719 12.8541C75.075 13.1385 75.4 13.3822 75.725 13.5854C76.0906 13.7885 76.4969 13.951 76.9438 14.1135C77.4313 14.276 77.8781 14.3979 78.3656 14.5604C78.8531 14.6822 79.3 14.8447 79.7469 15.0479C80.2344 15.2104 80.6406 15.4541 81.0063 15.6979C81.3313 15.9822 81.6156 16.3072 81.8594 16.6729C82.0625 17.0791 82.1844 17.5666 82.1844 18.0947C82.1844 18.7041 82.0625 19.2729 81.8594 19.7604C81.6563 20.2885 81.3313 20.7354 80.925 21.101C80.5188 21.5072 79.9906 21.7916 79.4219 21.9947C78.8125 22.2385 78.1219 22.3604 77.35 22.3604C76.4156 22.3604 75.5625 22.1979 74.8719 21.8729C74.1813 21.5885 73.5313 21.1822 73.0031 20.6541L73.3281 20.2072C73.3688 20.126 73.4094 20.0854 73.45 20.0447C73.5313 20.0041 73.6125 19.9635 73.6938 19.9635C73.8156 19.9635 73.9781 20.0447 74.1406 20.2072C74.3031 20.3291 74.5469 20.4916 74.8313 20.6947C75.1156 20.8572 75.4406 21.0197 75.8875 21.1416C76.2938 21.3041 76.8219 21.3854 77.4313 21.3854C78 21.3854 78.5281 21.3041 78.975 21.1416C79.3813 20.9791 79.7469 20.7354 80.0719 20.4916C80.3563 20.2072 80.5594 19.8822 80.7219 19.5166C80.8844 19.1104 80.9656 18.7447 80.9656 18.3385C80.9656 17.851 80.8438 17.4854 80.6406 17.1604C80.3969 16.876 80.1125 16.6322 79.7469 16.3885C79.3813 16.1854 78.975 16.0229 78.5281 15.8604C78.0813 15.6979 77.5938 15.576 77.1469 15.4135C76.6594 15.2916 76.1719 15.1291 75.725 14.926C75.2781 14.7635 74.8719 14.5604 74.5063 14.276C74.1406 13.9916 73.8563 13.6666 73.6125 13.301C73.4094 12.9354 73.2875 12.4479 73.2875 11.8791C73.2875 11.3916 73.4094 10.9041 73.6125 10.4572C73.8156 10.0104 74.1406 9.6041 74.5063 9.2791C74.9125 8.9541 75.4 8.66973 75.9281 8.4666C76.4969 8.26348 77.1469 8.1416 77.8375 8.1416C78.6906 8.1416 79.4219 8.26348 80.0719 8.50723C80.7219 8.75098 81.3313 9.1166 81.8594 9.64473L81.575 10.0916ZM90.5938 9.15723C89.9031 9.15723 89.2531 9.23848 88.6844 9.48223C88.1563 9.68535 87.6688 10.0104 87.2625 10.4166C86.8156 10.8229 86.4906 11.351 86.2469 11.9197C86.0031 12.4885 85.8406 13.1385 85.7594 13.8697H94.7781C94.7781 13.1385 94.6969 12.4479 94.4938 11.8791C94.2906 11.3104 94.0063 10.7822 93.6406 10.376C93.275 10.0104 92.8281 9.68535 92.3 9.48223C91.8125 9.23848 91.2438 9.15723 90.5938 9.15723ZM90.5938 8.1416C91.3656 8.1416 92.0563 8.3041 92.7469 8.54785C93.3969 8.83223 93.9656 9.19785 94.4531 9.72598C94.9406 10.2541 95.3063 10.8635 95.5906 11.5947C95.8344 12.3666 95.9969 13.2197 95.9969 14.1947C95.9969 14.3979 95.9563 14.5197 95.875 14.601C95.8344 14.6822 95.7531 14.7229 95.5906 14.7229H85.6781V14.9666C85.6781 15.9822 85.8 16.9166 86.0438 17.6885C86.2875 18.4604 86.6125 19.1104 87.0594 19.6385C87.5063 20.1666 88.0344 20.5729 88.6844 20.8572C89.2938 21.101 89.9844 21.2635 90.7563 21.2635C91.4469 21.2635 92.0563 21.1822 92.5844 21.0197C93.0719 20.8572 93.5188 20.6947 93.8438 20.4916C94.2094 20.3291 94.4531 20.1666 94.6563 20.0041C94.8594 19.8416 95.0219 19.7604 95.1031 19.7604C95.225 19.7604 95.3063 19.801 95.3875 19.9229L95.7531 20.3697C95.5094 20.6135 95.225 20.8979 94.8594 21.1416C94.4938 21.3447 94.0875 21.5885 93.6406 21.751C93.1938 21.9135 92.7469 22.0354 92.2188 22.1572C91.6906 22.2385 91.2031 22.2791 90.675 22.2791C89.7406 22.2791 88.8875 22.1166 88.1156 21.7916C87.3438 21.4666 86.6531 21.0197 86.125 20.3697C85.5563 19.7604 85.15 18.9885 84.825 18.0947C84.5406 17.1604 84.3781 16.1447 84.3781 14.9666C84.3781 13.9916 84.5 13.0572 84.7844 12.2447C85.0688 11.3916 85.475 10.701 86.0031 10.0916C86.5313 9.48223 87.1813 8.99473 87.9531 8.66973C88.725 8.34473 89.6188 8.1416 90.5938 8.1416Z" fill="#1B263A"/>
<path d="M25.9586 13.5446V12.4478C25.9586 11.5134 25.593 10.6603 24.9023 9.84775C24.5367 9.4415 24.0492 8.99463 23.4805 8.629C23.1961 8.42588 22.8711 8.22275 22.5055 8.01963C22.2211 7.89775 21.9773 7.73525 21.693 7.61338C20.9211 7.28838 20.1086 7.004 19.2148 6.76025C19.3367 7.12588 19.418 7.53213 19.4992 7.89775C19.5805 8.304 19.6617 8.71025 19.743 9.1165C20.1898 9.279 20.6773 9.4415 21.0836 9.64463C21.2867 9.72588 21.4898 9.80713 21.693 9.929C21.7742 9.96963 21.8961 10.0103 21.9773 10.0509C22.343 10.254 22.6273 10.4571 22.9117 10.6603C23.968 11.3509 24.618 12.1634 24.8211 12.9759C24.618 13.829 23.968 14.6415 22.9117 15.3321C23.0336 15.6571 23.1555 15.9415 23.2367 16.2259C23.3586 16.5915 23.4398 16.9978 23.4805 17.3634C24.0492 16.9978 24.5367 16.5509 24.9023 16.1446C25.593 15.3321 25.9586 14.479 25.9586 13.5446Z" fill="#1B263A"/>
<path d="M10.1164 19.8821C9.66953 19.5165 9.22266 19.1509 8.81641 18.7446C8.89766 19.0696 8.97891 19.4353 9.10078 19.7603C9.42578 19.8009 9.7914 19.8415 10.1164 19.8821Z" fill="#1B263A"/>
<path d="M12.4703 18.9479C12.6328 19.0698 12.7953 19.1917 12.9578 19.3135C13.3234 19.5167 13.6484 19.7604 13.9734 19.9229C14.0141 19.9635 14.0547 20.0042 14.0953 20.0042C14.6641 20.0042 15.2734 19.9635 15.8422 19.8823C16.1672 19.8417 16.5328 19.801 16.8578 19.7604C17.2641 19.6791 17.6703 19.5979 18.0766 19.5167C18.4422 19.4354 18.8484 19.3541 19.2141 19.2323C20.1078 18.9885 20.9203 18.7042 21.6922 18.3792C21.6109 18.0135 21.5297 17.6479 21.4078 17.2823C21.3672 17.201 21.3672 17.0792 21.3266 16.9573C21.2453 16.7542 21.1641 16.551 21.0828 16.3479C20.6766 16.551 20.1891 16.7135 19.7422 16.876C19.4172 16.9979 19.0516 17.0792 18.7266 17.1604C18.6859 17.201 18.6453 17.201 18.6047 17.201C18.1984 17.3229 17.8328 17.4042 17.4266 17.4448C17.2234 17.4854 17.0203 17.526 16.8172 17.5667C16.2078 17.6885 15.5984 17.7291 14.9484 17.8104C14.2984 17.851 13.6484 17.8917 12.9578 17.8917C12.3078 17.8917 11.6578 17.851 11.0078 17.8104C11.4547 18.2166 11.9828 18.5823 12.4703 18.9479Z" fill="#1B263A"/>
<path d="M4.55 8.7104C4.55 8.79165 4.59062 8.91353 4.63125 9.0354C4.7125 9.23853 4.79375 9.44165 4.875 9.64478C5.28125 9.44165 5.76875 9.27915 6.21563 9.11665C6.54063 8.99478 6.90625 8.91353 7.23125 8.83228C7.27187 8.79165 7.3125 8.79165 7.35313 8.79165C7.75938 8.7104 8.125 8.58853 8.53125 8.5479C8.73438 8.50728 8.9375 8.46665 9.14063 8.42603C9.75 8.34478 10.3594 8.26353 11.0094 8.18228C11.6594 8.14165 12.3094 8.14165 12.9594 8.14165C13.65 8.14165 14.3 8.14165 14.95 8.18228C14.5031 7.77603 13.975 7.4104 13.4875 7.04478C13.325 6.9229 13.1625 6.80103 12.9594 6.67915C12.6344 6.47603 12.3094 6.23228 11.9844 6.06978C11.9438 6.02915 11.9031 5.98853 11.8625 5.98853C11.2531 5.98853 10.6844 6.06978 10.1156 6.1104C9.79063 6.15103 9.425 6.19165 9.1 6.23228C8.69375 6.31353 8.2875 6.39478 7.88125 6.47603C7.51562 6.55728 7.10938 6.63853 6.74375 6.7604C5.85 7.00415 5.0375 7.28853 4.26562 7.61353C4.34688 7.97915 4.42812 8.34478 4.55 8.7104Z" fill="#1B263A"/>
<path d="M15.8438 6.11035C16.2906 6.47598 16.7375 6.8416 17.1438 7.24785C17.0625 6.92285 16.9813 6.55723 16.8594 6.23223C16.5344 6.1916 16.1688 6.15098 15.8438 6.11035Z" fill="#1B263A"/>
<path d="M1.1375 12.976C1.34062 12.1635 1.99063 11.351 3.04688 10.6604C2.925 10.3354 2.80312 10.051 2.72187 9.76665C2.6 9.40102 2.51875 8.99478 2.4375 8.62915C1.90938 8.99478 1.42188 9.44165 1.05625 9.8479C0.365625 10.6604 0 11.5135 0 12.4479V13.5448C0 14.4791 0.365625 15.3323 1.05625 16.1448C1.42188 16.551 1.90938 16.9573 2.4375 17.3635C2.7625 17.5666 3.0875 17.7698 3.45312 17.9729C3.7375 18.0948 3.98125 18.2573 4.26562 18.3791C5.0375 18.7041 5.85 18.9885 6.74375 19.2323C6.62188 18.8666 6.54062 18.4604 6.45937 18.0948C6.37812 17.6885 6.29688 17.2823 6.21563 16.876C5.76875 16.7135 5.28125 16.551 4.875 16.3479C4.67188 16.2666 4.46875 16.1854 4.26562 16.0635C4.18437 16.0229 4.0625 15.9823 3.98125 15.9416C3.61563 15.7385 3.33125 15.5354 3.04688 15.3323C1.99063 14.6416 1.34062 13.8291 1.1375 12.976Z" fill="#1B263A"/>
<path d="M15.8445 19.8823C15.2758 19.9229 14.6664 20.0042 14.0977 20.0042C14.382 20.2073 14.707 20.3698 14.9914 20.4917C15.2758 20.2886 15.5602 20.0854 15.8445 19.8823Z" fill="#1B263A"/>
<path d="M22.5484 4.20085L21.7766 3.42898C21.1266 2.77898 20.2328 2.41335 19.1766 2.3321C18.6078 2.29148 17.9984 2.37273 17.3484 2.4946C16.9828 2.53523 16.5766 2.6571 16.2109 2.73835C15.9266 2.8196 15.6422 2.94148 15.3172 3.06335C14.5859 3.34773 13.7734 3.71335 12.9609 4.16023C13.3266 4.36335 13.6516 4.56648 14.0172 4.81023C14.3422 5.01335 14.6672 5.2571 14.9922 5.50085C15.4391 5.2571 15.8859 5.05398 16.3328 4.89148C16.5359 4.81023 16.7391 4.72898 16.9422 4.64773C17.0641 4.6071 17.1859 4.6071 17.2672 4.56648C17.6328 4.4446 17.9984 4.36335 18.3641 4.2821C19.5828 4.07898 20.6391 4.20085 21.3703 4.6071" fill="#1B263A"/>
<path d="M21.3672 4.60732C21.7734 5.33857 21.8953 6.39483 21.6922 7.61358C21.9766 7.73545 22.2203 7.89795 22.5047 8.01983C22.8703 8.22295 23.1953 8.42608 23.4797 8.6292C23.6016 7.9792 23.6828 7.36983 23.6422 6.80108C23.5609 5.74483 23.1953 4.85107 22.5453 4.20107C22.4234 4.03857 22.3016 3.95732 22.1391 3.83545" fill="#1B263A"/>
<path d="M16.818 17.5666C17.0211 17.526 17.2242 17.4854 17.4273 17.4448C17.8336 17.4041 18.1992 17.3229 18.6055 17.201C18.6461 17.201 18.6867 17.201 18.7273 17.1604C19.1336 16.7541 19.4992 16.3073 19.8648 15.8604C20.068 15.576 20.3117 15.2916 20.4742 15.0073C20.718 14.6823 20.9617 14.3573 21.2055 14.0323C21.4086 13.6666 21.6117 13.3416 21.8148 13.0166C22.2617 12.2041 22.6273 11.3916 22.9117 10.6604C22.6273 10.4573 22.343 10.2542 21.9773 10.051C21.8961 10.0104 21.7742 9.96977 21.693 9.92915C21.4898 9.80727 21.2867 9.72603 21.0836 9.64478C20.9211 10.0917 20.718 10.5385 20.4742 10.9854C20.3523 11.2698 20.1898 11.5948 19.9867 11.8791C19.9867 11.9198 19.9461 11.9604 19.9055 12.001C19.743 12.326 19.4992 12.651 19.2961 13.0166C19.1742 13.1791 19.0523 13.3416 18.9305 13.5041C18.5648 13.9916 18.1992 14.5198 17.793 14.9666C17.3461 15.4948 16.8992 15.9823 16.4117 16.4291C15.9648 16.9166 15.4773 17.3635 14.9492 17.8104C15.5992 17.7291 16.2086 17.6885 16.818 17.5666Z" fill="#1B263A"/>
<path d="M10.1172 6.11035C10.6859 6.0291 11.2547 5.98848 11.8641 5.98848C11.5797 5.78535 11.2547 5.62285 10.9703 5.50098C10.6859 5.66348 10.4016 5.90723 10.1172 6.11035Z" fill="#1B263A"/>
<path d="M4.59049 21.3854C4.18424 20.6541 4.06237 19.5979 4.26549 18.3791C3.98112 18.2573 3.73737 18.0948 3.45299 17.9729C3.08737 17.7698 2.76237 17.5667 2.43737 17.3635C2.35612 18.0135 2.27487 18.6229 2.31549 19.1916C2.39674 20.2479 2.76237 21.1416 3.41237 21.7916L4.18424 22.5635C4.83424 23.2135 5.72799 23.5791 6.78424 23.6604C7.35299 23.701 7.96237 23.6198 8.61237 23.5385C8.97799 23.4573 9.38424 23.376 9.74987 23.2541C10.0342 23.1729 10.3186 23.051 10.6436 22.9291C11.3749 22.6448 12.1874 22.2791 12.9592 21.8323C12.6342 21.6291 12.3092 21.426 11.9436 21.2229C11.6186 20.9791 11.2936 20.776 10.9686 20.5323C10.5217 20.7354 10.0749 20.9385 9.62799 21.101C9.42487 21.1823 9.22174 21.2635 9.01862 21.3448C8.89674 21.3854 8.77487 21.426 8.69362 21.426C8.32799 21.5479 7.96237 21.6291 7.59674 21.7104C6.37799 21.9135 5.32174 21.7916 4.59049 21.3854Z" fill="#1B263A"/>
<path d="M3.98125 15.9415C4.0625 15.9821 4.18437 16.0228 4.26562 16.0634C4.46875 16.1853 4.67187 16.2665 4.875 16.3478C5.0375 15.9009 5.24062 15.454 5.48437 15.0071C5.60625 14.7228 5.76875 14.3978 5.97187 14.1134C5.97187 14.0728 6.0125 14.0321 6.05312 13.9915C6.21562 13.6665 6.45937 13.3415 6.6625 12.9759C6.78437 12.8134 6.90625 12.6509 7.02812 12.4884C7.39375 12.0009 7.75937 11.4728 8.16562 11.0259C8.6125 10.4978 9.05937 10.0103 9.54687 9.56338C9.99375 9.07588 10.4812 8.629 11.0094 8.18213C10.3594 8.26338 9.75 8.304 9.14062 8.42588C8.9375 8.4665 8.73437 8.50713 8.53125 8.54775C8.125 8.58838 7.75937 8.71025 7.35312 8.7915C7.3125 8.7915 7.27187 8.7915 7.23125 8.83213C6.825 9.23838 6.45937 9.68525 6.09375 10.1321C5.89062 10.4165 5.64687 10.7009 5.44375 10.9853C5.24062 11.3103 4.99687 11.6353 4.75312 11.9603C4.55 12.3259 4.34687 12.6509 4.14375 12.9759C3.69687 13.7884 3.33125 14.6009 3.04688 15.3321C3.33125 15.5353 3.61563 15.7384 3.98125 15.9415Z" fill="#1B263A"/>
<path d="M6.09375 15.8604C6.0125 15.2916 5.97187 14.6823 5.97187 14.1135C5.76875 14.3979 5.60625 14.7229 5.48438 15.0073C5.64688 15.2917 5.89062 15.576 6.09375 15.8604Z" fill="#1B263A"/>
<path d="M4.59049 4.6071C5.32174 4.20085 6.37799 4.07898 7.59674 4.2821C7.71862 3.99773 7.88112 3.75398 8.00299 3.4696C8.20612 3.10398 8.40924 2.77898 8.61237 2.4946C7.96237 2.37273 7.35299 2.29148 6.78424 2.3321C5.72799 2.41335 4.83424 2.77898 4.18424 3.42898C4.02174 3.55085 3.94049 3.67273 3.81862 3.83523C3.94049 3.67273 4.02174 3.55085 4.18424 3.42898L3.41237 4.20085C2.76237 4.85085 2.39674 5.7446 2.31549 6.80085C2.27487 7.3696 2.35612 7.97898 2.43737 8.62898C2.51862 8.9946 2.59987 9.40085 2.72174 9.76648C2.80299 10.0509 2.92487 10.3352 3.04674 10.6602C3.33112 11.3915 3.69674 12.204 4.14362 13.0165C4.34674 12.6509 4.54987 12.3259 4.75299 11.9602C4.99674 11.6352 5.24049 11.3102 5.44362 10.9852C5.24049 10.5384 5.03737 10.0915 4.87487 9.6446C4.79362 9.44148 4.71237 9.23835 4.63112 9.03523C4.59049 8.91335 4.54987 8.79148 4.54987 8.71023C4.42799 8.3446 4.34674 7.97898 4.26549 7.61335C4.06237 6.3946 4.18424 5.33835 4.59049 4.6071Z" fill="#1B263A"/>
<path d="M19.8672 10.1323C19.9078 10.7011 19.9891 11.3104 19.9891 11.8792C20.1922 11.5948 20.3547 11.2698 20.4766 10.9854C20.3141 10.7011 20.0703 10.4167 19.8672 10.1323Z" fill="#1B263A"/>
<path d="M17.5508 9.15723C17.5102 8.9541 17.4695 8.75098 17.4289 8.54785C17.3883 8.1416 17.2664 7.77598 17.1852 7.36973C17.1852 7.3291 17.1852 7.28848 17.1445 7.24785C16.7383 6.8416 16.2914 6.47598 15.8445 6.11035C15.5602 5.90723 15.2758 5.66348 14.9914 5.50098C14.6664 5.25723 14.3414 5.01348 14.0164 4.76973C13.6508 4.5666 13.3258 4.36348 12.9602 4.16035C12.1883 3.71348 11.3758 3.34785 10.6445 3.06348C10.4414 3.34785 10.2383 3.63223 10.0352 3.99785C9.99453 4.0791 9.95391 4.20098 9.91328 4.28223C9.79141 4.48535 9.71016 4.68848 9.62891 4.8916C10.0758 5.0541 10.5227 5.25723 10.9695 5.50098C11.2539 5.62285 11.5789 5.78535 11.8633 5.98848C11.9039 5.98848 11.9445 6.0291 11.9852 6.06973C12.3102 6.23223 12.6352 6.47598 12.9602 6.6791C13.1633 6.80098 13.3258 6.92285 13.4883 7.04473C13.9758 7.41035 14.5039 7.77598 14.9508 8.18223C15.4789 8.6291 15.9664 9.07598 16.4133 9.56348C16.9008 10.0104 17.3477 10.4979 17.7945 11.026C17.7133 10.376 17.632 9.7666 17.5508 9.15723Z" fill="#1B263A"/>
<path d="M8.40781 16.8353C8.44844 17.0384 8.48906 17.2416 8.52969 17.4447C8.57031 17.8509 8.69219 18.2166 8.77344 18.6228C8.77344 18.6634 8.77344 18.7041 8.81406 18.7447C9.22031 19.1509 9.66719 19.5166 10.1141 19.8822C10.3984 20.0853 10.6828 20.3291 10.9672 20.4916C11.2922 20.7353 11.6172 20.9791 11.9422 21.2228C12.3078 21.4259 12.6328 21.6291 12.9578 21.8322C13.7703 22.2791 14.5828 22.6447 15.3141 22.9291C15.5172 22.6447 15.7203 22.3603 15.9234 21.9947C15.9641 21.9134 16.0047 21.7916 16.0453 21.7103C16.1672 21.5072 16.2484 21.3041 16.3297 21.1009C15.8828 20.9384 15.4359 20.7353 14.9891 20.4916C14.7047 20.3697 14.3797 20.2072 14.0953 20.0041C14.0547 20.0041 14.0141 19.9634 13.9734 19.9228C13.6484 19.7603 13.3234 19.5166 12.9578 19.3134C12.7953 19.1916 12.6328 19.0697 12.4703 18.9478C11.9828 18.5822 11.4547 18.2166 11.0078 17.8103C10.4797 17.3634 9.99219 16.9166 9.54531 16.4291C9.05781 15.9822 8.61094 15.4947 8.16406 14.9666C8.24531 15.6166 8.28594 16.2259 8.40781 16.8353Z" fill="#1B263A"/>
<path d="M21.7758 22.5635L22.5477 21.7916C23.1977 21.1416 23.5633 20.2479 23.6445 19.1916C23.6852 18.6229 23.6039 18.0135 23.482 17.3635C23.4414 16.9979 23.3602 16.5916 23.2383 16.226C23.157 15.9416 23.0352 15.6572 22.9133 15.3322C22.6289 14.601 22.2633 13.7885 21.8164 13.0166C21.6133 13.3416 21.4102 13.6666 21.207 14.0322C20.9633 14.3572 20.7195 14.6822 20.4758 15.0072C20.7195 15.4541 20.9227 15.901 21.0852 16.3479C21.1664 16.551 21.2477 16.7541 21.3289 16.9572C21.3695 17.0791 21.3695 17.201 21.4102 17.2822C21.532 17.6479 21.6133 18.0135 21.6945 18.3791C21.8977 19.5979 21.7758 20.6541 21.3695 21.3854C20.6383 21.7916 19.582 21.9135 18.3633 21.7104C18.2414 21.9947 18.0789 22.2385 17.957 22.5229C17.7539 22.8885 17.5508 23.2135 17.3477 23.4979C17.9977 23.6197 18.607 23.701 19.1758 23.6604C20.232 23.5791 21.1258 23.2135 21.7758 22.5635Z" fill="#1B263A"/>
<path d="M7.02891 12.4884C6.90703 12.6509 6.78516 12.8134 6.66328 13.0165C6.46016 13.3415 6.21641 13.6665 6.05391 13.9915C6.01328 14.0321 5.97266 14.0728 5.97266 14.1134C5.97266 14.6821 6.01328 15.2915 6.09453 15.8603C6.13516 16.1853 6.17578 16.5509 6.21641 16.8759C6.29766 17.2821 6.37891 17.6884 6.46016 18.0946C6.54141 18.4603 6.62266 18.8665 6.74453 19.2321C6.98828 20.1259 7.27266 20.9384 7.59766 21.7103C7.96328 21.629 8.32891 21.5478 8.69453 21.4259C8.77578 21.3853 8.89766 21.3853 9.01953 21.3446C9.22266 21.2634 9.42578 21.1821 9.62891 21.1009C9.42578 20.6946 9.26328 20.2071 9.10078 19.7603C8.97891 19.4353 8.89766 19.0696 8.81641 18.7446C8.77578 18.704 8.77578 18.6634 8.77578 18.6228C8.69453 18.2165 8.57266 17.8509 8.53203 17.4446C8.49141 17.2415 8.45078 17.0384 8.41016 16.8353C8.28828 16.2259 8.24766 15.6165 8.16641 14.9665C8.12578 14.3165 8.08516 13.6665 8.08516 13.0165C8.08516 12.3259 8.12578 11.6759 8.16641 11.0259C7.76016 11.4728 7.39453 12.0009 7.02891 12.4884Z" fill="#1B263A"/>
<path d="M19.8641 15.8604C19.4984 16.3072 19.1328 16.7541 18.7266 17.1604C19.0516 17.0791 19.4172 16.9979 19.7422 16.876C19.7828 16.551 19.8234 16.1854 19.8641 15.8604Z" fill="#1B263A"/>
<path d="M6.09375 10.1323C6.45937 9.6854 6.825 9.27915 7.23125 8.83228C6.90625 8.91353 6.54062 8.99477 6.21562 9.11665C6.175 9.44165 6.13437 9.80727 6.09375 10.1323Z" fill="#1B263A"/>
<path d="M18.932 13.5041C19.0539 13.3416 19.1758 13.1791 19.2977 13.0166C19.5008 12.651 19.7445 12.326 19.907 12.001C19.9477 11.9604 19.9883 11.9197 19.9883 11.8791C19.9883 11.3104 19.907 10.701 19.8664 10.1322C19.8258 9.80723 19.7852 9.4416 19.7445 9.1166C19.6633 8.71035 19.582 8.3041 19.5008 7.89785C19.4195 7.53223 19.3383 7.12598 19.2164 6.76035C18.9727 5.8666 18.6883 5.0541 18.3633 4.28223C17.9977 4.36348 17.632 4.44473 17.2664 4.5666C17.1852 4.60723 17.0633 4.60723 16.9414 4.64785C16.7383 4.7291 16.5352 4.81035 16.332 4.8916C16.5352 5.29785 16.6977 5.78535 16.8602 6.23223C16.982 6.55723 17.0633 6.92285 17.1445 7.24785C17.1852 7.28848 17.1852 7.3291 17.1852 7.36973C17.2664 7.77598 17.3883 8.1416 17.4289 8.54785C17.4695 8.75098 17.5102 8.9541 17.5508 9.15723C17.632 9.7666 17.7133 10.376 17.7945 11.026C17.8352 11.676 17.8352 12.326 17.8352 13.0166C17.8352 13.6666 17.8352 14.3166 17.7945 14.9666C18.2008 14.5197 18.5664 13.9916 18.932 13.5041Z" fill="#1B263A"/>
<path d="M17.3453 2.4541C16.9391 1.92598 16.5328 1.43848 16.1266 1.07285C15.3141 0.382226 14.4609 0.0166016 13.5266 0.0166016H12.4297C11.4953 0.0166016 10.6422 0.382226 9.82969 1.07285C9.42344 1.43848 8.97656 1.92598 8.61094 2.4541C8.40781 2.7791 8.20469 3.1041 8.00156 3.46973C7.87969 3.7541 7.71719 3.99785 7.59531 4.28223C7.27031 5.0541 6.98594 5.8666 6.74219 6.76035C7.10781 6.63848 7.51406 6.55723 7.87969 6.47598C8.28594 6.39473 8.69219 6.31348 9.09844 6.23223C9.26094 5.78535 9.42344 5.29785 9.62656 4.8916C9.70781 4.68848 9.78906 4.48535 9.91094 4.28223C9.95156 4.20098 9.99219 4.0791 10.0328 3.99785C10.2359 3.63223 10.4391 3.34785 10.6422 3.06348C11.3328 2.00723 12.1453 1.35723 12.9578 1.1541C13.8109 1.35723 14.6234 2.00723 15.3141 3.06348C15.6391 2.9416 15.9234 2.81973 16.2078 2.73848" fill="#1B263A"/>
<path d="M12.432 25.9759H13.5289C14.4633 25.9759 15.3164 25.6103 16.1289 24.9197C16.5352 24.5541 16.9414 24.0666 17.3477 23.4978C17.5508 23.2134 17.7539 22.8884 17.957 22.5228C18.0789 22.2384 18.2414 21.9947 18.3633 21.7103C18.6883 20.9384 18.9727 20.1259 19.2164 19.2322L18.0789 19.5166C17.6727 19.5978 17.2664 19.6791 16.8602 19.7603C16.6977 20.2072 16.5352 20.6947 16.332 21.1009C16.2508 21.3041 16.1695 21.5072 16.0477 21.7103C16.007 21.7916 15.9664 21.9134 15.9258 21.9947C15.7227 22.3603 15.5195 22.6447 15.3164 22.9291C14.6258 23.9853 13.8133 24.6353 12.9602 24.8384C12.1477 24.6353 11.3352 23.9853 10.6445 22.9291C10.3195 23.0509 10.0352 23.1728 9.75078 23.2541L8.61328 23.4978C8.97891 24.0666 9.42578 24.5541 9.83203 24.9197C10.6445 25.6103 11.4977 25.9759 12.432 25.9759Z" fill="#1B263A"/>
</g>
<defs>
<clipPath id="clip0_554_6873">
<rect width="96.2812" height="26" fill="white" transform="translate(0 0.0166016)"/>
</clipPath>
</defs>
</svg>
