<?xml version="1.0" encoding="UTF-8"?>
<svg width="791px" height="482px" viewBox="0 0 791 482" version="1.1" xmlns="http://www.w3.org/2000/svg" xmlns:xlink="http://www.w3.org/1999/xlink">
    <title>Artboard</title>
    <defs>
        <polygon id="path-1" points="59.914 24.668 0 24.668 0 0 59.914 0"></polygon>
    </defs>
    <g id="Artboard" stroke="none" stroke-width="1" fill="none" fill-rule="evenodd">
        <g id="Group">
            <path d="M736.17992,0 L588.83492,0 C570.07292,0 554.91292,15.1806 554.91292,33.9666 L554.91292,170.0227 C539.75192,216.039 499.00692,227.14 482.42392,229.701 L428.50792,229.701 C413.25292,229.701 400.83992,242.131 400.83992,257.406 L400.83992,328.755 C400.83992,328.945 400.74492,329.039 400.74492,329.229 C391.93292,369.078 354.97792,379.135 346.82892,380.938 L309.11592,380.938 C299.26192,381.033 291.20692,389.003 291.20692,398.965 L291.20692,464.147 C291.20692,474.109 299.26192,482.079 309.11592,482.079 L374.49792,482.079 C384.44692,482.079 392.40692,474.014 392.40692,464.147 L392.40692,426.385 C401.69292,376.669 440.63692,369.173 446.89092,368.319 L511.70392,368.319 C526.95992,368.319 539.37292,355.89 539.37292,340.615 L539.37292,292.226 C539.46692,291.657 539.46692,291.088 539.56192,290.519 C545.15292,227.329 594.61492,215.659 597.45792,214.995 L735.99092,214.995 C754.75192,214.995 769.914687,199.815 769.914687,181.029 L769.914687,33.9666 C770.10292,15.1806 754.94192,0 736.17992,0 Z" id="Path" fill="#85F1F0" fill-rule="nonzero"></path>
            <path d="M652.64292,70.75052 C656.68392,66.5407 662.30892,63.9298 668.52992,63.9298 C676.79992,63.9298 684.01492,68.5412 687.85692,75.38689 C691.19592,73.89497 694.89192,73.06513 698.77992,73.06513 C713.69592,73.06513 725.78792,85.2628 725.78792,100.3087 C725.78792,115.3563 713.69592,127.554 698.77992,127.554 C696.95992,127.554 695.18092,127.372 693.46092,127.024 C690.07692,133.0595 683.62892,137.1372 676.22892,137.1372 C673.12992,137.1372 670.19992,136.4216 667.59092,135.1492 C664.16092,143.2173 656.16992,148.8745 646.85592,148.8745 C637.15692,148.8745 628.89092,142.7373 625.71792,134.1302 C624.33092,134.4247 622.89392,134.5781 621.41992,134.5781 C609.87192,134.5781 600.50992,125.1198 600.50992,113.4504 C600.50992,105.6303 604.71592,98.8025 610.96592,95.1494 C609.67892,92.1888 608.96392,88.92121 608.96392,85.48588 C608.96392,72.06577 619.85892,61.1869 633.29692,61.1869 C641.18592,61.1869 648.19792,64.9381 652.64292,70.75052 Z" id="Path" fill="#1B263A" fill-rule="nonzero"></path>
            <path d="M618.65592,106.659 C618.57692,106.8643 618.68392,106.9071 618.70892,106.9428 C618.94492,107.1141 619.18392,107.2372 619.42492,107.3747 C620.70292,108.0528 621.90892,108.2509 623.17092,108.2509 C625.74092,108.2509 627.33592,106.8839 627.33592,104.6835 L627.33592,104.6407 C627.33592,102.6062 625.53492,101.8674 623.84492,101.3338 L623.62592,101.2624 C622.35192,100.8484 621.25192,100.4915 621.25192,99.6527 L621.25192,99.6081 C621.25192,98.8907 621.89492,98.3625 622.89092,98.3625 C623.99692,98.3625 625.30992,98.7301 626.15592,99.1977 C626.15592,99.1977 626.40392,99.3583 626.49492,99.1174 C626.54492,98.9889 626.97392,97.836 627.01792,97.7111 C627.06592,97.5755 626.98092,97.4755 626.89292,97.422 C625.92792,96.8349 624.59292,96.4333 623.21192,96.4333 L622.95492,96.4351 C620.60292,96.4351 618.96092,97.8557 618.96092,99.8919 L618.96092,99.9347 C618.96092,102.0816 620.77192,102.7776 622.46892,103.263 L622.74192,103.3468 C623.97892,103.727 625.04492,104.0535 625.04492,104.9244 L625.04492,104.9672 C625.04492,105.7632 624.35192,106.3557 623.23492,106.3557 C622.80092,106.3557 621.41792,106.3467 619.92492,105.4027 C619.74392,105.2974 619.63892,105.2207 619.49992,105.1368 C619.42692,105.0904 619.24292,105.0101 619.16292,105.2528 L618.65592,106.659 Z" id="Path" fill="#D0EFF9" fill-rule="nonzero"></path>
            <path d="M656.27492,106.659 C656.19592,106.8643 656.30292,106.9071 656.32792,106.9428 C656.56392,107.1141 656.80292,107.2372 657.04392,107.3747 C658.32192,108.0528 659.52792,108.2509 660.78992,108.2509 C663.35992,108.2509 664.95492,106.8839 664.95492,104.6835 L664.95492,104.6407 C664.95492,102.6062 663.15392,101.8674 661.46392,101.3338 L661.24492,101.2624 C659.97092,100.8484 658.87092,100.4915 658.87092,99.6527 L658.87092,99.6081 C658.87092,98.8907 659.51392,98.3625 660.50992,98.3625 C661.61592,98.3625 662.92992,98.7301 663.77492,99.1977 C663.77492,99.1977 664.02392,99.3583 664.11492,99.1174 C664.16392,98.9889 664.59292,97.836 664.63692,97.7111 C664.68592,97.5755 664.59992,97.4755 664.51192,97.422 C663.54692,96.8349 662.21192,96.4333 660.83092,96.4333 L660.57392,96.4351 C658.22192,96.4351 656.57992,97.8557 656.57992,99.8919 L656.57992,99.9347 C656.57992,102.0816 658.39092,102.7776 660.08792,103.263 L660.36192,103.3468 C661.59792,103.727 662.66492,104.0535 662.66492,104.9244 L662.66492,104.9672 C662.66492,105.7632 661.97092,106.3557 660.85392,106.3557 C660.41992,106.3557 659.03692,106.3467 657.54392,105.4027 C657.36292,105.2974 657.25592,105.2242 657.12092,105.1368 C657.07392,105.1064 656.85692,105.0226 656.78192,105.2528 L656.27492,106.659 Z" id="Path" fill="#D0EFF9" fill-rule="nonzero"></path>
            <path d="M681.95992,102.3491 C681.95992,103.593 681.72792,104.5727 681.27092,105.2651 C680.81992,105.9504 680.13592,106.2841 679.18292,106.2841 C678.22892,106.2841 677.54892,105.9522 677.10392,105.2651 C676.65492,104.5745 676.42592,103.593 676.42592,102.3491 C676.42592,101.107 676.65492,100.1291 677.10392,99.4438 C677.54892,98.7656 678.22892,98.4355 679.18292,98.4355 C680.13592,98.4355 680.81992,98.7656 681.27292,99.4438 C681.72792,100.1291 681.95992,101.107 681.95992,102.3491 Z M684.10492,100.0434 C683.89492,99.3314 683.56592,98.7032 683.12892,98.1803 C682.69192,97.6556 682.13892,97.2345 681.48192,96.9275 C680.82692,96.6224 680.05192,96.4671 679.18292,96.4671 C678.31192,96.4671 677.53792,96.6224 676.88292,96.9275 C676.22592,97.2345 675.67292,97.6556 675.23392,98.1803 C674.79892,98.705 674.46992,99.3331 674.25792,100.0434 C674.04892,100.7519 673.94392,101.5264 673.94392,102.3491 C673.94392,103.1718 674.04892,103.9481 674.25792,104.6548 C674.46992,105.3651 674.79692,105.9932 675.23592,106.5179 C675.67292,107.0426 676.22792,107.462 676.88292,107.76 C677.53992,108.058 678.31192,108.2097 679.18292,108.2097 C680.05192,108.2097 680.82492,108.058 681.48192,107.76 C682.13692,107.462 682.69192,107.0426 683.12892,106.5179 C683.56592,105.995 683.89492,105.3668 684.10492,104.6548 C684.31592,103.9463 684.42092,103.17 684.42092,102.3491 C684.42092,101.5282 684.31592,100.7519 684.10492,100.0434 Z" id="Shape" fill="#D0EFF9" fill-rule="nonzero"></path>
            <path d="M701.71792,105.952 C701.64692,105.7433 701.44492,105.8218 701.44492,105.8218 C701.13292,105.9413 700.80092,106.052 700.44792,106.1073 C700.08892,106.1626 699.69492,106.1912 699.27192,106.1912 C698.23292,106.1912 697.40892,105.8825 696.81792,105.2721 C696.22492,104.6618 695.89292,103.6749 695.89692,102.34 C695.90092,101.1247 696.19292,100.211 696.71992,99.515 C697.24292,98.8226 698.03792,98.4675 699.09992,98.4675 C699.98492,98.4675 700.65992,98.5692 701.36692,98.7923 C701.36692,98.7923 701.53592,98.8654 701.61692,98.6442 C701.80392,98.1231 701.94292,97.7501 702.14292,97.1772 C702.19992,97.0148 702.06092,96.9452 702.01092,96.9256 C701.73292,96.8167 701.07592,96.6401 700.57992,96.5651 C700.11592,96.4937 699.57292,96.4562 698.96992,96.4562 C698.06892,96.4562 697.26592,96.6097 696.57892,96.9167 C695.89292,97.2218 695.31192,97.643 694.85092,98.1677 C694.39092,98.6923 694.04092,99.3205 693.80692,100.0308 C693.57492,100.7393 693.45692,101.5173 693.45692,102.34 C693.45692,104.1193 693.93792,105.5577 694.88492,106.6106 C695.83492,107.667 697.25992,108.2042 699.11992,108.2042 C700.21892,108.2042 701.34692,107.9811 702.15692,107.6617 C702.15692,107.6617 702.31292,107.5867 702.24492,107.4065 L701.71792,105.952 Z" id="Path" fill="#D0EFF9" fill-rule="nonzero"></path>
            <path d="M705.47192,101.1575 C705.57292,100.4669 705.76392,99.8922 706.05892,99.4443 C706.50292,98.7644 707.18092,98.3914 708.13392,98.3914 C709.08692,98.3914 709.71692,98.7662 710.16892,99.4443 C710.46892,99.8922 710.59892,100.4919 710.65092,101.1575 L705.47192,101.1575 Z M712.69392,99.6388 C712.51192,98.9518 712.05992,98.2576 711.76392,97.9399 C711.29692,97.4366 710.83992,97.0851 710.38592,96.8888 C709.79392,96.6354 709.08392,96.4676 708.30592,96.4676 C707.39892,96.4676 706.57592,96.6193 705.90892,96.9334 C705.23992,97.2475 704.67792,97.6758 704.23692,98.2094 C703.79592,98.7412 703.46392,99.3747 703.25292,100.0939 C703.04092,100.8095 702.93392,101.5894 702.93392,102.4121 C702.93392,103.2491 703.04492,104.0289 703.26392,104.7303 C703.48492,105.437 703.83892,106.0598 704.31692,106.5755 C704.79392,107.0948 705.40692,107.5017 706.14292,107.7855 C706.87292,108.0674 707.75992,108.2138 708.77892,108.212016 C710.87492,108.2049 711.97992,107.7373 712.43492,107.4857 C712.51492,107.4411 712.59192,107.3625 712.49592,107.1377 L712.02092,105.8082 C711.94992,105.6101 711.74792,105.6832 711.74792,105.6832 C711.22892,105.876 710.48992,106.2222 708.76792,106.2186 C707.64192,106.2168 706.80692,105.8849 706.28392,105.3656 C705.74692,104.8338 705.48392,104.0521 705.43792,102.9492 L712.69892,102.9564 C712.69892,102.9564 712.88992,102.9528 712.90992,102.7672 C712.91692,102.6887 713.15992,101.2753 712.69392,99.6388 Z" id="Shape" fill="#D0EFF9" fill-rule="nonzero"></path>
            <path d="M647.31892,101.1575 C647.42292,100.4669 647.61192,99.8922 647.90592,99.4443 C648.35092,98.7644 649.02892,98.3914 649.98192,98.3914 C650.93492,98.3914 651.56492,98.7662 652.01792,99.4443 C652.31592,99.8922 652.44592,100.4919 652.49792,101.1575 L647.31892,101.1575 Z M654.53992,99.6388 C654.35792,98.9518 653.90792,98.2576 653.61192,97.9399 C653.14392,97.4366 652.68692,97.0851 652.23392,96.8888 C651.64192,96.6354 650.93092,96.4676 650.15292,96.4676 C649.24792,96.4676 648.42392,96.6193 647.75692,96.9334 C647.08692,97.2475 646.52492,97.6758 646.08392,98.2094 C645.64392,98.7412 645.31192,99.3747 645.10092,100.0939 C644.89092,100.8095 644.78192,101.5894 644.78192,102.4121 C644.78192,103.2491 644.89192,104.0289 645.11192,104.7303 C645.33292,105.437 645.68592,106.0598 646.16492,106.5755 C646.64092,107.0948 647.25492,107.5017 647.98992,107.7855 C648.71992,108.0674 649.60692,108.2138 650.62592,108.212016 C652.72292,108.2049 653.82792,107.7373 654.28292,107.4857 C654.36292,107.4411 654.43992,107.3625 654.34392,107.1377 L653.87092,105.8082 C653.79692,105.6101 653.59592,105.6832 653.59592,105.6832 C653.07592,105.876 652.33892,106.2222 650.61392,106.2186 C649.48892,106.2168 648.65392,105.8849 648.13092,105.3656 C647.59392,104.8338 647.33192,104.0521 647.28492,102.9492 L654.54692,102.9564 C654.54692,102.9564 654.73792,102.9528 654.75792,102.7672 C654.76492,102.6887 655.00692,101.2753 654.53992,99.6388 Z" id="Shape" fill="#D0EFF9" fill-rule="nonzero"></path>
            <path d="M631.62392,105.9123 C631.34092,105.6857 631.30092,105.6286 631.20492,105.4822 C631.06192,105.2591 630.98892,104.9415 630.98892,104.5382 C630.98892,103.8993 631.19992,103.4406 631.63692,103.1319 C631.63192,103.1337 632.26092,102.5876 633.74292,102.6072 C634.78292,102.6215 635.71292,102.775 635.71292,102.775 L635.71292,106.0765 L635.71492,106.0765 C635.71492,106.0765 634.79192,106.2746 633.75292,106.337 C632.27592,106.4263 631.61892,105.9105 631.62392,105.9123 Z M634.51392,100.8102 C634.21892,100.7887 633.83692,100.7763 633.37992,100.7763 C632.75792,100.7763 632.15592,100.8548 631.59192,101.0065 C631.02492,101.1582 630.51392,101.3955 630.07492,101.7096 C629.63492,102.0255 629.27892,102.4288 629.02192,102.9071 C628.76492,103.3853 628.63492,103.9493 628.63492,104.581 C628.63492,105.2235 628.74592,105.782 628.96692,106.2389 C629.18792,106.6975 629.50792,107.0794 629.91492,107.3739 C630.31792,107.6683 630.81592,107.8843 631.39392,108.0145 C631.96292,108.1448 632.60892,108.2109 633.31592,108.2109 C634.05992,108.2109 634.80292,108.1502 635.52192,108.027 C636.23392,107.9057 637.10792,107.729 637.35092,107.6737 C637.59192,107.6166 637.85992,107.5434 637.85992,107.5434 C638.03992,107.4988 638.02592,107.3061 638.02592,107.3061 L638.02192,100.6656 C638.02192,99.2094 637.63292,98.1297 636.86692,97.4605 C636.10492,96.793 634.98292,96.4558 633.53192,96.4558 C632.98792,96.4558 632.11192,96.5307 631.58692,96.636 C631.58692,96.636 629.99992,96.943 629.34692,97.4533 C629.34692,97.4533 629.20392,97.5426 629.28292,97.7425 L629.79692,99.1237 C629.86092,99.3022 630.03392,99.2415 630.03392,99.2415 C630.03392,99.2415 630.08992,99.2201 630.15392,99.1826 C631.55092,98.4224 633.31792,98.4456 633.31792,98.4456 C634.10292,98.4456 634.70592,98.6026 635.11292,98.9149 C635.50892,99.2183 635.71092,99.6769 635.71092,100.6442 L635.71092,100.9511 C635.08592,100.8619 634.51392,100.8102 634.51392,100.8102 Z" id="Shape" fill="#D0EFF9" fill-rule="nonzero"></path>
            <path d="M693.07992,97.0686 C693.13492,96.9044 693.01892,96.8259 692.97092,96.808 C692.84792,96.7599 692.23092,96.6296 691.75392,96.5992 C690.84192,96.5439 690.33492,96.6974 689.88192,96.9008 C689.43192,97.1043 688.93292,97.4327 688.65392,97.8056 L688.65392,96.9223 C688.65392,96.7991 688.56692,96.701 688.44592,96.701 L686.58392,96.701 C686.46292,96.701 686.37492,96.7991 686.37492,96.9223 L686.37492,107.7529 C686.37492,107.8743 686.47492,107.9742 686.59692,107.9742 L688.50392,107.9742 C688.62592,107.9742 688.72392,107.8743 688.72392,107.7529 L688.72392,102.3421 C688.72392,101.6157 688.80392,100.8912 688.96492,100.4361 C689.12192,99.9864 689.33592,99.6259 689.59992,99.3671 C689.86592,99.1102 690.16792,98.9299 690.49792,98.8282 C690.83492,98.7247 691.20792,98.6908 691.47192,98.6908 C691.85192,98.6908 692.26992,98.7889 692.26992,98.7889 C692.40892,98.805 692.48792,98.7193 692.53392,98.5926 C692.65892,98.2607 693.01192,97.2667 693.07992,97.0686 Z" id="Path" fill="#D0EFF9" fill-rule="nonzero"></path>
            <path d="M675.17092,92.0488 C674.93892,91.9774 674.72792,91.9292 674.45392,91.8775 C674.17492,91.8275 673.84292,91.8025 673.46692,91.8025 C672.15292,91.8025 671.11792,92.1737 670.39192,92.9054 C669.66892,93.6335 669.17792,94.7417 668.93192,96.1997 L668.84292,96.6905 L667.19392,96.6905 C667.19392,96.6905 666.99392,96.6834 666.95092,96.9011 L666.68192,98.4126 C666.66192,98.5554 666.72492,98.6464 666.91692,98.6464 L668.52192,98.6464 L666.89392,107.7335 C666.76692,108.4652 666.62092,109.0666 666.45892,109.5235 C666.29992,109.9732 666.14492,110.3105 665.95192,110.5568 C665.76592,110.7923 665.59092,110.9672 665.28792,111.0689 C665.03792,111.1528 664.74892,111.1921 664.43292,111.1921 C664.25792,111.1921 664.02492,111.1635 663.85092,111.1278 C663.67992,111.0939 663.58892,111.0564 663.45892,111.0011 C663.45892,111.0011 663.27092,110.9297 663.19592,111.1171 C663.13792,111.2724 662.70892,112.4484 662.65792,112.593 C662.60792,112.7375 662.67892,112.85 662.76992,112.8839 C662.98392,112.9588 663.14292,113.0088 663.43392,113.0784 C663.83692,113.173 664.17792,113.1783 664.49692,113.1783 C665.16492,113.1783 665.77492,113.0837 666.27992,112.9017 C666.78692,112.7179 667.22992,112.3985 667.62192,111.9666 C668.04492,111.499 668.31092,111.01 668.56392,110.3408 C668.81592,109.6805 669.03192,108.8596 669.20292,107.9031 L670.83992,98.6464 L673.23092,98.6464 C673.23092,98.6464 673.43292,98.6535 673.47392,98.434 L673.74492,96.9243 C673.76292,96.7797 673.70192,96.6905 673.50792,96.6905 L671.18592,96.6905 C671.19892,96.6387 671.30392,95.8214 671.56992,95.0523 C671.68392,94.7257 671.89792,94.4598 672.07792,94.2777 C672.25692,94.0993 672.46192,93.9726 672.68692,93.8994 C672.91692,93.8245 673.17892,93.7888 673.46692,93.7888 C673.68392,93.7888 673.89992,93.8137 674.06292,93.8476 C674.28792,93.8958 674.37492,93.9208 674.43392,93.9387 C674.67092,94.01 674.70292,93.9404 674.74992,93.8262 L675.30492,92.3022 C675.36192,92.138 675.22092,92.0684 675.17092,92.0488 Z" id="Path" fill="#D0EFF9" fill-rule="nonzero"></path>
            <path d="M642.73192,107.7532 C642.73192,107.8745 642.64492,107.9727 642.52392,107.9727 L640.59792,107.9727 C640.47692,107.9727 640.39092,107.8745 640.39092,107.7532 L640.39092,92.2558 C640.39092,92.1345 640.47692,92.0363 640.59792,92.0363 L642.52392,92.0363 C642.64492,92.0363 642.73192,92.1345 642.73192,92.2558 L642.73192,107.7532 Z" id="Path" fill="#D0EFF9" fill-rule="nonzero"></path>
            <path d="M339.35392,424.446 L339.35392,451.618 L316.84792,451.618 L339.35392,424.446 Z M339.35392,414.696 C339.35392,417.68 338.16792,420.542 336.05792,422.653 C333.94792,424.763 331.08492,425.949 328.10092,425.949 C325.11692,425.949 322.25392,424.763 320.14392,422.653 C318.03392,420.542 316.84792,417.68 316.84792,414.696 L339.35392,414.696 Z M343.06092,451.62 C343.06092,448.636 344.24692,445.774 346.35692,443.663 C348.46792,441.553 351.32992,440.367 354.31392,440.367 C357.29892,440.367 360.16092,441.553 362.27092,443.663 C364.38192,445.774 365.56692,448.636 365.56692,451.62 L343.06092,451.62 Z M343.06092,441.87 L343.06092,414.696 L365.57192,414.696 L343.06092,441.867 L343.06092,441.87 Z" id="Shape" fill="#1B263A" fill-rule="nonzero"></path>
            <g id="Clipped" transform="translate(439.665920, 302.993000)">
                <mask id="mask-2" fill="white">
                    <use xlink:href="#path-1"></use>
                </mask>
                <g id="Path"></g>
                <g id="Group" mask="url(#mask-2)" fill="#1B263A">
                    <g transform="translate(0.000000, -0.002737)" id="Path">
                        <path d="M39.48,6.08673681 L3.042,6.08673681 C1.361,6.08673681 0,4.72573681 0,3.04573681 C0,1.36473681 1.361,0.00473681195 3.042,0.00473681195 L39.48,0.00473681195 C41.161,0.00473681195 42.521,1.36473681 42.521,3.04573681 C42.521,4.72573681 41.161,6.08673681 39.48,6.08673681 Z"></path>
                        <path d="M31.667,24.7157368 C28.699,24.7157368 25.767,24.2747368 22.954,23.4027368 C22.184,23.1647368 21.54,22.6297368 21.164,21.9157368 C20.788,21.2027368 20.71,20.3687368 20.949,19.5987368 C21.446,17.9867368 23.154,17.0897368 24.754,17.5907368 C26.984,18.2827368 29.309,18.6327368 31.667,18.6327368 C41.987,18.6327368 50.947,12.0107368 53.965,2.14973681 C54.081,1.76773681 54.272,1.41273681 54.527,1.10473681 C54.781,0.796736812 55.093,0.541736812 55.446,0.354736812 C55.799,0.167736812 56.185,0.051736812 56.582,0.013736812 C56.98,-0.024263188 57.381,0.016736812 57.762,0.134736812 C59.368,0.620736812 60.271,2.32373681 59.78,3.92873681 C55.976,16.3607368 44.678,24.7157368 31.667,24.7157368 Z"></path>
                    </g>
                </g>
            </g>
            <path d="M499.95892,293.625 L463.52192,293.625 C461.84192,293.625 460.48092,292.264 460.48092,290.584 C460.48092,288.904 461.84192,287.543 463.52192,287.543 L499.95892,287.543 C501.63892,287.543 502.99992,288.904 502.99992,290.584 C502.99992,292.264 501.63892,293.625 499.95892,293.625 Z" id="Path" fill="#1B263A"></path>
            <path d="M446.12792,293.626 C445.65192,293.626 445.18292,293.515 444.75892,293.301 C444.33392,293.087 443.96492,292.776 443.68192,292.393 C443.39992,292.011 443.20992,291.568 443.12992,291.099 C443.04992,290.63 443.07992,290.149 443.21992,289.694 C447.02492,277.263 458.32292,268.913 471.33192,268.913 C474.30292,268.913 477.23492,269.354 480.04492,270.227 C480.42692,270.345 480.78092,270.537 481.08892,270.793 C481.39592,271.048 481.64992,271.361 481.83592,271.714 C482.02192,272.068 482.13692,272.454 482.17392,272.852 C482.21092,273.25 482.16892,273.651 482.04992,274.032 C481.93192,274.414 481.74092,274.769 481.48492,275.076 C481.22992,275.384 480.91692,275.638 480.56292,275.824 C480.20992,276.01 479.82292,276.125 479.42492,276.161 C479.02792,276.198 478.62592,276.155 478.24492,276.037 C476.01692,275.352 473.69092,275.003 471.33192,275.003 C461.01492,275.003 452.05292,281.625 449.03492,291.486 C448.84492,292.108 448.45892,292.653 447.93592,293.04 C447.41292,293.428 446.77992,293.637 446.12892,293.638" id="Path" fill="#1B263A"></path>
            <path d="M492.42592,278.995 C492.42592,279.801 492.10592,280.575 491.53592,281.145 C490.96492,281.716 490.19192,282.036 489.38492,282.036 C488.57892,282.036 487.80492,281.716 487.23492,281.145 C486.66392,280.575 486.34392,279.801 486.34392,278.995 C486.34392,278.188 486.66392,277.415 487.23492,276.844 C487.80492,276.274 488.57892,275.954 489.38492,275.954 C490.19192,275.954 490.96492,276.274 491.53592,276.844 C492.10592,277.415 492.42592,278.188 492.42592,278.995 L492.42592,278.995 Z M456.32292,317.629 C456.32292,318.436 456.00292,319.209 455.43192,319.78 C454.86192,320.35 454.08792,320.67 453.28192,320.67 C452.47492,320.67 451.70192,320.35 451.13092,319.78 C450.56092,319.209 450.24092,318.436 450.24092,317.629 C450.24092,316.823 450.56092,316.049 451.13092,315.479 C451.70192,314.908 452.47492,314.588 453.28192,314.588 C454.08792,314.588 454.86192,314.908 455.43192,315.479 C456.00292,316.049 456.32292,316.823 456.32292,317.629 Z" id="Shape" fill="#1B263A"></path>
            <path d="M350.07692,311.108 L350.07692,246.271 C350.07692,234.409 340.44492,224.757 328.60792,224.757 L273.31892,224.757 C273.17192,224.757 273.09792,224.684 272.95092,224.684 C242.07092,217.832 234.27792,189.097 232.88092,182.761 L232.88092,153.4367 C232.88092,145.7742 226.70492,139.5115 218.98492,139.5115 L168.47492,139.5115 C160.75492,139.5115 154.50592,145.7742 154.50592,153.4367 L154.50592,204.275 C154.50592,212.011 160.75492,218.2 168.40192,218.2 L197.66392,218.2 C236.18992,225.42 241.99792,255.702 242.65992,260.565 L242.65992,310.961 C242.65992,322.823 252.29092,332.476657 264.12792,332.476657 L328.60792,332.476657 C340.44492,332.622 350.07692,322.97 350.07692,311.108 Z" id="Path" fill="#1B263A" fill-rule="nonzero"></path>
            <path d="M209.29292,177.0608 C208.36092,175.4576 207.04992,174.1724 205.41092,173.2048 C204.18692,172.4919 202.91692,172.0395 201.48592,171.8452 L201.48592,166.7511 C202.91692,166.1436 203.80492,164.7988 203.80492,163.23 C203.80492,161.0916 202.08992,159.3588 199.95392,159.3588 C197.81492,159.3588 196.06992,161.0916 196.06992,163.23 C196.06992,164.7988 196.90692,166.1436 198.33792,166.7511 L198.33792,171.8474 C197.19292,172.0129 196.00592,172.3697 194.92192,172.9181 C192.70792,171.2365 185.44792,165.7197 181.20092,162.4976 C181.30092,162.1345 181.37892,161.7601 181.37892,161.3652 C181.37892,158.9968 179.46092,157.0771 177.09192,157.0771 C174.72192,157.0771 172.80492,158.9968 172.80492,161.3652 C172.80492,163.7334 174.72392,165.6536 177.09392,165.6536 C177.90192,165.6536 178.64892,165.4172 179.29392,165.0286 L180.19092,165.7086 L192.50692,174.5825 C191.85592,175.1803 191.24892,175.8603 190.76392,176.6232 C189.78092,178.1786 189.17992,179.89 189.17992,181.757 L189.17992,182.146 C189.17992,183.457 189.42892,184.694 189.85292,185.856 C190.22692,186.871 190.77292,187.793 191.44892,188.628 L187.36192,192.725 C186.76892,192.505 186.12592,192.459 185.50892,192.595 C184.89092,192.73 184.32592,193.041 183.87992,193.489 C183.57092,193.796 183.32692,194.161 183.15992,194.564 C182.99392,194.966 182.90892,195.397 182.90992,195.833 C182.91092,196.718 183.25592,197.55 183.88192,198.176 C184.18892,198.484 184.55392,198.729 184.95592,198.896 C185.35792,199.063 185.78992,199.148 186.22492,199.147009 C186.66092,199.148 187.09192,199.063 187.49392,198.896 C187.89692,198.729 188.26192,198.484 188.56892,198.176 C188.87792,197.868 189.12192,197.503 189.28892,197.101 C189.45492,196.699 189.53992,196.268 189.53892,195.833 C189.53892,195.49 189.48592,195.156 189.38692,194.838 L193.61192,190.613 C194.19092,191.013 194.81592,191.35 195.48892,191.64 C196.81492,192.214 198.27992,192.563 199.88192,192.563 L200.17492,192.563 C201.94692,192.563 203.61792,192.147 205.18892,191.296 C206.84392,190.396 208.13992,189.166 209.11792,187.596 C210.10192,186.021 210.64392,184.282 210.64392,182.368 L210.64392,182.272 C210.64392,180.389 210.20792,178.6523 209.29292,177.0608 Z M204.12992,185.925 C202.98392,187.199 201.66592,187.984 200.17492,187.984 L199.92992,187.984 C199.07892,187.984 198.24592,187.749 197.43092,187.321 C196.51292,186.85 195.81392,186.178 195.24292,185.327 C194.65192,184.492 194.33192,183.58 194.33192,182.614 L194.33192,182.32 C194.33192,181.37 194.51392,180.468 194.97392,179.617 C195.46492,178.6869 196.12892,177.9634 197.01092,177.3882 C197.87792,176.817 198.80292,176.5368 199.83392,176.5368 L199.92992,176.5368 C200.86492,176.5368 201.74892,176.7211 202.58492,177.1484 C203.43492,177.604 204.12992,178.2264 204.66892,179.0452 C205.19292,179.864 205.50392,180.748 205.60392,181.71 C205.61992,181.91 205.62792,182.115 205.62792,182.311 C205.62792,183.617 205.12892,184.827 204.12992,185.925 Z" id="Shape" fill="#FFFFFF" fill-rule="nonzero"></path>
            <path d="M318.22192,255.162 L278.60392,255.162 C274.94092,255.162 272.01792,258.085 272.01792,261.677 L272.01792,300.873 C272.01792,304.466 274.97592,307.388 278.60392,307.388 L318.18692,307.388 C321.84892,307.388 324.772245,304.466 324.772245,300.873 L324.772245,261.713 C324.80792,258.085 321.84892,255.162 318.22192,255.162 Z M305.43892,264.741 C305.43892,263.79 306.21292,263.016 307.19892,263.016 C308.18492,263.016 308.95992,263.79 308.95992,264.741 L308.95992,288.019 C308.95992,288.97 308.18492,289.745 307.19892,289.745 C306.21292,289.745 305.43892,288.97 305.43892,288.019 L305.43892,264.741 Z M296.66992,263.861 C296.66992,262.91 297.44392,262.135 298.42992,262.135 C299.41692,262.135 300.19092,262.91 300.19092,263.861 L300.19092,289.111 C300.19092,290.062 299.41692,290.837 298.42992,290.837 C297.44392,290.837 296.66992,290.062 296.66992,289.111 L296.66992,263.861 Z M287.86492,264.741 C287.86492,263.79 288.63992,263.016 289.62592,263.016 C290.61192,263.016 291.38692,263.79 291.38692,264.741 L291.38692,288.019 C291.38692,288.97 290.61192,289.745 289.62592,289.745 C288.63992,289.745 287.86492,288.97 287.86492,288.019 L287.86492,264.741 Z M279.06092,268.228 C279.06092,267.277 279.83592,266.502 280.82192,266.502 C281.80792,266.502 282.58292,267.277 282.58292,268.228 L282.58292,283.899 C282.58292,284.85 281.80792,285.625 280.82192,285.625 C279.83592,285.625 279.06092,284.85 279.06092,283.899 L279.06092,268.228 Z M317.16592,294.781 C316.88392,295.027 310.36892,300.416 298.42992,300.416 C286.49192,300.416 279.97692,294.992 279.69492,294.781 C278.95592,294.147 278.88492,293.055 279.51892,292.316 C280.15292,291.576 281.24492,291.506 281.98392,292.14 C282.08992,292.21 287.90092,296.964 298.42992,296.964 C309.10092,296.964 314.84092,292.21 314.87692,292.175 C315.61592,291.541 316.70792,291.647 317.34192,292.351 C317.97592,293.055 317.90492,294.182 317.16592,294.781 Z M317.76392,283.899 C317.76392,284.85 316.98992,285.625 316.00392,285.625 C315.01692,285.625 314.24292,284.85 314.24292,283.899 L314.24292,268.228 C314.24292,267.277 315.01692,266.502 316.00392,266.502 C316.98992,266.502 317.76392,267.277 317.76392,268.228 L317.76392,283.899 Z" id="Shape" fill="#FFFFFF" fill-rule="nonzero"></path>
            <path d="M85.15962,338.863 L85.17212,338.807 L85.17212,338.762 C85.17382,338.757 85.17682,338.747 85.18192,338.732 L85.18452,338.724 C85.20422,338.665 85.24582,338.542 85.24582,338.382 L85.24582,283.093 C85.24582,271.546 94.66152,262.149 106.23492,262.149 L171.07192,262.149 C182.64592,262.149 192.05692,271.546 191.914551,283.086 L191.914551,283.093 L191.914551,347.572 C191.914551,359.118 182.49792,368.516 170.92392,368.516 L120.52792,368.516 L120.49292,368.516 L120.45792,368.521 C115.51192,369.194 84.93072,375.078 77.64732,413.94 L77.63832,413.988 L77.63832,414.037 L77.63832,443.299 C77.63832,450.656 71.68362,456.67 64.23822,456.67 L13.40012,456.67 C6.02834,456.67 0,450.656 0,443.225 L0,392.715 C0,385.288 6.02472,379.344 13.40012,379.344 L42.72412,379.344 L42.78132,379.344 L42.83712,379.332 C49.19762,377.93 78.23452,370.072 85.15962,338.863 Z" id="Path" stroke="#FFFFFF" stroke-width="1.0501"></path>
            <path d="M714.54792,337.87 L714.60392,337.883 L714.64892,337.883 C714.65492,337.884 714.66392,337.887 714.67892,337.892 L714.68692,337.895 C714.74592,337.915 714.86992,337.956 715.02992,337.956 L770.31892,337.956 C781.86492,337.956 791.26192,347.372 791.26192,358.945 L791.26192,423.782 C791.26192,435.357 781.86492,444.768 770.32492,444.625631 L770.31892,444.625631 L705.83892,444.625631 C694.29292,444.625631 684.89592,435.208 684.89592,423.635 L684.89592,373.239 L684.89592,373.203 L684.89092,373.168 C684.21792,368.222 678.33292,337.641 639.47092,330.358 L639.42292,330.349 L639.37492,330.349 L610.11192,330.349 C602.75492,330.349 596.74192,324.394 596.74192,316.949 L596.74192,266.111 C596.74192,258.739 602.75492,252.711 610.18592,252.711 L660.69592,252.711 C668.12292,252.711 674.06692,258.735 674.06692,266.111 L674.06692,295.435 L674.06692,295.492 L674.07892,295.548 C675.48192,301.908 683.33892,330.945 714.54792,337.87 Z" id="Path" stroke="#FFFFFF" stroke-width="1.0501"></path>
            <path d="M508.219659,156.4679 L508.219659,156.4729 C508.30392,165.4336 501.04992,172.6877 492.17492,172.6877 L431.36392,172.6877 C422.39892,172.6877 415.14492,165.4299 415.14492,156.556 L415.14492,95.9217 C415.14492,87.04606 422.40092,79.789982 431.27592,79.789982 L492.08692,79.789982 C501.04892,79.789982 508.219659,87.04425 508.219659,95.9217 L508.219659,156.4679 Z" id="Path" stroke="#1B263A" stroke-width="1.0501"></path>
        </g>
    </g>
</svg>