<svg width="66" height="31" viewBox="0 0 66 31" fill="none" xmlns="http://www.w3.org/2000/svg">
<g clip-path="url(#clip0_554_6871)">
<path d="M39.3056 13.0633H37.6729C37.6394 12.9296 37.6144 12.7747 37.5977 12.5987C37.5645 12.2563 37.5645 11.9115 37.5977 11.569C37.6144 11.3935 37.6394 11.2386 37.6729 11.1042H41.7419V23.9889C41.5382 24.0243 41.3328 24.0493 41.1266 24.0638C40.9217 24.0795 40.7163 24.0878 40.5109 24.0887C40.314 24.0875 40.1173 24.0792 39.9211 24.0638C39.7149 24.0492 39.5096 24.0241 39.306 23.9885V13.0627V13.063L39.3056 13.0633ZM53.4707 16.3035C53.4707 15.8345 53.4079 15.3868 53.2826 14.9594C53.1569 14.5327 52.9721 14.1603 52.73 13.842C52.4868 13.5241 52.1772 13.2686 51.8004 13.0761C51.4238 12.8835 50.9758 12.7871 50.4567 12.7871C49.4354 12.7871 48.6525 13.0973 48.1085 13.7166C47.5643 14.336 47.2338 15.1982 47.1164 16.3035H53.4709H53.4707ZM47.0914 18.162C47.1249 19.5684 47.4891 20.5984 48.1839 21.251C48.8785 21.904 49.9043 22.231 51.2606 22.231C52.449 22.231 53.5793 22.0213 54.651 21.6028C54.7846 21.8539 54.8933 22.1596 54.9772 22.5196C55.0594 22.8701 55.1098 23.2273 55.1278 23.5868C54.5756 23.8219 53.9682 23.9969 53.3072 24.1144C52.6454 24.2313 51.913 24.2902 51.1098 24.2902C49.9373 24.2902 48.9325 24.1265 48.0958 23.8003C47.2584 23.4734 46.5677 23.0129 46.0235 22.4188C45.4795 21.8246 45.0816 21.1212 44.8305 20.309C44.5795 19.4972 44.4536 18.6054 44.4536 17.6343C44.4536 16.6799 44.5749 15.7882 44.8178 14.9592C45.0601 14.1308 45.4335 13.4107 45.9352 12.7996C46.4378 12.1882 47.0697 11.7028 47.8317 11.3428C48.5932 10.9828 49.4931 10.8025 50.5317 10.8025C51.419 10.8025 52.1975 10.9534 52.8675 11.2548C53.5369 11.5561 54.098 11.9706 54.5502 12.498C55.0022 13.0255 55.3454 13.6534 55.5799 14.3814C55.8141 15.1101 55.9318 15.9011 55.9318 16.7552C55.9318 16.9897 55.9229 17.2365 55.9062 17.4959C55.8925 17.718 55.8758 17.9398 55.8562 18.1614H47.0908L47.0911 18.1618L47.0914 18.162ZM58.6708 11.1042C58.8456 11.0725 59.0216 11.0474 59.1983 11.029C59.3653 11.0127 59.5415 11.0041 59.7257 11.0041C59.9099 11.0041 60.0938 11.0127 60.2783 11.029C60.4623 11.0461 60.6299 11.0712 60.7807 11.1042C60.8304 11.3555 60.8807 11.6865 60.9308 12.0963C60.981 12.5066 61.0065 12.8538 61.0065 13.1386C61.358 12.5695 61.8227 12.0752 62.4001 11.6565C62.9779 11.2382 63.7187 11.0286 64.6227 11.0286C64.7566 11.0286 64.8947 11.0331 65.0371 11.0415C65.159 11.048 65.2808 11.0603 65.4013 11.0788C65.4346 11.2297 65.4603 11.389 65.4768 11.5562C65.4933 11.7235 65.5017 11.8994 65.5017 12.0835C65.5017 12.2846 65.4892 12.4941 65.4642 12.7113C65.44 12.9212 65.4108 13.1305 65.3764 13.339C65.2407 13.3056 65.1015 13.2888 64.9618 13.2889H64.6225C64.1705 13.2889 63.7393 13.3517 63.3291 13.4771C62.9185 13.6029 62.5504 13.8248 62.2239 14.1426C61.8977 14.461 61.6379 14.8964 61.4458 15.449C61.2528 16.0016 61.1568 16.7132 61.1568 17.5837V23.9885C60.9531 24.0239 60.7476 24.0492 60.5413 24.0637C60.3156 24.0805 60.1103 24.0886 59.9262 24.0886C59.7209 24.0878 59.5156 24.0795 59.3108 24.0637C59.0962 24.0481 58.8825 24.0231 58.6702 23.9886V11.1044L58.6708 11.1042ZM41.0437 4.2244C41.0437 4.52502 40.9894 4.82317 40.8834 5.10449C40.602 5.21046 40.3038 5.26478 40.0031 5.26484H39.9994C39.6987 5.26488 39.4005 5.2106 39.1191 5.10462C39.0129 4.82325 38.9586 4.525 38.9586 4.22427V4.22034C38.9586 3.91052 39.0155 3.61379 39.1184 3.33999C39.3999 3.23386 39.6982 3.17958 39.999 3.17977H40.0024C40.3124 3.17977 40.609 3.23663 40.8828 3.33999C40.9889 3.62137 41.0432 3.91963 41.043 4.22034V4.22427H41.0434L41.0437 4.2244ZM44.1126 3.52746H41.679L43.3997 1.80672C43.1291 1.42674 42.7969 1.09465 42.4169 0.824183L40.696 2.54493V0.111258C40.4672 0.0727667 40.2355 0.0533549 40.0035 0.0532227H39.999C39.763 0.0532227 39.5317 0.0733973 39.3064 0.111258V2.54493L37.5852 0.824052C37.3956 0.95897 37.2177 1.10954 37.0533 1.27418L37.0525 1.27497C36.8881 1.43949 36.7377 1.6174 36.6027 1.80685L38.324 3.52746H35.89C35.89 3.52746 35.8321 3.98466 35.8321 4.221V4.22388C35.8321 4.46021 35.8521 4.69183 35.8901 4.91728H38.3241L36.6026 6.63776C36.8734 7.0177 37.2056 7.34984 37.5855 7.62056L39.3065 5.89995V8.33375C39.5316 8.37148 39.7624 8.39139 39.9983 8.39165H40.0041C40.2359 8.39144 40.4673 8.37207 40.6959 8.33375V5.89995L42.417 7.62095C42.6066 7.48591 42.7846 7.33535 42.9493 7.17082H42.9496C43.114 7.00613 43.2644 6.82809 43.3993 6.63855L41.6786 4.91741H44.1127C44.1504 4.69209 44.1703 4.46126 44.1703 4.22545V4.21942C44.1703 3.98755 44.151 3.75632 44.1127 3.52772V3.52746H44.1126ZM0 23.6374L6.78131 13.0884H0.803581C0.753537 12.7871 0.728515 12.4525 0.728515 12.084C0.728515 11.7325 0.75393 11.4057 0.804105 11.1041H10.4735L10.5993 11.4312L3.76782 22.0048H10.1721C10.2223 22.3398 10.2476 22.6828 10.2476 23.0343C10.2476 23.3696 10.2224 23.6876 10.1722 23.9889H0.125764L0 23.637V23.6374ZM19.565 17.9357C19.3138 17.9026 18.9956 17.8694 18.6106 17.8355C18.2255 17.8023 17.899 17.7853 17.6315 17.7853C16.5931 17.7853 15.802 17.9779 15.2582 18.363C14.7136 18.7485 14.4421 19.3342 14.4421 20.1211C14.4421 20.6234 14.5338 21.0169 14.7181 21.3015C14.902 21.5865 15.1324 21.8037 15.4087 21.9545C15.6852 22.1052 15.9904 22.1974 16.3251 22.231C16.6598 22.2644 16.9782 22.281 17.2795 22.281C17.6646 22.281 18.0622 22.26 18.4725 22.2181C18.8826 22.1766 19.2468 22.1136 19.5651 22.0299V17.9357H19.565ZM19.565 15.4998C19.565 14.5115 19.3138 13.8251 18.8117 13.4399C18.3092 13.0548 17.5809 12.8622 16.6266 12.8622C16.04 12.8622 15.4921 12.9086 14.9815 13.0005C14.4763 13.0912 13.9771 13.2127 13.4868 13.3643C13.1684 12.8117 13.0099 12.1508 13.0099 11.3801C13.5785 11.1962 14.2062 11.0539 14.8931 10.9534C15.5796 10.8528 16.2409 10.8025 16.8774 10.8025C18.5517 10.8025 19.8241 11.1837 20.6949 11.9455C21.5653 12.708 22.001 13.9259 22.001 15.6V23.6623C21.4146 23.7962 20.7033 23.9343 19.8662 24.0767C19.0197 24.2196 18.1628 24.291 17.3044 24.2902C16.484 24.2902 15.7428 24.2151 15.0817 24.0644C14.4202 23.9133 13.8592 23.6711 13.3989 23.3357C12.938 23.0011 12.5827 22.5741 12.3312 22.0551C12.0802 21.536 11.9545 20.9082 11.9545 20.1713C11.9545 19.4516 12.101 18.8193 12.3941 18.2749C12.682 17.737 13.0904 17.2728 13.5872 16.9187C14.0895 16.5592 14.6671 16.291 15.3202 16.1154C15.9734 15.9395 16.6596 15.8514 17.3796 15.8514C17.9154 15.8514 18.3549 15.8643 18.6983 15.8894C19.0412 15.9143 19.3302 15.9437 19.5647 15.9772V15.4999L19.565 15.4998ZM27.1999 21.8787C27.517 21.9958 27.8453 22.08 28.1796 22.1299C28.5144 22.1804 28.9493 22.2054 29.4857 22.2054C30.0883 22.2054 30.6406 22.1094 31.1429 21.9168C31.6454 21.7246 32.0764 21.4271 32.4364 21.0251C32.7964 20.6234 33.081 20.1172 33.2903 19.5054C33.4995 18.8947 33.6045 18.1707 33.6045 17.3331C33.6045 15.9937 33.3571 14.9305 32.8635 14.1434C32.3692 13.3566 31.5613 12.963 30.4399 12.963C30.0214 12.963 29.6192 13.0382 29.2347 13.1892C28.849 13.3398 28.506 13.5659 28.2046 13.8672C27.9033 14.1685 27.6605 14.5498 27.4765 15.0101C27.2917 15.471 27.2 16.0189 27.2 16.6553V21.8791V21.8788L27.1999 21.8787ZM24.7134 11.104C24.8838 11.0704 25.0554 11.0454 25.2283 11.0288C25.4079 11.0122 25.5881 11.0038 25.7684 11.0039C25.9353 11.0039 26.111 11.0125 26.2956 11.0288C26.4795 11.0458 26.6553 11.0711 26.823 11.1041C26.8395 11.1382 26.8607 11.2423 26.8859 11.4182C26.9108 11.5942 26.9359 11.7824 26.9612 11.9831C26.9864 12.1842 27.0114 12.3772 27.0365 12.5609C27.0617 12.7453 27.0743 12.8626 27.0743 12.9127C27.2413 12.6451 27.4424 12.3853 27.6769 12.1342C27.9114 11.8829 28.1921 11.6569 28.5186 11.4562C28.8451 11.2551 29.2132 11.0962 29.6236 10.9789C30.0337 10.8617 30.49 10.8027 30.9924 10.8027C31.7456 10.8027 32.4448 10.9284 33.0897 11.1797C33.734 11.4312 34.2862 11.8199 34.7469 12.3475C35.2072 12.875 35.567 13.5448 35.8268 14.3567C36.0862 15.1694 36.2159 16.1279 36.2159 17.2327C36.2159 19.4428 35.6172 21.172 34.4198 22.4192C33.2224 23.6668 31.5276 24.2902 29.3342 24.2902C28.9657 24.2902 28.5892 24.2651 28.2041 24.2149C27.8186 24.1644 27.4841 24.0974 27.1993 24.0141V29.9163C26.9871 29.9508 26.7735 29.976 26.5592 29.9916C26.3329 30.008 26.1276 30.0165 25.9434 30.0165C25.7382 30.0157 25.533 30.0074 25.3283 29.9916C25.122 29.977 24.9167 29.9519 24.7131 29.9163V11.1041L24.7134 11.104Z" fill="#1B263A"/>
</g>
<defs>
<clipPath id="clip0_554_6871">
<rect width="65.5022" height="30" fill="white" transform="translate(0 0.0166016)"/>
</clipPath>
</defs>
</svg>
