<svg width="116" height="38" viewBox="0 0 116 38" fill="none" xmlns="http://www.w3.org/2000/svg">
<g clip-path="url(#clip0_554_6867)">
<path d="M2.04942 16.0265V28.7065C2.04942 29.4965 2.69442 30.1365 3.47742 30.1365H6.51242C6.77342 30.1365 6.98542 30.3475 6.98542 30.6135V36.2315C6.98542 36.3645 7.07742 36.4015 7.17042 36.3275L14.7404 30.4255C14.9444 30.2655 15.3244 30.1365 15.5804 30.1365H30.6204C31.4094 30.1365 32.0494 29.4965 32.0494 28.7095V12.6235C32.0424 12.4777 32.0029 12.3355 31.9337 12.207C31.8644 12.0786 31.7673 11.9674 31.6494 11.8815L16.8764 2.28545C16.7559 2.21429 16.6184 2.17676 16.4784 2.17676C16.3384 2.17676 16.201 2.21429 16.0804 2.28545L1.87742 11.6195C1.43742 11.9085 1.47042 12.3295 1.93742 12.5565L16.5874 19.6365C17.0594 19.8665 17.7774 19.7935 18.1994 19.4695L27.4974 12.3165" stroke="#1B263A" stroke-width="2"/>
<path fill-rule="evenodd" clip-rule="evenodd" d="M59.1578 18.1184C59.1578 22.4544 56.2778 24.8934 53.2528 24.8934C51.1638 24.8934 49.8428 23.8094 48.9558 22.6034V28.5644H46.0508V11.6144H48.9558V13.7824C49.8918 12.4274 51.2118 11.3434 53.2528 11.3434C56.2528 11.3434 59.1578 13.7834 59.1578 18.1184ZM56.2048 18.1184C56.2048 15.5564 54.5488 13.9304 52.5798 13.9304C50.6118 13.9304 48.8838 15.5804 48.8838 18.1184C48.8838 20.6564 50.6118 22.3074 52.5798 22.3074C54.5728 22.3074 56.2048 20.7054 56.2048 18.1184ZM64.4748 19.6704C64.4748 16.2214 66.2508 14.5224 68.7948 14.5224H68.9628V11.3684C66.7308 11.2704 65.2668 12.6004 64.4738 14.5464V11.6144H61.5708V24.6224H64.4748V19.6704ZM72.6948 19.1784C73.0318 21.2964 74.4718 22.4794 76.3448 22.4794C77.7608 22.4794 78.7688 21.9374 79.7768 20.9274L81.4818 22.4794C80.2818 23.9574 78.6248 24.9184 76.2958 24.9184C72.6238 24.9184 69.7908 22.1834 69.7908 18.1434C69.7908 14.3984 72.3598 11.3434 75.9838 11.3434C80.0168 11.3434 82.0578 14.5954 82.0578 18.3654C82.0578 18.6354 82.0338 18.8824 82.0098 19.1784H72.6958H72.6948ZM72.6718 17.2074H79.1768C78.9848 15.2854 77.8808 13.7824 75.9598 13.7824C74.1838 13.7824 72.9358 15.1874 72.6718 17.2074ZM90.8068 14.0534L83.4848 22.5784V24.6224H94.5038V22.1834H87.1808L94.5028 13.6594V11.6144H83.7488V14.0544H90.8068V14.0534ZM100.012 24.6234V6.63843H97.1078V24.6224H100.012V24.6234ZM115.051 11.6134H112.026L108.738 21.2714L105.137 11.6134H102.04L107.321 24.6214C106.841 25.7554 106.337 26.1244 105.521 26.1244C104.921 26.1244 104.345 25.9274 103.816 25.6314L102.832 27.8494C103.72 28.3414 104.609 28.6374 105.832 28.6374C107.873 28.6374 109.002 27.6524 110.01 24.9914L115.051 11.6144V11.6134Z" fill="#1B263A"/>
</g>
<defs>
<clipPath id="clip0_554_6867">
<rect width="115" height="37" fill="white" transform="translate(0.0507812 0.638428)"/>
</clipPath>
</defs>
</svg>
