<svg width="130" height="29" viewBox="0 0 130 29" fill="none" xmlns="http://www.w3.org/2000/svg">
<g opacity="0.9" clip-path="url(#clip0_554_6856)">
<path fill-rule="evenodd" clip-rule="evenodd" d="M48.0784 13.5089L45.7289 12.9992C44.5533 12.7443 43.9061 12.0192 43.9061 10.9566C43.9061 9.60616 45.105 8.58739 46.6953 8.58739C48.8958 8.58739 49.5455 10.2064 49.6927 10.7032C49.7394 10.8683 49.8543 11.0083 50.0086 11.0855C50.1594 11.1627 50.3281 11.1742 50.4897 11.1178L51.7281 10.6809C51.8768 10.6281 51.9997 10.5205 52.0718 10.3802C52.1438 10.2398 52.1596 10.0772 52.1158 9.92564C51.7963 8.80205 50.6225 6.18872 46.6414 6.18872C43.6943 6.18872 41.2066 8.44308 41.2066 11.1121C41.2066 13.4059 42.7118 15.1003 45.2343 15.6495L47.4743 16.1377C48.8226 16.4213 49.6281 17.2433 49.6281 18.3346C49.6281 19.7274 48.483 20.5926 46.6379 20.5926C44.4697 20.5926 43.425 19.171 43.1702 17.8392C43.154 17.7534 43.1199 17.6719 43.0699 17.6002C43.0199 17.5286 42.9553 17.4683 42.8803 17.4235C42.8053 17.3787 42.7216 17.3504 42.6348 17.3404C42.548 17.3303 42.4601 17.3389 42.3768 17.3654L41.0163 17.7997C40.8733 17.8433 40.7514 17.9381 40.6739 18.0659C40.5964 18.1937 40.5688 18.3456 40.5963 18.4926C41.0199 20.7003 42.8338 23.0551 46.663 23.0551C49.8988 23.0551 52.3391 20.9479 52.3391 18.1551C52.3391 15.7967 50.7826 14.1023 48.0673 13.5028L48.0784 13.5089ZM61.9783 15.6567C61.9854 15.7033 61.9639 15.7392 61.9495 15.7536C61.9377 15.7683 61.9226 15.7801 61.9055 15.7882C61.8884 15.7963 61.8697 15.8004 61.8508 15.8003H56.8611C56.8412 15.8003 56.8216 15.7957 56.8038 15.787C56.7859 15.7783 56.7703 15.7657 56.7581 15.75C56.7467 15.7369 56.7385 15.7213 56.7341 15.7045C56.7298 15.6877 56.7294 15.6701 56.7329 15.6531C56.9609 14.6128 57.8529 13.5638 59.3319 13.5638C60.7847 13.5638 61.7729 14.3428 61.9758 15.6506L61.9783 15.6567ZM59.3125 11.2341C56.6848 11.2341 53.9674 13.431 53.9674 17.1105C53.9674 18.8838 54.5489 20.3987 55.651 21.4864C56.6719 22.4951 58.0669 23.0515 59.5782 23.0515C61.8289 23.0515 63.6525 21.8755 64.4566 19.9069C64.5212 19.7454 64.5177 19.5659 64.448 19.4079C64.4137 19.3313 64.3639 19.2626 64.3018 19.206C64.2398 19.1494 64.1667 19.1062 64.0872 19.0791L62.9888 18.6986C62.8418 18.6481 62.6811 18.6549 62.5389 18.7177C62.3967 18.7804 62.2834 18.8945 62.2216 19.0371C61.7478 20.1535 60.8575 20.7171 59.576 20.7171C58.0252 20.7171 56.8442 19.6725 56.6396 18.1171C56.637 18.0997 56.6384 18.0819 56.6437 18.0651C56.649 18.0483 56.658 18.0329 56.6701 18.0202C56.6845 18.0022 56.7168 17.9735 56.767 17.9735H64.0485C64.3751 17.9735 64.648 17.7186 64.6659 17.3934C64.6731 17.2893 64.6767 17.1744 64.6767 17.061C64.6767 13.4641 62.6198 11.2302 59.31 11.2302L59.3125 11.2341ZM71.7115 19.9644C69.9633 19.9644 68.8756 18.751 68.8756 16.7982C68.8756 14.8741 69.9884 13.6306 71.7115 13.6306C73.3807 13.6306 74.5022 14.9014 74.5022 16.7968C74.5022 18.69 73.38 19.9629 71.7111 19.9629L71.7115 19.9644ZM76.371 11.5644H75.0535C74.7125 11.5644 74.4343 11.8418 74.4343 12.1997C74.4342 12.2251 74.4267 12.2498 74.4126 12.2708C74.3986 12.2919 74.3787 12.3084 74.3553 12.3182C74.3302 12.329 74.28 12.3433 74.2347 12.3003C73.5563 11.68 72.6014 11.3651 71.3988 11.3651C68.4183 11.3651 66.2547 13.6518 66.2547 16.8C66.2547 19.9346 68.4183 22.2097 71.3988 22.2097C72.5009 22.2097 73.4988 21.8479 74.2096 21.191C74.2563 21.1479 74.3065 21.1587 74.3316 21.1694C74.3496 21.1766 74.4106 21.2089 74.4106 21.2879V21.7402C74.4106 23.9299 73.4522 24.9512 71.3988 24.9512C70.0958 24.9512 69.0727 24.1435 68.7963 22.895C68.7604 22.7335 68.6634 22.5971 68.5234 22.5098C68.3834 22.4226 68.2147 22.395 68.0532 22.4309L66.7594 22.7288C66.6006 22.7666 66.4629 22.8653 66.376 23.0036C66.2891 23.1419 66.26 23.3088 66.2949 23.4683C66.758 25.737 68.8099 27.2627 71.396 27.2627C73.3237 27.2627 74.7919 26.6757 75.7611 25.5181C76.5616 24.561 76.9852 23.2325 76.9852 21.676V12.1929C76.9852 11.8519 76.7088 11.5755 76.3678 11.5755L76.371 11.5644ZM92.033 11.2542C90.5756 11.2542 89.3899 11.8042 88.6034 12.8481C88.5901 12.8674 88.572 12.8829 88.551 12.8933C88.5299 12.9036 88.5066 12.9083 88.4831 12.9069C88.4658 12.9071 88.4487 12.9028 88.4336 12.8943C88.4184 12.8857 88.4058 12.8734 88.397 12.8585C87.7375 11.839 86.5992 11.2538 85.2739 11.2538C84.2196 11.2538 83.2062 11.6243 82.4926 12.2715C82.4754 12.2895 82.4529 12.3016 82.4284 12.3062C82.4039 12.3107 82.3787 12.3073 82.3562 12.2967C82.3341 12.2876 82.3154 12.272 82.3026 12.252C82.2898 12.232 82.2834 12.2084 82.2844 12.1847C82.2844 11.8436 82.0065 11.5672 81.6655 11.5672H80.4141C80.0731 11.5672 79.7967 11.8436 79.7967 12.1847V22.1031C79.7967 22.4442 80.0745 22.7213 80.4156 22.7213H81.733C82.074 22.7213 82.3504 22.4427 82.3504 22.1017V16.0555C82.3504 14.5862 83.2479 13.5987 84.5868 13.5987C86.3386 13.5987 86.6007 14.9725 86.6007 15.7909V22.1125C86.6007 22.4535 86.8771 22.7299 87.2181 22.7299H88.5582C88.8992 22.7299 89.1756 22.4521 89.1756 22.111V16.0339C89.1756 14.5995 90.0874 13.5979 91.3905 13.5979C93.1433 13.5979 93.4043 14.9728 93.4043 15.7913V22.1128C93.4043 22.4538 93.6807 22.7303 94.0218 22.7303H95.3392C95.6802 22.7303 95.9566 22.4524 95.9566 22.1114V15.5673C95.9566 12.595 93.9859 11.2657 92.033 11.2657V11.2542ZM100.939 15.8089C100.919 15.8088 100.9 15.8043 100.882 15.7958C100.864 15.7872 100.849 15.7747 100.836 15.7593C100.825 15.7462 100.817 15.7309 100.813 15.7143C100.809 15.6978 100.809 15.6805 100.812 15.6638C101.041 14.6228 101.932 13.5746 103.413 13.5746C104.865 13.5746 105.854 14.3536 106.056 15.6603C106.064 15.7069 106.041 15.7428 106.028 15.7572C106.015 15.7705 106 15.7812 105.983 15.7886C105.966 15.796 105.947 15.8 105.929 15.8003H100.939V15.8089ZM103.391 11.2427C100.763 11.2427 98.0459 13.4411 98.0459 17.1191C98.0459 18.8946 98.6274 20.4084 99.728 21.4972C100.747 22.5059 102.14 23.0587 103.655 23.0587C105.902 23.0587 107.726 21.8813 108.534 19.9105C108.598 19.749 108.595 19.5695 108.523 19.4115C108.451 19.2536 108.322 19.1387 108.16 19.0813L107.062 18.7015C106.757 18.5963 106.419 18.7446 106.294 19.0396C105.821 20.1532 104.93 20.7196 103.649 20.7196C102.098 20.7196 100.917 19.6729 100.712 18.1171C100.71 18.0995 100.711 18.0815 100.716 18.0644C100.721 18.0472 100.729 18.0314 100.741 18.018C100.755 18.0001 100.788 17.9731 100.838 17.9731H108.122C108.448 17.9731 108.72 17.7183 108.739 17.3927C108.745 17.2886 108.75 17.1737 108.75 17.0588C108.75 13.4619 106.693 11.2255 103.383 11.2255L103.391 11.2427ZM116.59 11.2653C115.476 11.2653 114.499 11.6451 113.765 12.3638C113.749 12.3807 113.727 12.3922 113.704 12.3967C113.68 12.4012 113.656 12.3985 113.634 12.3889C113.611 12.3791 113.592 12.3628 113.579 12.3421C113.565 12.3214 113.558 12.2973 113.559 12.2726V12.1936C113.559 11.8526 113.281 11.5762 112.94 11.5762H111.647C111.306 11.5762 111.029 11.8526 111.029 12.1936V22.1103C111.029 22.4513 111.305 22.7288 111.646 22.7288H112.985C113.326 22.7288 113.604 22.4506 113.604 22.1096V16.3204C113.604 15.0252 114.191 13.641 115.841 13.641C117.323 13.641 118.076 14.4606 118.076 16.0767V22.1074C118.076 22.4485 118.352 22.7249 118.693 22.7249H120.032C120.373 22.7249 120.65 22.4449 120.65 22.1038V15.7216C120.65 12.9719 119.093 11.2632 116.59 11.2632L116.59 11.2653ZM126.889 13.9512H128.451C128.792 13.9512 129.068 13.673 129.068 13.3323V12.1929C129.068 11.8519 128.792 11.5755 128.451 11.5755H126.889C126.873 11.5755 126.856 11.5722 126.841 11.5659C126.826 11.5596 126.812 11.5504 126.8 11.5387C126.789 11.527 126.779 11.5132 126.773 11.4979C126.767 11.4827 126.763 11.4663 126.763 11.4498V8.82431C126.763 8.48328 126.485 8.20616 126.144 8.20616H124.981C124.64 8.20616 124.364 8.48328 124.364 8.82431V10.1812C124.364 10.8166 124.12 11.5751 122.968 11.5751H122.77C122.428 11.5751 122.152 11.8515 122.152 12.1926V13.3305C122.152 13.6715 122.43 13.9479 122.77 13.9479H124.065C124.135 13.9479 124.191 14.0018 124.191 14.0736V19.5551C124.191 21.5797 125.424 22.8362 127.407 22.8362C127.96 22.8362 128.39 22.7572 128.597 22.7105C128.877 22.6459 129.074 22.3982 129.074 22.1074V21.0524C129.074 20.9656 129.056 20.8798 129.02 20.8006C128.985 20.7213 128.933 20.6504 128.869 20.5925C128.804 20.5345 128.728 20.4907 128.645 20.464C128.563 20.4373 128.476 20.4283 128.389 20.4375C128.249 20.4518 128.114 20.4601 128.007 20.4601C127.106 20.4601 126.769 20.1298 126.769 19.2432V14.074C126.769 14.005 126.826 13.949 126.894 13.949" fill="#1B263A"/>
<mask id="mask0_554_6856" style="mask-type:alpha" maskUnits="userSpaceOnUse" x="0" y="16" width="29" height="12">
<path d="M28.2879 27.9951H0V16.3481H28.2879V27.9951Z" fill="white"/>
</mask>
<g mask="url(#mask0_554_6856)">
<path fill-rule="evenodd" clip-rule="evenodd" d="M18.6401 19.2207H1.4359C0.642564 19.2207 0 18.5781 0 17.7848C0 16.9914 0.642564 16.3489 1.4359 16.3489H18.6401C19.4334 16.3489 20.076 16.9914 20.076 17.7848C20.076 18.5781 19.4334 19.2207 18.6401 19.2207Z" fill="#1B263A"/>
<path fill-rule="evenodd" clip-rule="evenodd" d="M14.9509 28.0166C13.5495 28.0166 12.1653 27.8084 10.8371 27.3966C10.4733 27.2839 10.1693 27.0313 9.99177 26.6945C9.81425 26.3576 9.7778 25.964 9.89044 25.6003C10.1252 24.8393 10.9315 24.4157 11.6871 24.6526C12.7396 24.9793 13.8374 25.1444 14.9509 25.1444C19.8233 25.1444 24.0538 22.0177 25.4785 17.3618C25.5337 17.1816 25.6238 17.0139 25.7438 16.8685C25.8638 16.7231 26.0113 16.6028 26.1778 16.5144C26.3444 16.4261 26.5267 16.3714 26.7144 16.3536C26.9021 16.3358 27.0914 16.3551 27.2716 16.4106C28.0298 16.6403 28.4562 17.4444 28.2243 18.2018C26.428 24.0714 21.0937 28.0166 14.9509 28.0166Z" fill="#1B263A"/>
</g>
<path fill-rule="evenodd" clip-rule="evenodd" d="M28.4656 11.9255H11.2621C10.4687 11.9255 9.82617 11.2829 9.82617 10.4896C9.82617 9.69628 10.4687 9.05371 11.2621 9.05371H28.4656C29.2589 9.05371 29.9015 9.69628 29.9015 10.4896C29.9015 11.2829 29.2589 11.9255 28.4656 11.9255Z" fill="#1B263A"/>
<path fill-rule="evenodd" clip-rule="evenodd" d="M3.05133 11.9259C2.82675 11.9259 2.6053 11.8733 2.40476 11.7722C2.20422 11.6711 2.03019 11.5244 1.89665 11.3438C1.76312 11.1633 1.67379 10.9539 1.63586 10.7325C1.59793 10.5112 1.61245 10.284 1.67825 10.0693C3.47492 4.20007 8.80928 0.257812 14.9513 0.257812C16.3538 0.257812 17.738 0.466018 19.0652 0.87812C19.2453 0.933926 19.4127 1.02467 19.5577 1.14516C19.7028 1.26566 19.8227 1.41355 19.9106 1.58039C19.9985 1.74723 20.0527 1.92975 20.0701 2.11752C20.0874 2.3053 20.0676 2.49466 20.0118 2.67479C19.9562 2.85502 19.8655 3.02251 19.745 3.16766C19.6246 3.31281 19.4767 3.43277 19.3098 3.52066C19.1429 3.60856 18.9603 3.66267 18.7724 3.6799C18.5846 3.69712 18.3952 3.67712 18.2151 3.62104C17.1633 3.29797 16.0649 3.13284 14.9513 3.13284C10.08 3.13284 5.84882 6.2595 4.42405 10.9154C4.334 11.2092 4.15212 11.4664 3.90512 11.6493C3.65812 11.8321 3.359 11.931 3.05169 11.9313" fill="#1B263A"/>
<path fill-rule="evenodd" clip-rule="evenodd" d="M24.9099 5.01793C24.9099 5.39875 24.7586 5.76398 24.4893 6.03326C24.22 6.30254 23.8548 6.45383 23.474 6.45383C23.0932 6.45383 22.7279 6.30254 22.4586 6.03326C22.1894 5.76398 22.0381 5.39875 22.0381 5.01793C22.0381 4.63711 22.1894 4.27188 22.4586 4.0026C22.7279 3.73331 23.0932 3.58203 23.474 3.58203C23.8548 3.58203 24.22 3.73331 24.4893 4.0026C24.7586 4.27188 24.9099 4.63711 24.9099 5.01793ZM7.86398 23.2589C7.86398 23.6397 7.7127 24.0049 7.44342 24.2742C7.17413 24.5435 6.80891 24.6948 6.42808 24.6948C6.04726 24.6948 5.68204 24.5435 5.41275 24.2742C5.14347 24.0049 4.99219 23.6397 4.99219 23.2589C4.99219 22.878 5.14347 22.5128 5.41275 22.2435C5.68204 21.9742 6.04726 21.823 6.42808 21.823C6.80891 21.823 7.17413 21.9742 7.44342 22.2435C7.7127 22.5128 7.86398 22.878 7.86398 23.2589Z" fill="#1B263A"/>
</g>
<defs>
<clipPath id="clip0_554_6856">
<rect width="129.231" height="28" fill="white" transform="translate(0 0.0166016)"/>
</clipPath>
</defs>
</svg>
