<svg width="588" height="466" viewBox="0 0 588 466" fill="none" xmlns="http://www.w3.org/2000/svg">
<g filter="url(#filter0_d_554_7046)">
<rect x="33" y="68.2104" width="573.665" height="223.39" fill="white"/>
</g>
<line x1="67.1328" y1="206.583" x2="564.104" y2="206.583" stroke="#EBF0F3" stroke-width="0.831552"/>
<line x1="33" y1="117.034" x2="606.665" y2="117.034" stroke="#EBF0F3" stroke-width="0.831552"/>
<path d="M407.042 96.9537H413.687V95.6297H409.78L411.824 93.6372C412.916 92.5831 413.623 91.5419 413.623 90.3465C413.623 88.7268 412.492 87.6342 410.59 87.6342C408.649 87.6342 407.44 88.7911 407.325 90.7964H408.893C409.047 89.4981 409.625 88.971 410.538 88.971C411.425 88.971 411.914 89.5109 411.914 90.3722C411.914 91.2463 411.387 92.0561 410.512 92.9816L407.042 96.6452V96.9537ZM417.571 97.0822C419.551 97.0822 420.952 95.861 420.952 93.92C420.952 91.9918 419.782 90.8349 418.124 90.8349C417.147 90.8349 416.504 91.1949 416.144 91.6062L416.157 89.1124H420.425V87.7627H414.846L414.769 92.8788H415.643C416.054 92.4032 416.62 92.0818 417.558 92.0818C418.574 92.0818 419.217 92.7888 419.217 93.8943C419.217 95.0255 418.612 95.7582 417.558 95.7582C416.376 95.7582 416.029 95.1669 415.887 94.3185H414.293C414.396 95.8996 415.412 97.0822 417.571 97.0822ZM423.385 91.092C422.78 91.092 422.395 90.6807 422.395 89.8966C422.395 89.1253 422.78 88.7011 423.385 88.7011C423.989 88.7011 424.361 89.151 424.361 89.8966C424.361 90.655 423.989 91.092 423.385 91.092ZM423.372 92.1332C424.631 92.1332 425.608 91.182 425.608 89.8837C425.608 88.5982 424.619 87.6727 423.385 87.6727C422.15 87.6727 421.135 88.624 421.135 89.9094C421.135 91.182 422.112 92.1332 423.372 92.1332ZM422.395 96.9537H423.487L429.4 87.7627H428.321L422.395 96.9537ZM428.423 96.041C427.819 96.041 427.434 95.6297 427.434 94.8455C427.434 94.0743 427.819 93.6501 428.423 93.6501C429.028 93.6501 429.4 94.1 429.4 94.8455C429.4 95.604 429.028 96.041 428.423 96.041ZM428.411 97.0822C429.67 97.0822 430.66 96.131 430.66 94.8327C430.66 93.5472 429.657 92.6217 428.423 92.6217C427.189 92.6217 426.187 93.5729 426.187 94.8584C426.187 96.131 427.151 97.0822 428.411 97.0822Z" fill="#134AE9"/>
<rect x="446.707" y="87.5719" width="133.424" height="10" rx="5" fill="#F5F7FA"/>
<rect x="446.707" y="87.5719" width="133.424" height="10" rx="5" stroke="#1B263A"/>
<rect x="446.707" y="87.5719" width="33.3561" height="10" rx="5" fill="#134AE9"/>
<path d="M71.7678 97.5701C70.9578 97.5701 70.2428 97.4251 69.6228 97.1351C69.0028 96.8451 68.5178 96.4301 68.1678 95.8901C67.8178 95.3501 67.6428 94.7001 67.6428 93.9401V93.5201H69.5928V93.9401C69.5928 94.5701 69.7878 95.0451 70.1778 95.3651C70.5678 95.6751 71.0978 95.8301 71.7678 95.8301C72.4478 95.8301 72.9528 95.6951 73.2828 95.4251C73.6228 95.1551 73.7928 94.8101 73.7928 94.3901C73.7928 94.1001 73.7078 93.8651 73.5378 93.6851C73.3778 93.5051 73.1378 93.3601 72.8178 93.2501C72.5078 93.1301 72.1278 93.0201 71.6778 92.9201L71.3328 92.8451C70.6128 92.6851 69.9928 92.4851 69.4728 92.2451C68.9628 91.9951 68.5678 91.6701 68.2878 91.2701C68.0178 90.8701 67.8828 90.3501 67.8828 89.7101C67.8828 89.0701 68.0328 88.5251 68.3328 88.0751C68.6428 87.6151 69.0728 87.2651 69.6228 87.0251C70.1828 86.7751 70.8378 86.6501 71.5878 86.6501C72.3378 86.6501 73.0028 86.7801 73.5828 87.0401C74.1728 87.2901 74.6328 87.6701 74.9628 88.1801C75.3028 88.6801 75.4728 89.3101 75.4728 90.0701V90.5201H73.5228V90.0701C73.5228 89.6701 73.4428 89.3501 73.2828 89.1101C73.1328 88.8601 72.9128 88.6801 72.6228 88.5701C72.3328 88.4501 71.9878 88.3901 71.5878 88.3901C70.9878 88.3901 70.5428 88.5051 70.2528 88.7351C69.9728 88.9551 69.8328 89.2601 69.8328 89.6501C69.8328 89.9101 69.8978 90.1301 70.0278 90.3101C70.1678 90.4901 70.3728 90.6401 70.6428 90.7601C70.9128 90.8801 71.2578 90.9851 71.6778 91.0751L72.0228 91.1501C72.7728 91.3101 73.4228 91.5151 73.9728 91.7651C74.5328 92.0151 74.9678 92.3451 75.2778 92.7551C75.5878 93.1651 75.7428 93.6901 75.7428 94.3301C75.7428 94.9701 75.5778 95.5351 75.2478 96.0251C74.9278 96.5051 74.4678 96.8851 73.8678 97.1651C73.2778 97.4351 72.5778 97.5701 71.7678 97.5701ZM78.9895 97.5701C78.4595 97.5701 77.9845 97.4801 77.5645 97.3001C77.1445 97.1101 76.8095 96.8401 76.5595 96.4901C76.3195 96.1301 76.1995 95.6951 76.1995 95.1851C76.1995 94.6751 76.3195 94.2501 76.5595 93.9101C76.8095 93.5601 77.1495 93.3001 77.5795 93.1301C78.0195 92.9501 78.5195 92.8601 79.0795 92.8601H81.1195V92.4401C81.1195 92.0901 81.0095 91.8051 80.7895 91.5851C80.5695 91.3551 80.2195 91.2401 79.7395 91.2401C79.2695 91.2401 78.9195 91.3501 78.6895 91.5701C78.4595 91.7801 78.3095 92.0551 78.2395 92.3951L76.4995 91.8101C76.6195 91.4301 76.8095 91.0851 77.0695 90.7751C77.3395 90.4551 77.6945 90.2001 78.1345 90.0101C78.5845 89.8101 79.1295 89.7101 79.7695 89.7101C80.7495 89.7101 81.5245 89.9551 82.0945 90.4451C82.6645 90.9351 82.9495 91.6451 82.9495 92.5751V95.3501C82.9495 95.6501 83.0895 95.8001 83.3695 95.8001H83.9695V97.3601H82.7095C82.3395 97.3601 82.0345 97.2701 81.7945 97.0901C81.5545 96.9101 81.4345 96.6701 81.4345 96.3701V96.3551H81.1495C81.1095 96.4751 81.0195 96.6351 80.8795 96.8351C80.7395 97.0251 80.5195 97.1951 80.2195 97.3451C79.9195 97.4951 79.5095 97.5701 78.9895 97.5701ZM79.3195 96.0401C79.8495 96.0401 80.2795 95.8951 80.6095 95.6051C80.9495 95.3051 81.1195 94.9101 81.1195 94.4201V94.2701H79.2145C78.8645 94.2701 78.5895 94.3451 78.3895 94.4951C78.1895 94.6451 78.0895 94.8551 78.0895 95.1251C78.0895 95.3951 78.1945 95.6151 78.4045 95.7851C78.6145 95.9551 78.9195 96.0401 79.3195 96.0401ZM84.7514 97.3601V86.8601H86.6414V97.3601H84.7514ZM91.5257 97.5701C90.7857 97.5701 90.1307 97.4151 89.5607 97.1051C89.0007 96.7851 88.5607 96.3401 88.2407 95.7701C87.9307 95.1901 87.7757 94.5101 87.7757 93.7301V93.5501C87.7757 92.7701 87.9307 92.0951 88.2407 91.5251C88.5507 90.9451 88.9857 90.5001 89.5457 90.1901C90.1057 89.8701 90.7557 89.7101 91.4957 89.7101C92.2257 89.7101 92.8607 89.8751 93.4007 90.2051C93.9407 90.5251 94.3607 90.9751 94.6607 91.5551C94.9607 92.1251 95.1107 92.7901 95.1107 93.5501V94.1951H89.6957C89.7157 94.7051 89.9057 95.1201 90.2657 95.4401C90.6257 95.7601 91.0657 95.9201 91.5857 95.9201C92.1157 95.9201 92.5057 95.8051 92.7557 95.5751C93.0057 95.3451 93.1957 95.0901 93.3257 94.8101L94.8707 95.6201C94.7307 95.8801 94.5257 96.1651 94.2557 96.4751C93.9957 96.7751 93.6457 97.0351 93.2057 97.2551C92.7657 97.4651 92.2057 97.5701 91.5257 97.5701ZM89.7107 92.7851H93.1907C93.1507 92.3551 92.9757 92.0101 92.6657 91.7501C92.3657 91.4901 91.9707 91.3601 91.4807 91.3601C90.9707 91.3601 90.5657 91.4901 90.2657 91.7501C89.9657 92.0101 89.7807 92.3551 89.7107 92.7851ZM99.283 97.5701C98.313 97.5701 97.518 97.3601 96.898 96.9401C96.278 96.5201 95.903 95.9201 95.773 95.1401L97.513 94.6901C97.583 95.0401 97.698 95.3151 97.858 95.5151C98.028 95.7151 98.233 95.8601 98.473 95.9501C98.723 96.0301 98.993 96.0701 99.283 96.0701C99.723 96.0701 100.048 95.9951 100.258 95.8451C100.468 95.6851 100.573 95.4901 100.573 95.2601C100.573 95.0301 100.473 94.8551 100.273 94.7351C100.073 94.6051 99.753 94.5001 99.313 94.4201L98.893 94.3451C98.373 94.2451 97.898 94.1101 97.468 93.9401C97.038 93.7601 96.693 93.5151 96.433 93.2051C96.173 92.8951 96.043 92.4951 96.043 92.0051C96.043 91.2651 96.313 90.7001 96.853 90.3101C97.393 89.9101 98.103 89.7101 98.983 89.7101C99.813 89.7101 100.503 89.8951 101.053 90.2651C101.603 90.6351 101.963 91.1201 102.133 91.7201L100.378 92.2601C100.298 91.8801 100.133 91.6101 99.883 91.4501C99.643 91.2901 99.343 91.2101 98.983 91.2101C98.623 91.2101 98.348 91.2751 98.158 91.4051C97.968 91.5251 97.873 91.6951 97.873 91.9151C97.873 92.1551 97.973 92.3351 98.173 92.4551C98.373 92.5651 98.643 92.6501 98.983 92.7101L99.403 92.7851C99.963 92.8851 100.468 93.0201 100.918 93.1901C101.378 93.3501 101.738 93.5851 101.998 93.8951C102.268 94.1951 102.403 94.6051 102.403 95.1251C102.403 95.9051 102.118 96.5101 101.548 96.9401C100.988 97.3601 100.233 97.5701 99.283 97.5701ZM105.378 100.36L109.788 86.8601H111.678L107.268 100.36H105.378ZM119.022 97.5701C117.722 97.5701 116.692 97.2101 115.932 96.4901C115.172 95.7601 114.792 94.7201 114.792 93.3701V90.8501C114.792 89.5001 115.172 88.4651 115.932 87.7451C116.692 87.0151 117.722 86.6501 119.022 86.6501C120.312 86.6501 121.307 87.0051 122.007 87.7151C122.717 88.4151 123.072 89.3801 123.072 90.6101V90.7001H121.122V90.5501C121.122 89.9301 120.947 89.4201 120.597 89.0201C120.257 88.6201 119.732 88.4201 119.022 88.4201C118.322 88.4201 117.772 88.6351 117.372 89.0651C116.972 89.4951 116.772 90.0801 116.772 90.8201V93.4001C116.772 94.1301 116.972 94.7151 117.372 95.1551C117.772 95.5851 118.322 95.8001 119.022 95.8001C119.732 95.8001 120.257 95.6001 120.597 95.2001C120.947 94.7901 121.122 94.2801 121.122 93.6701V93.4001H123.072V93.6101C123.072 94.8401 122.717 95.8101 122.007 96.5201C121.307 97.2201 120.312 97.5701 119.022 97.5701ZM127.73 97.5701C126.92 97.5701 126.205 97.4251 125.585 97.1351C124.965 96.8451 124.48 96.4301 124.13 95.8901C123.78 95.3501 123.605 94.7001 123.605 93.9401V93.5201H125.555V93.9401C125.555 94.5701 125.75 95.0451 126.14 95.3651C126.53 95.6751 127.06 95.8301 127.73 95.8301C128.41 95.8301 128.915 95.6951 129.245 95.4251C129.585 95.1551 129.755 94.8101 129.755 94.3901C129.755 94.1001 129.67 93.8651 129.5 93.6851C129.34 93.5051 129.1 93.3601 128.78 93.2501C128.47 93.1301 128.09 93.0201 127.64 92.9201L127.295 92.8451C126.575 92.6851 125.955 92.4851 125.435 92.2451C124.925 91.9951 124.53 91.6701 124.25 91.2701C123.98 90.8701 123.845 90.3501 123.845 89.7101C123.845 89.0701 123.995 88.5251 124.295 88.0751C124.605 87.6151 125.035 87.2651 125.585 87.0251C126.145 86.7751 126.8 86.6501 127.55 86.6501C128.3 86.6501 128.965 86.7801 129.545 87.0401C130.135 87.2901 130.595 87.6701 130.925 88.1801C131.265 88.6801 131.435 89.3101 131.435 90.0701V90.5201H129.485V90.0701C129.485 89.6701 129.405 89.3501 129.245 89.1101C129.095 88.8601 128.875 88.6801 128.585 88.5701C128.295 88.4501 127.95 88.3901 127.55 88.3901C126.95 88.3901 126.505 88.5051 126.215 88.7351C125.935 88.9551 125.795 89.2601 125.795 89.6501C125.795 89.9101 125.86 90.1301 125.99 90.3101C126.13 90.4901 126.335 90.6401 126.605 90.7601C126.875 90.8801 127.22 90.9851 127.64 91.0751L127.985 91.1501C128.735 91.3101 129.385 91.5151 129.935 91.7651C130.495 92.0151 130.93 92.3451 131.24 92.7551C131.55 93.1651 131.705 93.6901 131.705 94.3301C131.705 94.9701 131.54 95.5351 131.21 96.0251C130.89 96.5051 130.43 96.8851 129.83 97.1651C129.24 97.4351 128.54 97.5701 127.73 97.5701ZM135.79 97.3601V86.8601H137.77V91.1951H141.67V86.8601H143.65V97.3601H141.67V92.9951H137.77V97.3601H135.79ZM147.404 97.5701C146.874 97.5701 146.399 97.4801 145.979 97.3001C145.559 97.1101 145.224 96.8401 144.974 96.4901C144.734 96.1301 144.614 95.6951 144.614 95.1851C144.614 94.6751 144.734 94.2501 144.974 93.9101C145.224 93.5601 145.564 93.3001 145.994 93.1301C146.434 92.9501 146.934 92.8601 147.494 92.8601H149.534V92.4401C149.534 92.0901 149.424 91.8051 149.204 91.5851C148.984 91.3551 148.634 91.2401 148.154 91.2401C147.684 91.2401 147.334 91.3501 147.104 91.5701C146.874 91.7801 146.724 92.0551 146.654 92.3951L144.914 91.8101C145.034 91.4301 145.224 91.0851 145.484 90.7751C145.754 90.4551 146.109 90.2001 146.549 90.0101C146.999 89.8101 147.544 89.7101 148.184 89.7101C149.164 89.7101 149.939 89.9551 150.509 90.4451C151.079 90.9351 151.364 91.6451 151.364 92.5751V95.3501C151.364 95.6501 151.504 95.8001 151.784 95.8001H152.384V97.3601H151.124C150.754 97.3601 150.449 97.2701 150.209 97.0901C149.969 96.9101 149.849 96.6701 149.849 96.3701V96.3551H149.564C149.524 96.4751 149.434 96.6351 149.294 96.8351C149.154 97.0251 148.934 97.1951 148.634 97.3451C148.334 97.4951 147.924 97.5701 147.404 97.5701ZM147.734 96.0401C148.264 96.0401 148.694 95.8951 149.024 95.6051C149.364 95.3051 149.534 94.9101 149.534 94.4201V94.2701H147.629C147.279 94.2701 147.004 94.3451 146.804 94.4951C146.604 94.6451 146.504 94.8551 146.504 95.1251C146.504 95.3951 146.609 95.6151 146.819 95.7851C147.029 95.9551 147.334 96.0401 147.734 96.0401ZM153.166 97.3601V89.9201H155.026V90.8951H155.296C155.416 90.6351 155.641 90.3901 155.971 90.1601C156.301 89.9201 156.801 89.8001 157.471 89.8001C158.051 89.8001 158.556 89.9351 158.986 90.2051C159.426 90.4651 159.766 90.8301 160.006 91.3001C160.246 91.7601 160.366 92.3001 160.366 92.9201V97.3601H158.476V93.0701C158.476 92.5101 158.336 92.0901 158.056 91.8101C157.786 91.5301 157.396 91.3901 156.886 91.3901C156.306 91.3901 155.856 91.5851 155.536 91.9751C155.216 92.3551 155.056 92.8901 155.056 93.5801V97.3601H153.166ZM164.809 97.5701C164.219 97.5701 163.664 97.4251 163.144 97.1351C162.634 96.8351 162.224 96.4001 161.914 95.8301C161.604 95.2601 161.449 94.5701 161.449 93.7601V93.5201C161.449 92.7101 161.604 92.0201 161.914 91.4501C162.224 90.8801 162.634 90.4501 163.144 90.1601C163.654 89.8601 164.209 89.7101 164.809 89.7101C165.259 89.7101 165.634 89.7651 165.934 89.8751C166.244 89.9751 166.494 90.1051 166.684 90.2651C166.874 90.4251 167.019 90.5951 167.119 90.7751H167.389V86.8601H169.279V97.3601H167.419V96.4601H167.149C166.979 96.7401 166.714 96.9951 166.354 97.2251C166.004 97.4551 165.489 97.5701 164.809 97.5701ZM165.379 95.9201C165.959 95.9201 166.444 95.7351 166.834 95.3651C167.224 94.9851 167.419 94.4351 167.419 93.7151V93.5651C167.419 92.8451 167.224 92.3001 166.834 91.9301C166.454 91.5501 165.969 91.3601 165.379 91.3601C164.799 91.3601 164.314 91.5501 163.924 91.9301C163.534 92.3001 163.339 92.8451 163.339 93.5651V93.7151C163.339 94.4351 163.534 94.9851 163.924 95.3651C164.314 95.7351 164.799 95.9201 165.379 95.9201ZM174.315 97.5701C173.575 97.5701 172.91 97.4201 172.32 97.1201C171.73 96.8201 171.265 96.3851 170.925 95.8151C170.585 95.2451 170.415 94.5601 170.415 93.7601V93.5201C170.415 92.7201 170.585 92.0351 170.925 91.4651C171.265 90.8951 171.73 90.4601 172.32 90.1601C172.91 89.8601 173.575 89.7101 174.315 89.7101C175.055 89.7101 175.72 89.8601 176.31 90.1601C176.9 90.4601 177.365 90.8951 177.705 91.4651C178.045 92.0351 178.215 92.7201 178.215 93.5201V93.7601C178.215 94.5601 178.045 95.2451 177.705 95.8151C177.365 96.3851 176.9 96.8201 176.31 97.1201C175.72 97.4201 175.055 97.5701 174.315 97.5701ZM174.315 95.8901C174.895 95.8901 175.375 95.7051 175.755 95.3351C176.135 94.9551 176.325 94.4151 176.325 93.7151V93.5651C176.325 92.8651 176.135 92.3301 175.755 91.9601C175.385 91.5801 174.905 91.3901 174.315 91.3901C173.735 91.3901 173.255 91.5801 172.875 91.9601C172.495 92.3301 172.305 92.8651 172.305 93.5651V93.7151C172.305 94.4151 172.495 94.9551 172.875 95.3351C173.255 95.7051 173.735 95.8901 174.315 95.8901ZM180.355 97.3601V91.4801H178.465V89.9201H180.355V88.5401C180.355 88.0301 180.505 87.6251 180.805 87.3251C181.115 87.0151 181.515 86.8601 182.005 86.8601H183.955V88.4201H182.665C182.385 88.4201 182.245 88.5701 182.245 88.8701V89.9201H183.745V91.4801H182.245V97.3601H180.355ZM185.245 97.3601V91.4801H183.745V89.9201H185.245V88.5401C185.245 88.0301 185.395 87.6251 185.695 87.3251C186.005 87.0151 186.405 86.8601 186.895 86.8601H188.845V88.4201H187.555C187.275 88.4201 187.135 88.5701 187.135 88.8701V89.9201H189.085V91.4801H187.135V97.3601H185.245Z" fill="#1B263A"/>
<path d="M357.322 171.815H358.918V168.347H359.938L362.182 171.815H363.91L361.498 168.107C362.566 167.831 363.406 167.147 363.406 165.803V165.755C363.406 164.003 362.086 163.235 360.202 163.235H357.322V171.815ZM358.918 167.207V164.471H360.202C361.222 164.471 361.834 164.807 361.834 165.791V165.839C361.834 166.751 361.27 167.207 360.202 167.207H358.918ZM364.861 171.815H366.313V165.539H364.861V171.815ZM365.569 164.507C366.049 164.507 366.433 164.147 366.433 163.679C366.433 163.199 366.049 162.839 365.569 162.839C365.089 162.839 364.705 163.199 364.705 163.679C364.705 164.147 365.089 164.507 365.569 164.507ZM370.591 171.935C372.295 171.935 373.387 170.915 373.495 169.475H372.163C372.079 170.363 371.419 170.819 370.651 170.819C369.583 170.819 368.911 170.099 368.911 168.731V168.635C368.911 167.339 369.619 166.571 370.615 166.571C371.383 166.571 371.935 166.919 372.055 167.759H373.459C373.291 166.031 371.983 165.407 370.591 165.407C368.839 165.407 367.423 166.667 367.423 168.659V168.755C367.423 170.759 368.791 171.935 370.591 171.935ZM374.505 171.815H375.957V168.119C375.957 167.123 376.617 166.619 377.433 166.619C378.297 166.619 378.681 167.051 378.681 167.999V171.815H380.133V167.867C380.133 166.139 379.245 165.407 377.985 165.407C376.953 165.407 376.257 165.923 375.957 166.535V162.635H374.505V171.815ZM383.21 171.935C384.17 171.935 384.722 171.587 385.13 171.047V171.815H386.558V167.699C386.558 165.983 385.454 165.407 384.05 165.407C382.646 165.407 381.482 166.019 381.362 167.483H382.766C382.838 166.859 383.21 166.499 383.966 166.499C384.818 166.499 385.106 166.919 385.106 167.759V168.083H384.326C382.526 168.083 381.11 168.611 381.11 170.075C381.11 171.383 382.058 171.935 383.21 171.935ZM383.558 170.891C382.838 170.891 382.55 170.543 382.55 170.015C382.55 169.247 383.258 168.995 384.362 168.995H385.106V169.619C385.106 170.423 384.446 170.891 383.558 170.891ZM387.982 171.815H389.434V168.551C389.434 167.219 390.202 166.811 391.474 166.799V165.443C390.418 165.455 389.83 165.923 389.434 166.715V165.539H387.982V171.815ZM394.747 171.935C395.671 171.935 396.475 171.383 396.811 170.759V171.815H398.263V162.635H396.811V166.499C396.463 165.875 395.827 165.407 394.807 165.407C393.175 165.407 391.987 166.679 391.987 168.683V168.779C391.987 170.819 393.175 171.935 394.747 171.935ZM395.107 170.783C394.171 170.783 393.475 170.123 393.475 168.743V168.647C393.475 167.291 394.099 166.547 395.167 166.547C396.223 166.547 396.859 167.231 396.859 168.611V168.707C396.859 170.111 396.115 170.783 395.107 170.783ZM402.488 171.815H404.084V168.167H407.936V171.815H409.544V163.235H407.936V166.883H404.084V163.235H402.488V171.815Z" fill="#1B263A"/>
<path opacity="0.4" d="M434.437 171.815H435.889V165.239L439.753 171.815H441.409V163.235H439.957V169.439L436.345 163.235H434.437V171.815ZM445.768 170.807C444.664 170.807 444.028 170.003 444.028 168.719V168.623C444.028 167.327 444.688 166.547 445.768 166.547C446.848 166.547 447.496 167.339 447.496 168.635V168.719C447.496 170.003 446.848 170.807 445.768 170.807ZM445.756 171.935C447.604 171.935 448.984 170.663 448.984 168.707V168.611C448.984 166.691 447.604 165.407 445.768 165.407C443.92 165.407 442.54 166.703 442.54 168.647V168.743C442.54 170.651 443.908 171.935 445.756 171.935ZM450.056 171.815H451.508V168.119C451.508 167.123 452.168 166.619 452.984 166.619C453.848 166.619 454.232 167.051 454.232 167.999V171.815H455.684V167.867C455.684 166.139 454.796 165.407 453.536 165.407C452.504 165.407 451.808 165.923 451.508 166.535V165.539H450.056V171.815ZM459.877 171.935C461.485 171.935 462.553 171.215 462.757 169.895H461.353C461.245 170.507 460.789 170.855 459.913 170.855C458.833 170.855 458.233 170.183 458.185 168.995H462.781V168.575C462.781 166.331 461.377 165.407 459.817 165.407C458.029 165.407 456.697 166.703 456.697 168.647V168.743C456.697 170.723 458.029 171.935 459.877 171.935ZM458.209 168.023C458.353 167.051 458.941 166.463 459.817 166.463C460.717 166.463 461.269 166.943 461.341 168.023H458.209Z" fill="#1B263A"/>
<rect x="255.314" y="154.023" width="75.5842" height="26.5842" rx="4.64604" fill="#85F1F0" fill-opacity="0.5"/>
<path d="M268.421 169.525C267.362 169.525 266.588 168.701 266.588 167.43V167.365C266.588 166.11 267.264 165.27 268.405 165.27C269.546 165.27 270.214 166.159 270.214 167.357V167.422C270.214 168.685 269.522 169.525 268.421 169.525ZM268.405 170.397C270.174 170.397 271.339 169.117 271.339 167.414V167.348C271.339 165.637 270.141 164.406 268.405 164.406C266.677 164.406 265.455 165.67 265.455 167.373V167.438C265.455 169.117 266.62 170.397 268.405 170.397ZM272.386 170.315H273.372V165.849L275.996 170.315H277.121V164.488H276.135V168.701L273.682 164.488H272.386V170.315ZM278.459 170.315H280.7C281.979 170.315 282.697 169.769 282.697 168.685V168.652C282.697 167.878 282.322 167.446 281.531 167.275C282.191 167.071 282.452 166.615 282.452 166.036V166.004C282.452 164.944 281.743 164.488 280.545 164.488H278.459V170.315ZM279.518 169.541V167.674H280.496C281.295 167.674 281.629 167.976 281.629 168.579V168.612C281.629 169.215 281.295 169.541 280.57 169.541H279.518ZM279.518 166.941V165.262H280.398C281.091 165.262 281.409 165.498 281.409 166.053V166.085C281.409 166.68 281.132 166.941 280.415 166.941H279.518ZM286.385 169.525C285.325 169.525 284.551 168.701 284.551 167.43V167.365C284.551 166.11 285.227 165.27 286.368 165.27C287.509 165.27 288.178 166.159 288.178 167.357V167.422C288.178 168.685 287.485 169.525 286.385 169.525ZM286.368 170.397C288.137 170.397 289.302 169.117 289.302 167.414V167.348C289.302 165.637 288.104 164.406 286.368 164.406C284.641 164.406 283.418 165.67 283.418 167.373V167.438C283.418 169.117 284.584 170.397 286.368 170.397ZM289.575 170.315H290.594L291.05 168.873H293.275L293.739 170.315H294.864L292.941 164.488H291.523L289.575 170.315ZM292.167 165.376L293.022 168.082H291.303L292.167 165.376ZM295.754 170.315H296.837V167.96H297.53L299.054 170.315H300.228L298.59 167.797C299.315 167.609 299.886 167.145 299.886 166.232V166.199C299.886 165.009 298.989 164.488 297.71 164.488H295.754V170.315ZM296.837 167.185V165.327H297.71C298.402 165.327 298.818 165.555 298.818 166.224V166.256C298.818 166.876 298.435 167.185 297.71 167.185H296.837ZM302.178 169.459V165.344H302.806C304.175 165.344 304.745 166.102 304.745 167.357V167.422C304.745 168.71 304.118 169.459 302.814 169.459H302.178ZM301.094 170.315H302.846C304.892 170.315 305.878 169.109 305.878 167.414V167.34C305.878 165.645 304.892 164.488 302.863 164.488H301.094V170.315ZM306.945 170.315H308.037V164.488H306.945V170.315ZM309.411 170.315H310.397V165.849L313.022 170.315H314.146V164.488H313.16V168.701L310.707 164.488H309.411V170.315ZM318.1 170.397C319.746 170.397 320.757 169.419 320.757 167.805V167.267H318.222V168.082H319.689C319.657 168.889 319.208 169.549 318.116 169.549C316.894 169.549 316.315 168.693 316.315 167.446V167.381C316.315 166.102 316.975 165.254 318.116 165.254C318.874 165.254 319.396 165.588 319.526 166.362H320.61C320.455 164.969 319.347 164.398 318.1 164.398C316.397 164.398 315.19 165.637 315.19 167.373V167.438C315.19 169.158 316.234 170.397 318.1 170.397Z" fill="#1B263A"/>
<line x1="111.909" y1="178.463" x2="167.184" y2="178.463" stroke="#D5DDE2" stroke-width="3.71683" stroke-linecap="round" stroke-linejoin="round"/>
<line x1="180.31" y1="178.463" x2="215.12" y2="178.463" stroke="#D5DDE2" stroke-width="3.71683" stroke-linecap="round" stroke-linejoin="round"/>
<path d="M113.951 166.429C115.847 166.429 117.107 165.265 117.107 163.777C117.107 162.061 116.063 161.485 114.047 161.209C112.559 160.993 112.271 160.645 112.271 159.949C112.271 159.289 112.775 158.821 113.747 158.821C114.731 158.821 115.247 159.205 115.403 160.105H116.867C116.699 158.461 115.595 157.621 113.747 157.621C111.959 157.621 110.759 158.677 110.759 160.081C110.759 161.689 111.731 162.313 113.783 162.589C115.175 162.817 115.571 163.117 115.571 163.909C115.571 164.701 114.899 165.229 113.951 165.229C112.499 165.229 112.151 164.509 112.043 163.645H110.507C110.627 165.265 111.611 166.429 113.951 166.429ZM121.04 166.429C122.744 166.429 123.836 165.409 123.944 163.969H122.612C122.528 164.857 121.868 165.313 121.1 165.313C120.032 165.313 119.36 164.593 119.36 163.225V163.129C119.36 161.833 120.068 161.065 121.064 161.065C121.832 161.065 122.384 161.413 122.504 162.253H123.908C123.74 160.525 122.432 159.901 121.04 159.901C119.288 159.901 117.872 161.161 117.872 163.153V163.249C117.872 165.253 119.24 166.429 121.04 166.429ZM124.954 166.309H126.406V162.613C126.406 161.617 127.066 161.113 127.882 161.113C128.746 161.113 129.13 161.545 129.13 162.493V166.309H130.582V162.361C130.582 160.633 129.694 159.901 128.434 159.901C127.402 159.901 126.706 160.417 126.406 161.029V157.129H124.954V166.309ZM134.775 166.429C136.383 166.429 137.451 165.709 137.655 164.389H136.251C136.143 165.001 135.687 165.349 134.811 165.349C133.731 165.349 133.131 164.677 133.083 163.489H137.679V163.069C137.679 160.825 136.275 159.901 134.715 159.901C132.927 159.901 131.595 161.197 131.595 163.141V163.237C131.595 165.217 132.927 166.429 134.775 166.429ZM133.107 162.517C133.251 161.545 133.839 160.957 134.715 160.957C135.615 160.957 136.167 161.437 136.239 162.517H133.107ZM141.088 166.429C142.012 166.429 142.816 165.877 143.152 165.253V166.309H144.604V157.129H143.152V160.993C142.804 160.369 142.168 159.901 141.148 159.901C139.516 159.901 138.328 161.173 138.328 163.177V163.273C138.328 165.313 139.516 166.429 141.088 166.429ZM141.448 165.277C140.512 165.277 139.816 164.617 139.816 163.237V163.141C139.816 161.785 140.44 161.041 141.508 161.041C142.564 161.041 143.2 161.725 143.2 163.105V163.201C143.2 164.605 142.456 165.277 141.448 165.277ZM148.19 166.429C149.21 166.429 149.87 165.937 150.182 165.325V166.309H151.634V160.033H150.182V163.765C150.182 164.761 149.498 165.265 148.718 165.265C147.878 165.265 147.482 164.833 147.482 163.885V160.033H146.03V164.053C146.03 165.721 146.954 166.429 148.19 166.429ZM153.151 166.309H154.603V157.129H153.151V166.309ZM158.893 166.429C160.501 166.429 161.569 165.709 161.773 164.389H160.369C160.261 165.001 159.805 165.349 158.929 165.349C157.849 165.349 157.249 164.677 157.201 163.489H161.797V163.069C161.797 160.825 160.393 159.901 158.833 159.901C157.045 159.901 155.713 161.197 155.713 163.141V163.237C155.713 165.217 157.045 166.429 158.893 166.429ZM157.225 162.517C157.369 161.545 157.957 160.957 158.833 160.957C159.733 160.957 160.285 161.437 160.357 162.517H157.225ZM167.118 166.429C168.078 166.429 168.63 166.081 169.038 165.541V166.309H170.466V162.193C170.466 160.477 169.362 159.901 167.958 159.901C166.554 159.901 165.39 160.513 165.27 161.977H166.674C166.746 161.353 167.118 160.993 167.874 160.993C168.726 160.993 169.014 161.413 169.014 162.253V162.577H168.234C166.434 162.577 165.018 163.105 165.018 164.569C165.018 165.877 165.966 166.429 167.118 166.429ZM167.466 165.385C166.746 165.385 166.458 165.037 166.458 164.509C166.458 163.741 167.166 163.489 168.27 163.489H169.014V164.113C169.014 164.917 168.354 165.385 167.466 165.385ZM174.509 166.309H175.961V162.553C175.961 161.593 176.621 161.113 177.341 161.113C178.049 161.113 178.457 161.509 178.457 162.433V166.309H179.909V162.553C179.909 161.593 180.569 161.113 181.289 161.113C182.009 161.113 182.405 161.509 182.405 162.433V166.309H183.857V162.337C183.857 160.609 182.921 159.901 181.769 159.901C180.989 159.901 180.125 160.249 179.645 161.029C179.333 160.249 178.685 159.901 177.869 159.901C176.945 159.901 176.261 160.405 175.961 160.993V160.033H174.509V166.309ZM188.045 166.429C189.653 166.429 190.721 165.709 190.925 164.389H189.521C189.413 165.001 188.957 165.349 188.081 165.349C187.001 165.349 186.401 164.677 186.353 163.489H190.949V163.069C190.949 160.825 189.545 159.901 187.985 159.901C186.197 159.901 184.865 161.197 184.865 163.141V163.237C184.865 165.217 186.197 166.429 188.045 166.429ZM186.377 162.517C186.521 161.545 187.109 160.957 187.985 160.957C188.885 160.957 189.437 161.437 189.509 162.517H186.377ZM194.766 166.429C196.374 166.429 197.442 165.709 197.646 164.389H196.242C196.134 165.001 195.678 165.349 194.802 165.349C193.722 165.349 193.122 164.677 193.074 163.489H197.67V163.069C197.67 160.825 196.266 159.901 194.706 159.901C192.918 159.901 191.586 161.197 191.586 163.141V163.237C191.586 165.217 192.918 166.429 194.766 166.429ZM193.098 162.517C193.242 161.545 193.83 160.957 194.706 160.957C195.606 160.957 196.158 161.437 196.23 162.517H193.098ZM200.863 166.417C201.307 166.417 201.619 166.345 201.847 166.261V165.109C201.643 165.193 201.427 165.229 201.139 165.229C200.683 165.229 200.419 164.977 200.419 164.425V161.125H201.799V160.033H200.419V158.653H198.967V160.033H198.127V161.125H198.967V164.557C198.967 165.745 199.615 166.417 200.863 166.417ZM202.952 166.309H204.404V160.033H202.952V166.309ZM203.66 159.001C204.14 159.001 204.524 158.641 204.524 158.173C204.524 157.693 204.14 157.333 203.66 157.333C203.18 157.333 202.796 157.693 202.796 158.173C202.796 158.641 203.18 159.001 203.66 159.001ZM205.934 166.309H207.386V162.613C207.386 161.617 208.046 161.113 208.862 161.113C209.726 161.113 210.11 161.545 210.11 162.493V166.309H211.562V162.361C211.562 160.633 210.674 159.901 209.414 159.901C208.382 159.901 207.686 160.417 207.386 161.029V160.033H205.934V166.309ZM215.671 168.613C217.615 168.613 218.851 167.689 218.863 165.841V160.033H217.411V160.993C217.051 160.369 216.427 159.901 215.395 159.901C213.775 159.901 212.575 161.221 212.575 162.985V163.069C212.575 164.881 213.787 166.057 215.359 166.057C216.283 166.057 217.063 165.493 217.411 164.893V165.817C217.411 166.945 216.787 167.509 215.659 167.509C214.711 167.509 214.231 167.149 214.111 166.525H212.647C212.815 167.725 213.703 168.613 215.671 168.613ZM215.719 164.941C214.783 164.941 214.063 164.221 214.063 163.057V162.961C214.063 161.821 214.687 161.041 215.767 161.041C216.811 161.041 217.459 161.749 217.459 162.937V163.021C217.459 164.221 216.727 164.941 215.719 164.941Z" fill="#1B263A"/>
<rect x="67.1328" y="152.893" width="29.3304" height="28.8444" rx="5" fill="#85F1F0"/>
<rect x="497.377" y="154.023" width="75.5842" height="26.5842" rx="5" fill="#134AE9" fill-opacity="0.2"/>
<path d="M524.644 170.315H525.679L526.861 166.069L528.01 170.315H529.094L530.553 164.488H529.542L528.499 168.791L527.341 164.488H526.445L525.312 168.767L524.302 164.488H523.193L524.644 170.315ZM533.9 169.525C532.84 169.525 532.066 168.701 532.066 167.43V167.365C532.066 166.11 532.742 165.27 533.883 165.27C535.024 165.27 535.693 166.159 535.693 167.357V167.422C535.693 168.685 535 169.525 533.9 169.525ZM533.883 170.397C535.652 170.397 536.817 169.117 536.817 167.414V167.349C536.817 165.637 535.619 164.406 533.883 164.406C532.156 164.406 530.933 165.67 530.933 167.373V167.438C530.933 169.117 532.099 170.397 533.883 170.397ZM537.864 170.315H538.948V167.96H539.641L541.165 170.315H542.339L540.7 167.797C541.426 167.609 541.996 167.145 541.996 166.232V166.199C541.996 165.01 541.1 164.488 539.82 164.488H537.864V170.315ZM538.948 167.186V165.327H539.82C540.513 165.327 540.929 165.556 540.929 166.224V166.256C540.929 166.876 540.546 167.186 539.82 167.186H538.948ZM543.205 170.315H544.289V167.593L546.53 170.315H547.809L545.275 167.267L547.687 164.48H546.522L544.289 167.129V164.488H543.205V170.315ZM548.61 170.315H549.702V164.488H548.61V170.315ZM551.076 170.315H552.062V165.849L554.687 170.315H555.811V164.488H554.825V168.701L552.372 164.488H551.076V170.315ZM559.765 170.397C561.411 170.397 562.422 169.419 562.422 167.805V167.267H559.887V168.082H561.354C561.322 168.889 560.873 169.549 559.781 169.549C558.559 169.549 557.98 168.693 557.98 167.446V167.381C557.98 166.102 558.64 165.254 559.781 165.254C560.539 165.254 561.061 165.588 561.191 166.362H562.275C562.12 164.969 561.012 164.398 559.765 164.398C558.062 164.398 556.855 165.637 556.855 167.373V167.438C556.855 169.158 557.899 170.397 559.765 170.397Z" fill="#1B263A"/>
<circle r="2.84131" transform="matrix(-1 0 0 1 510.549 167.315)" fill="#134AE9"/>
<path d="M358.114 251.3C359.698 251.3 360.766 250.448 360.766 248.588V242.612H359.158V248.552C359.158 249.608 358.654 250.016 357.874 250.016C357.37 250.016 357.07 249.92 356.77 249.8V251.048C357.046 251.192 357.406 251.3 358.114 251.3ZM363.868 251.312C364.828 251.312 365.38 250.964 365.788 250.424V251.192H367.216V247.076C367.216 245.36 366.112 244.784 364.708 244.784C363.304 244.784 362.14 245.396 362.02 246.86H363.424C363.496 246.236 363.868 245.876 364.624 245.876C365.476 245.876 365.764 246.296 365.764 247.136V247.46H364.984C363.184 247.46 361.768 247.988 361.768 249.452C361.768 250.76 362.716 251.312 363.868 251.312ZM364.216 250.268C363.496 250.268 363.208 249.92 363.208 249.392C363.208 248.624 363.916 248.372 365.02 248.372H365.764V248.996C365.764 249.8 365.104 250.268 364.216 250.268ZM368.64 251.192H370.092V247.436C370.092 246.476 370.752 245.996 371.472 245.996C372.18 245.996 372.588 246.392 372.588 247.316V251.192H374.04V247.436C374.04 246.476 374.7 245.996 375.42 245.996C376.14 245.996 376.536 246.392 376.536 247.316V251.192H377.988V247.22C377.988 245.492 377.052 244.784 375.9 244.784C375.12 244.784 374.256 245.132 373.776 245.912C373.464 245.132 372.816 244.784 372 244.784C371.076 244.784 370.392 245.288 370.092 245.876V244.916H368.64V251.192ZM379.451 251.192H380.903V244.916H379.451V251.192ZM380.159 243.884C380.639 243.884 381.023 243.524 381.023 243.056C381.023 242.576 380.639 242.216 380.159 242.216C379.679 242.216 379.295 242.576 379.295 243.056C379.295 243.524 379.679 243.884 380.159 243.884ZM385.193 251.312C386.801 251.312 387.869 250.592 388.073 249.272H386.669C386.561 249.884 386.105 250.232 385.229 250.232C384.149 250.232 383.549 249.56 383.501 248.372H388.097V247.952C388.097 245.708 386.693 244.784 385.133 244.784C383.345 244.784 382.013 246.08 382.013 248.024V248.12C382.013 250.1 383.345 251.312 385.193 251.312ZM383.525 247.4C383.669 246.428 384.257 245.84 385.133 245.84C386.033 245.84 386.585 246.32 386.657 247.4H383.525ZM393.49 249.932V243.872H394.414C396.43 243.872 397.27 244.988 397.27 246.836V246.932C397.27 248.828 396.346 249.932 394.426 249.932H393.49ZM391.894 251.192H394.474C397.486 251.192 398.938 249.416 398.938 246.92V246.812C398.938 244.316 397.486 242.612 394.498 242.612H391.894V251.192Z" fill="#1B263A"/>
<path d="M434.437 251.192H435.877V244.712L438.481 251.192H438.997L441.553 244.712V251.192H443.149V242.612H441.037L438.829 248.468L436.573 242.612H434.437V251.192ZM446.338 251.312C447.298 251.312 447.85 250.964 448.258 250.424V251.192H449.686V247.076C449.686 245.36 448.582 244.784 447.178 244.784C445.774 244.784 444.61 245.396 444.49 246.86H445.894C445.966 246.236 446.338 245.876 447.094 245.876C447.946 245.876 448.234 246.296 448.234 247.136V247.46H447.454C445.654 247.46 444.238 247.988 444.238 249.452C444.238 250.76 445.186 251.312 446.338 251.312ZM446.686 250.268C445.966 250.268 445.678 249.92 445.678 249.392C445.678 248.624 446.386 248.372 447.49 248.372H448.234V248.996C448.234 249.8 447.574 250.268 446.686 250.268ZM451.631 253.34H453.059L456.479 244.916H455.063L453.527 248.96L451.859 244.916H450.287L452.771 250.556L451.631 253.34ZM459.263 251.192H465.467V249.956H461.819L463.727 248.096C464.747 247.112 465.407 246.14 465.407 245.024C465.407 243.512 464.351 242.492 462.575 242.492C460.763 242.492 459.635 243.572 459.527 245.444H460.991C461.135 244.232 461.675 243.74 462.527 243.74C463.355 243.74 463.811 244.244 463.811 245.048C463.811 245.864 463.319 246.62 462.503 247.484L459.263 250.904V251.192ZM469.428 251.312C471.396 251.312 472.644 250.328 472.644 248.744C472.644 247.604 471.984 246.896 470.988 246.668C471.816 246.356 472.38 245.768 472.38 244.796C472.38 243.524 471.336 242.492 469.548 242.492C467.712 242.492 466.596 243.632 466.512 245.12H467.928C468.024 244.256 468.612 243.704 469.524 243.704C470.412 243.704 470.856 244.22 470.856 244.916C470.856 245.72 470.412 246.176 469.428 246.176H468.816V247.316H469.476C470.52 247.316 471.024 247.784 471.024 248.72C471.024 249.572 470.508 250.112 469.392 250.112C468.24 250.112 467.736 249.44 467.652 248.54H466.2C466.272 250.184 467.388 251.312 469.428 251.312Z" fill="#1B263A"/>
<rect x="255.314" y="233.4" width="57.5842" height="26.5842" rx="4.64604" fill="#45DB9E" fill-opacity="0.3"/>
<path d="M267.69 249.774C268.978 249.774 269.834 248.983 269.834 247.973C269.834 246.807 269.125 246.416 267.756 246.229C266.745 246.082 266.549 245.845 266.549 245.373C266.549 244.925 266.892 244.607 267.552 244.607C268.22 244.607 268.571 244.867 268.677 245.479H269.671C269.557 244.362 268.807 243.792 267.552 243.792C266.338 243.792 265.523 244.509 265.523 245.462C265.523 246.555 266.183 246.978 267.576 247.166C268.522 247.321 268.791 247.524 268.791 248.062C268.791 248.6 268.334 248.959 267.69 248.959C266.704 248.959 266.468 248.47 266.395 247.883H265.351C265.433 248.983 266.101 249.774 267.69 249.774ZM273.085 249.774C274.625 249.774 275.448 248.934 275.448 247.41V243.865H274.356V247.321C274.356 248.527 273.932 248.902 273.093 248.902C272.229 248.902 271.887 248.462 271.887 247.394V243.865H270.795V247.475C270.795 248.975 271.626 249.774 273.085 249.774ZM279.284 249.774C280.67 249.774 281.664 249.065 281.835 247.663H280.776C280.661 248.486 280.091 248.894 279.284 248.894C278.208 248.894 277.581 248.119 277.581 246.807V246.742C277.581 245.438 278.249 244.639 279.276 244.639C280.115 244.639 280.547 245.039 280.67 245.813H281.77C281.639 244.444 280.604 243.775 279.268 243.775C277.646 243.775 276.44 244.998 276.44 246.75V246.815C276.44 248.608 277.459 249.774 279.284 249.774ZM285.325 249.774C286.71 249.774 287.705 249.065 287.876 247.663H286.816C286.702 248.486 286.132 248.894 285.325 248.894C284.249 248.894 283.622 248.119 283.622 246.807V246.742C283.622 245.438 284.29 244.639 285.317 244.639C286.156 244.639 286.588 245.039 286.71 245.813H287.811C287.68 244.444 286.645 243.775 285.309 243.775C283.687 243.775 282.481 244.998 282.481 246.75V246.815C282.481 248.608 283.499 249.774 285.325 249.774ZM288.815 249.692H292.597V248.837H289.899V247.133H291.953V246.318H289.899V244.721H292.458V243.865H288.815V249.692ZM295.555 249.774C296.843 249.774 297.698 248.983 297.698 247.973C297.698 246.807 296.989 246.416 295.62 246.229C294.609 246.082 294.414 245.845 294.414 245.373C294.414 244.925 294.756 244.607 295.416 244.607C296.085 244.607 296.435 244.867 296.541 245.479H297.535C297.421 244.362 296.671 243.792 295.416 243.792C294.202 243.792 293.387 244.509 293.387 245.462C293.387 246.555 294.047 246.978 295.441 247.166C296.386 247.321 296.655 247.524 296.655 248.062C296.655 248.6 296.199 248.959 295.555 248.959C294.569 248.959 294.332 248.47 294.259 247.883H293.216C293.297 248.983 293.966 249.774 295.555 249.774ZM300.649 249.774C301.936 249.774 302.792 248.983 302.792 247.973C302.792 246.807 302.083 246.416 300.714 246.229C299.703 246.082 299.508 245.845 299.508 245.373C299.508 244.925 299.85 244.607 300.51 244.607C301.178 244.607 301.529 244.867 301.635 245.479H302.629C302.515 244.362 301.765 243.792 300.51 243.792C299.296 243.792 298.481 244.509 298.481 245.462C298.481 246.555 299.141 246.978 300.534 247.166C301.48 247.321 301.749 247.524 301.749 248.062C301.749 248.6 301.292 248.959 300.649 248.959C299.662 248.959 299.426 248.47 299.353 247.883H298.31C298.391 248.983 299.059 249.774 300.649 249.774Z" fill="#1B263A"/>
<line x1="111.909" y1="257.84" x2="167.184" y2="257.84" stroke="#D5DDE2" stroke-width="3.71683" stroke-linecap="round" stroke-linejoin="round"/>
<line x1="180.31" y1="257.84" x2="215.12" y2="257.84" stroke="#D5DDE2" stroke-width="3.71683" stroke-linecap="round" stroke-linejoin="round"/>
<path d="M111.035 245.687H112.631V241.679L115.931 245.687H117.815L114.083 241.199L117.635 237.095H115.919L112.631 240.995V237.107H111.035V245.687ZM118.562 245.687H120.014V239.411H118.562V245.687ZM119.27 238.379C119.75 238.379 120.134 238.019 120.134 237.551C120.134 237.071 119.75 236.711 119.27 236.711C118.79 236.711 118.406 237.071 118.406 237.551C118.406 238.019 118.79 238.379 119.27 238.379ZM124.292 245.807C125.996 245.807 127.088 244.787 127.196 243.347H125.864C125.78 244.235 125.12 244.691 124.352 244.691C123.284 244.691 122.612 243.971 122.612 242.603V242.507C122.612 241.211 123.32 240.443 124.316 240.443C125.084 240.443 125.636 240.791 125.756 241.631H127.16C126.992 239.903 125.684 239.279 124.292 239.279C122.54 239.279 121.124 240.539 121.124 242.531V242.627C121.124 244.631 122.492 245.807 124.292 245.807ZM128.207 245.687H129.659V242.603L132.011 245.687H133.691L131.051 242.291L133.487 239.411H131.903L129.659 242.171V236.507H128.207V245.687ZM139.874 244.679C138.77 244.679 138.134 243.875 138.134 242.591V242.495C138.134 241.199 138.794 240.419 139.874 240.419C140.954 240.419 141.602 241.211 141.602 242.507V242.591C141.602 243.875 140.954 244.679 139.874 244.679ZM139.862 245.807C141.71 245.807 143.09 244.535 143.09 242.579V242.483C143.09 240.563 141.71 239.279 139.874 239.279C138.026 239.279 136.646 240.575 136.646 242.519V242.615C136.646 244.523 138.014 245.807 139.862 245.807ZM144.414 245.687H145.866V240.503H148.074V245.687H149.526V240.503H150.954V239.411H149.526V238.511C149.526 237.971 149.766 237.587 150.354 237.587C150.618 237.587 150.846 237.635 151.014 237.695V236.567C150.75 236.483 150.534 236.447 150.174 236.447C148.842 236.447 148.074 237.191 148.074 238.571V239.411H145.866V238.583C145.866 238.043 146.106 237.659 146.694 237.659C146.958 237.659 147.174 237.719 147.342 237.779V236.651C147.078 236.567 146.862 236.531 146.514 236.531C145.17 236.531 144.414 237.263 144.414 238.655V239.411H143.562V240.503H144.414V245.687ZM157.294 245.807C158.998 245.807 160.09 244.787 160.198 243.347H158.866C158.782 244.235 158.122 244.691 157.354 244.691C156.286 244.691 155.614 243.971 155.614 242.603V242.507C155.614 241.211 156.322 240.443 157.318 240.443C158.086 240.443 158.638 240.791 158.758 241.631H160.162C159.994 239.903 158.686 239.279 157.294 239.279C155.542 239.279 154.126 240.539 154.126 242.531V242.627C154.126 244.631 155.494 245.807 157.294 245.807ZM162.852 245.807C163.812 245.807 164.364 245.459 164.772 244.919V245.687H166.2V241.571C166.2 239.855 165.096 239.279 163.692 239.279C162.288 239.279 161.124 239.891 161.004 241.355H162.408C162.48 240.731 162.852 240.371 163.608 240.371C164.46 240.371 164.748 240.791 164.748 241.631V241.955H163.968C162.168 241.955 160.752 242.483 160.752 243.947C160.752 245.255 161.7 245.807 162.852 245.807ZM163.2 244.763C162.48 244.763 162.192 244.415 162.192 243.887C162.192 243.119 162.9 242.867 164.004 242.867H164.748V243.491C164.748 244.295 164.088 244.763 163.2 244.763ZM167.66 245.687H169.112V236.507H167.66V245.687ZM170.678 245.687H172.13V236.507H170.678V245.687Z" fill="#1B263A"/>
<rect x="67.1328" y="232.27" width="29.3304" height="28.8444" rx="5" fill="#C4DDF5"/>
<rect x="497.377" y="233.4" width="75.5842" height="26.5842" rx="5" fill="#FBB646" fill-opacity="0.2"/>
<path d="M524.643 248.837V244.721H525.27C526.64 244.721 527.21 245.479 527.21 246.734V246.799C527.21 248.087 526.583 248.837 525.279 248.837H524.643ZM523.559 249.692H525.311C527.357 249.692 528.343 248.486 528.343 246.791V246.718C528.343 245.022 527.357 243.865 525.327 243.865H523.559V249.692ZM529.377 249.692H533.159V248.837H530.461V247.133H532.515V246.318H530.461V244.721H533.02V243.865H529.377V249.692ZM534.136 249.692H537.706V248.828H535.22V243.865H534.136V249.692ZM538.217 249.692H539.236L539.692 248.25H541.917L542.381 249.692H543.506L541.583 243.865H540.165L538.217 249.692ZM540.809 244.753L541.664 247.459H539.945L540.809 244.753ZM545.185 249.692H546.277V247.174L548.102 243.865H547.043L545.763 246.278L544.451 243.865H543.253L545.185 247.166V249.692ZM548.908 249.692H552.69V248.837H549.992V247.133H552.046V246.318H549.992V244.721H552.551V243.865H548.908V249.692ZM554.752 248.837V244.721H555.379C556.748 244.721 557.319 245.479 557.319 246.734V246.799C557.319 248.087 556.691 248.837 555.387 248.837H554.752ZM553.668 249.692H555.42C557.466 249.692 558.452 248.486 558.452 246.791V246.718C558.452 245.022 557.466 243.865 555.436 243.865H553.668V249.692Z" fill="#1B263A"/>
<circle r="2.84131" transform="matrix(-1 0 0 1 510.549 246.692)" fill="#FBB646"/>
<g filter="url(#filter1_d_554_7046)">
<path d="M33 316.811H606.665V398.151H33V316.811Z" fill="white"/>
</g>
<path d="M357.322 362.558H358.918V358.55L362.218 362.558H364.102L360.37 358.07L363.922 353.966H362.206L358.918 357.866V353.978H357.322V362.558ZM367.21 362.678C368.818 362.678 369.886 361.958 370.09 360.638H368.686C368.578 361.25 368.122 361.598 367.246 361.598C366.166 361.598 365.566 360.926 365.518 359.738H370.114V359.318C370.114 357.074 368.71 356.15 367.15 356.15C365.362 356.15 364.03 357.446 364.03 359.39V359.486C364.03 361.466 365.362 362.678 367.21 362.678ZM365.542 358.766C365.686 357.794 366.274 357.206 367.15 357.206C368.05 357.206 368.602 357.686 368.674 358.766H365.542ZM372.698 362.558H374.39L376.658 356.282H375.23L373.61 361.07L371.966 356.282H370.406L372.698 362.558ZM377.53 362.558H378.982V356.282H377.53V362.558ZM378.238 355.25C378.718 355.25 379.102 354.89 379.102 354.422C379.102 353.942 378.718 353.582 378.238 353.582C377.758 353.582 377.374 353.942 377.374 354.422C377.374 354.89 377.758 355.25 378.238 355.25ZM380.511 362.558H381.963V358.862C381.963 357.866 382.623 357.362 383.439 357.362C384.303 357.362 384.687 357.794 384.687 358.742V362.558H386.139V358.61C386.139 356.882 385.251 356.15 383.991 356.15C382.959 356.15 382.263 356.666 381.963 357.278V356.282H380.511V362.558ZM390.312 362.558H391.908V359.042H394.836V357.806H391.908V355.25H395.628V353.978H390.312V362.558Z" fill="#1B263A"/>
<path d="M434.437 362.558H435.877V356.078L438.481 362.558H438.997L441.553 356.078V362.558H443.149V353.978H441.037L438.829 359.834L436.573 353.978H434.437V362.558ZM446.338 362.678C447.298 362.678 447.85 362.33 448.258 361.79V362.558H449.686V358.442C449.686 356.726 448.582 356.15 447.178 356.15C445.774 356.15 444.61 356.762 444.49 358.226H445.894C445.966 357.602 446.338 357.242 447.094 357.242C447.946 357.242 448.234 357.662 448.234 358.502V358.826H447.454C445.654 358.826 444.238 359.354 444.238 360.818C444.238 362.126 445.186 362.678 446.338 362.678ZM446.686 361.634C445.966 361.634 445.678 361.286 445.678 360.758C445.678 359.99 446.386 359.738 447.49 359.738H448.234V360.362C448.234 361.166 447.574 361.634 446.686 361.634ZM451.631 364.706H453.059L456.479 356.282H455.063L453.527 360.326L451.859 356.282H450.287L452.771 361.922L451.631 364.706ZM462.731 362.678C464.699 362.678 465.947 361.694 465.947 360.11C465.947 358.97 465.287 358.262 464.291 358.034C465.119 357.722 465.683 357.134 465.683 356.162C465.683 354.89 464.639 353.858 462.851 353.858C461.015 353.858 459.899 354.998 459.815 356.486H461.231C461.327 355.622 461.915 355.07 462.827 355.07C463.715 355.07 464.159 355.586 464.159 356.282C464.159 357.086 463.715 357.542 462.731 357.542H462.119V358.682H462.779C463.823 358.682 464.327 359.15 464.327 360.086C464.327 360.938 463.811 361.478 462.695 361.478C461.543 361.478 461.039 360.806 460.955 359.906H459.503C459.575 361.55 460.691 362.678 462.731 362.678ZM470.568 361.406C469.284 361.406 468.54 360.422 468.54 358.478V358.046C468.54 356.138 469.248 355.106 470.544 355.106C471.828 355.106 472.524 356.21 472.524 358.034V358.454C472.524 360.398 471.888 361.406 470.568 361.406ZM470.532 362.678C472.776 362.678 474.12 361.034 474.12 358.454V358.022C474.12 355.442 472.704 353.858 470.532 353.858C468.372 353.858 466.932 355.454 466.932 358.058V358.49C466.932 361.07 468.348 362.678 470.532 362.678Z" fill="#1B263A"/>
<rect x="255.314" y="344.765" width="75.5842" height="26.5842" rx="4.64604" fill="#85F1F0" fill-opacity="0.5"/>
<path d="M268.421 360.267C267.362 360.267 266.588 359.444 266.588 358.172V358.107C266.588 356.852 267.264 356.013 268.405 356.013C269.546 356.013 270.214 356.901 270.214 358.099V358.164C270.214 359.427 269.522 360.267 268.421 360.267ZM268.405 361.139C270.174 361.139 271.339 359.859 271.339 358.156V358.091C271.339 356.379 270.141 355.149 268.405 355.149C266.677 355.149 265.455 356.412 265.455 358.115V358.181C265.455 359.859 266.62 361.139 268.405 361.139ZM272.386 361.057H273.372V356.591L275.996 361.057H277.121V355.23H276.135V359.444L273.682 355.23H272.386V361.057ZM278.459 361.057H280.7C281.979 361.057 282.697 360.511 282.697 359.427V359.395C282.697 358.621 282.322 358.189 281.531 358.018C282.191 357.814 282.452 357.357 282.452 356.779V356.746C282.452 355.687 281.743 355.23 280.545 355.23H278.459V361.057ZM279.518 360.283V358.417H280.496C281.295 358.417 281.629 358.718 281.629 359.322V359.354C281.629 359.957 281.295 360.283 280.57 360.283H279.518ZM279.518 357.683V356.004H280.398C281.091 356.004 281.409 356.241 281.409 356.795V356.828C281.409 357.423 281.132 357.683 280.415 357.683H279.518ZM286.385 360.267C285.325 360.267 284.551 359.444 284.551 358.172V358.107C284.551 356.852 285.227 356.013 286.368 356.013C287.509 356.013 288.178 356.901 288.178 358.099V358.164C288.178 359.427 287.485 360.267 286.385 360.267ZM286.368 361.139C288.137 361.139 289.302 359.859 289.302 358.156V358.091C289.302 356.379 288.104 355.149 286.368 355.149C284.641 355.149 283.418 356.412 283.418 358.115V358.181C283.418 359.859 284.584 361.139 286.368 361.139ZM289.575 361.057H290.594L291.05 359.615H293.275L293.739 361.057H294.864L292.941 355.23H291.523L289.575 361.057ZM292.167 356.119L293.022 358.824H291.303L292.167 356.119ZM295.754 361.057H296.837V358.702H297.53L299.054 361.057H300.228L298.59 358.539C299.315 358.352 299.886 357.887 299.886 356.974V356.942C299.886 355.752 298.989 355.23 297.71 355.23H295.754V361.057ZM296.837 357.928V356.07H297.71C298.402 356.07 298.818 356.298 298.818 356.966V356.999C298.818 357.618 298.435 357.928 297.71 357.928H296.837ZM302.178 360.202V356.086H302.806C304.175 356.086 304.745 356.844 304.745 358.099V358.164C304.745 359.452 304.118 360.202 302.814 360.202H302.178ZM301.094 361.057H302.846C304.892 361.057 305.878 359.851 305.878 358.156V358.083C305.878 356.388 304.892 355.23 302.863 355.23H301.094V361.057ZM306.945 361.057H308.037V355.23H306.945V361.057ZM309.411 361.057H310.397V356.591L313.022 361.057H314.146V355.23H313.16V359.444L310.707 355.23H309.411V361.057ZM318.1 361.139C319.746 361.139 320.757 360.161 320.757 358.547V358.009H318.222V358.824H319.689C319.657 359.631 319.208 360.291 318.116 360.291C316.894 360.291 316.315 359.436 316.315 358.189V358.123C316.315 356.844 316.975 355.996 318.116 355.996C318.874 355.996 319.396 356.33 319.526 357.105H320.61C320.455 355.711 319.347 355.141 318.1 355.141C316.397 355.141 315.19 356.379 315.19 358.115V358.181C315.19 359.9 316.234 361.139 318.1 361.139Z" fill="#1B263A"/>
<line x1="111.909" y1="369.385" x2="167.184" y2="369.385" stroke="#D5DDE2" stroke-width="3.71683" stroke-linecap="round" stroke-linejoin="round"/>
<path d="M111.035 355.564H116.603V354.304H112.631V351.796H115.655V350.596H112.631V348.244H116.399V346.984H111.035V355.564ZM117.683 355.564H119.135V351.868C119.135 350.872 119.795 350.368 120.611 350.368C121.475 350.368 121.859 350.8 121.859 351.748V355.564H123.311V351.616C123.311 349.888 122.423 349.156 121.163 349.156C120.131 349.156 119.435 349.672 119.135 350.284V349.288H117.683V355.564ZM126.387 355.684C127.347 355.684 127.899 355.336 128.307 354.796V355.564H129.735V351.448C129.735 349.732 128.631 349.156 127.227 349.156C125.823 349.156 124.659 349.768 124.539 351.232H125.943C126.015 350.608 126.387 350.248 127.143 350.248C127.995 350.248 128.283 350.668 128.283 351.508V351.832H127.503C125.703 351.832 124.287 352.36 124.287 353.824C124.287 355.132 125.235 355.684 126.387 355.684ZM126.735 354.64C126.015 354.64 125.727 354.292 125.727 353.764C125.727 352.996 126.435 352.744 127.539 352.744H128.283V353.368C128.283 354.172 127.623 354.64 126.735 354.64ZM134.664 355.684C136.284 355.684 137.448 354.46 137.448 352.444V352.348C137.448 350.32 136.236 349.156 134.664 349.156C133.74 349.156 132.96 349.696 132.612 350.296V346.384H131.16V355.564H132.612V354.556C132.948 355.192 133.668 355.684 134.664 355.684ZM134.304 354.532C133.248 354.532 132.564 353.872 132.564 352.468V352.372C132.564 350.98 133.284 350.296 134.292 350.296C135.24 350.296 135.96 350.98 135.96 352.372V352.468C135.96 353.812 135.372 354.532 134.304 354.532ZM138.549 355.564H140.001V346.384H138.549V355.564ZM144.291 355.684C145.899 355.684 146.967 354.964 147.171 353.644H145.767C145.659 354.256 145.203 354.604 144.327 354.604C143.247 354.604 142.647 353.932 142.599 352.744H147.195V352.324C147.195 350.08 145.791 349.156 144.231 349.156C142.443 349.156 141.111 350.452 141.111 352.396V352.492C141.111 354.472 142.443 355.684 144.291 355.684ZM142.623 351.772C142.767 350.8 143.355 350.212 144.231 350.212C145.131 350.212 145.683 350.692 145.755 351.772H142.623ZM153.907 355.684C155.803 355.684 157.063 354.52 157.063 353.032C157.063 351.316 156.02 350.74 154.003 350.464C152.515 350.248 152.227 349.9 152.227 349.204C152.227 348.544 152.731 348.076 153.704 348.076C154.687 348.076 155.204 348.46 155.359 349.36H156.823C156.655 347.716 155.551 346.876 153.704 346.876C151.915 346.876 150.715 347.932 150.715 349.336C150.715 350.944 151.687 351.568 153.739 351.844C155.131 352.072 155.527 352.372 155.527 353.164C155.527 353.956 154.855 354.484 153.907 354.484C152.455 354.484 152.107 353.764 151.999 352.9H150.463C150.583 354.52 151.567 355.684 153.907 355.684ZM159.893 355.684C160.853 355.684 161.405 355.336 161.813 354.796V355.564H163.241V351.448C163.241 349.732 162.137 349.156 160.733 349.156C159.329 349.156 158.165 349.768 158.045 351.232H159.449C159.521 350.608 159.893 350.248 160.649 350.248C161.501 350.248 161.789 350.668 161.789 351.508V351.832H161.009C159.209 351.832 157.793 352.36 157.793 353.824C157.793 355.132 158.741 355.684 159.893 355.684ZM160.241 354.64C159.521 354.64 159.233 354.292 159.233 353.764C159.233 352.996 159.941 352.744 161.045 352.744H161.789V353.368C161.789 354.172 161.129 354.64 160.241 354.64ZM164.701 355.564H166.153V346.384H164.701V355.564ZM170.443 355.684C172.051 355.684 173.119 354.964 173.323 353.644H171.919C171.811 354.256 171.355 354.604 170.479 354.604C169.399 354.604 168.799 353.932 168.751 352.744H173.347V352.324C173.347 350.08 171.943 349.156 170.383 349.156C168.595 349.156 167.263 350.452 167.263 352.396V352.492C167.263 354.472 168.595 355.684 170.443 355.684ZM168.775 351.772C168.919 350.8 169.507 350.212 170.383 350.212C171.283 350.212 171.835 350.692 171.907 351.772H168.775ZM176.61 355.684C178.218 355.684 179.118 354.952 179.118 353.68C179.118 352.348 178.242 351.988 176.766 351.76C175.77 351.592 175.47 351.412 175.47 350.956C175.47 350.512 175.842 350.212 176.466 350.212C177.138 350.212 177.462 350.476 177.582 351.052H178.926C178.77 349.636 177.75 349.156 176.466 349.156C175.29 349.156 174.114 349.78 174.114 351.04C174.114 352.216 174.726 352.684 176.382 352.948C177.306 353.104 177.726 353.296 177.726 353.812C177.726 354.34 177.378 354.616 176.598 354.616C175.746 354.616 175.422 354.244 175.35 353.608H173.982C174.042 354.94 174.99 355.684 176.61 355.684ZM180.404 355.564H181.856V350.38H183.284V349.288H181.856V348.388C181.856 347.848 182.096 347.464 182.684 347.464C182.948 347.464 183.176 347.512 183.344 347.572V346.444C183.08 346.36 182.864 346.324 182.516 346.324C181.172 346.324 180.404 347.068 180.404 348.448V349.288H179.552V350.38H180.404V355.564ZM186.833 354.556C185.729 354.556 185.093 353.752 185.093 352.468V352.372C185.093 351.076 185.753 350.296 186.833 350.296C187.913 350.296 188.561 351.088 188.561 352.384V352.468C188.561 353.752 187.913 354.556 186.833 354.556ZM186.821 355.684C188.669 355.684 190.049 354.412 190.049 352.456V352.36C190.049 350.44 188.669 349.156 186.833 349.156C184.985 349.156 183.605 350.452 183.605 352.396V352.492C183.605 354.4 184.973 355.684 186.821 355.684ZM191.121 355.564H192.573V352.3C192.573 350.968 193.341 350.56 194.613 350.548V349.192C193.557 349.204 192.969 349.672 192.573 350.464V349.288H191.121V355.564ZM198.282 355.684C199.986 355.684 201.078 354.664 201.186 353.224H199.854C199.77 354.112 199.11 354.568 198.342 354.568C197.274 354.568 196.602 353.848 196.602 352.48V352.384C196.602 351.088 197.31 350.32 198.306 350.32C199.074 350.32 199.626 350.668 199.746 351.508H201.15C200.982 349.78 199.674 349.156 198.282 349.156C196.53 349.156 195.114 350.416 195.114 352.408V352.504C195.114 354.508 196.482 355.684 198.282 355.684ZM204.956 355.684C206.564 355.684 207.632 354.964 207.836 353.644H206.432C206.324 354.256 205.868 354.604 204.992 354.604C203.912 354.604 203.312 353.932 203.264 352.744H207.86V352.324C207.86 350.08 206.456 349.156 204.896 349.156C203.108 349.156 201.776 350.452 201.776 352.396V352.492C201.776 354.472 203.108 355.684 204.956 355.684ZM203.288 351.772C203.432 350.8 204.02 350.212 204.896 350.212C205.796 350.212 206.348 350.692 206.42 351.772H203.288Z" fill="#1B263A"/>
<rect x="67.1328" y="343.635" width="29.3304" height="28.8444" rx="5" fill="#EBF0F3"/>
<rect x="497.377" y="344.765" width="75.5842" height="26.5842" rx="5" fill="#134AE9" fill-opacity="0.2"/>
<path d="M524.644 361.058H525.679L526.861 356.811L528.01 361.058H529.094L530.553 355.23H529.542L528.499 359.534L527.341 355.23H526.445L525.312 359.509L524.302 355.23H523.193L524.644 361.058ZM533.9 360.267C532.84 360.267 532.066 359.444 532.066 358.173V358.107C532.066 356.852 532.742 356.013 533.883 356.013C535.024 356.013 535.693 356.901 535.693 358.099V358.164C535.693 359.428 535 360.267 533.9 360.267ZM533.883 361.139C535.652 361.139 536.817 359.86 536.817 358.156V358.091C536.817 356.38 535.619 355.149 533.883 355.149C532.156 355.149 530.933 356.412 530.933 358.115V358.181C530.933 359.86 532.099 361.139 533.883 361.139ZM537.864 361.058H538.948V358.702H539.641L541.165 361.058H542.339L540.7 358.539C541.426 358.352 541.996 357.887 541.996 356.974V356.942C541.996 355.752 541.1 355.23 539.82 355.23H537.864V361.058ZM538.948 357.928V356.07H539.82C540.513 356.07 540.929 356.298 540.929 356.966V356.999C540.929 357.618 540.546 357.928 539.82 357.928H538.948ZM543.205 361.058H544.289V358.336L546.53 361.058H547.809L545.275 358.01L547.687 355.222H546.522L544.289 357.871V355.23H543.205V361.058ZM548.61 361.058H549.702V355.23H548.61V361.058ZM551.076 361.058H552.062V356.591L554.687 361.058H555.811V355.23H554.825V359.444L552.372 355.23H551.076V361.058ZM559.765 361.139C561.411 361.139 562.422 360.161 562.422 358.547V358.01H559.887V358.825H561.354C561.322 359.631 560.873 360.292 559.781 360.292C558.559 360.292 557.98 359.436 557.98 358.189V358.124C557.98 356.844 558.64 355.996 559.781 355.996C560.539 355.996 561.061 356.331 561.191 357.105H562.275C562.12 355.711 561.012 355.141 559.765 355.141C558.062 355.141 556.855 356.38 556.855 358.115V358.181C556.855 359.9 557.899 361.139 559.765 361.139Z" fill="#1B263A"/>
<circle r="2.84131" transform="matrix(-1 0 0 1 510.549 358.058)" fill="#134AE9"/>
<rect width="86" height="42" transform="translate(33)" fill="#134AE9"/>
<path d="M51.324 25H52.824L53.496 22.876H56.772L57.456 25H59.112L56.28 16.42H54.192L51.324 25ZM55.14 17.728L56.4 21.712H53.868L55.14 17.728ZM62.5363 25.12C63.4603 25.12 64.2643 24.568 64.6003 23.944V25H66.0523V15.82H64.6003V19.684C64.2523 19.06 63.6163 18.592 62.5963 18.592C60.9643 18.592 59.7763 19.864 59.7763 21.868V21.964C59.7763 24.004 60.9643 25.12 62.5363 25.12ZM62.8963 23.968C61.9603 23.968 61.2643 23.308 61.2643 21.928V21.832C61.2643 20.476 61.8883 19.732 62.9563 19.732C64.0123 19.732 64.6483 20.416 64.6483 21.796V21.892C64.6483 23.296 63.9043 23.968 62.8963 23.968ZM70.1301 25.12C71.0541 25.12 71.8581 24.568 72.1941 23.944V25H73.6461V15.82H72.1941V19.684C71.8461 19.06 71.2101 18.592 70.1901 18.592C68.5581 18.592 67.3701 19.864 67.3701 21.868V21.964C67.3701 24.004 68.5581 25.12 70.1301 25.12ZM70.4901 23.968C69.5541 23.968 68.8581 23.308 68.8581 21.928V21.832C68.8581 20.476 69.4821 19.732 70.5501 19.732C71.6061 19.732 72.2421 20.416 72.2421 21.796V21.892C72.2421 23.296 71.4981 23.968 70.4901 23.968ZM80.3672 25.108C80.8112 25.108 81.1232 25.036 81.3512 24.952V23.8C81.1472 23.884 80.9312 23.92 80.6432 23.92C80.1872 23.92 79.9232 23.668 79.9232 23.116V19.816H81.3032V18.724H79.9232V17.344H78.4712V18.724H77.6312V19.816H78.4712V23.248C78.4712 24.436 79.1192 25.108 80.3672 25.108ZM84.3635 25.12C85.3235 25.12 85.8755 24.772 86.2835 24.232V25H87.7115V20.884C87.7115 19.168 86.6075 18.592 85.2035 18.592C83.7995 18.592 82.6355 19.204 82.5155 20.668H83.9195C83.9915 20.044 84.3635 19.684 85.1195 19.684C85.9715 19.684 86.2595 20.104 86.2595 20.944V21.268H85.4795C83.6795 21.268 82.2635 21.796 82.2635 23.26C82.2635 24.568 83.2115 25.12 84.3635 25.12ZM84.7115 24.076C83.9915 24.076 83.7035 23.728 83.7035 23.2C83.7035 22.432 84.4115 22.18 85.5155 22.18H86.2595V22.804C86.2595 23.608 85.5995 24.076 84.7115 24.076ZM91.5237 25.12C93.1317 25.12 94.0317 24.388 94.0317 23.116C94.0317 21.784 93.1557 21.424 91.6797 21.196C90.6837 21.028 90.3837 20.848 90.3837 20.392C90.3837 19.948 90.7557 19.648 91.3797 19.648C92.0517 19.648 92.3757 19.912 92.4957 20.488H93.8397C93.6837 19.072 92.6637 18.592 91.3797 18.592C90.2037 18.592 89.0277 19.216 89.0277 20.476C89.0277 21.652 89.6397 22.12 91.2957 22.384C92.2197 22.54 92.6397 22.732 92.6397 23.248C92.6397 23.776 92.2917 24.052 91.5117 24.052C90.6597 24.052 90.3357 23.68 90.2637 23.044H88.8957C88.9557 24.376 89.9037 25.12 91.5237 25.12ZM95.3054 25H96.7574V21.916L99.1094 25H100.789L98.1494 21.604L100.585 18.724H99.0014L96.7574 21.484V15.82H95.3054V25Z" fill="white"/>
<defs>
<filter id="filter0_d_554_7046" x="0.477707" y="42.46" width="666.587" height="316.31" filterUnits="userSpaceOnUse" color-interpolation-filters="sRGB">
<feFlood flood-opacity="0" result="BackgroundImageFix"/>
<feColorMatrix in="SourceAlpha" type="matrix" values="0 0 0 0 0 0 0 0 0 0 0 0 0 0 0 0 0 0 127 0" result="hardAlpha"/>
<feOffset dx="13.9381" dy="20.71"/>
<feGaussianBlur stdDeviation="23.2302"/>
<feColorMatrix type="matrix" values="0 0 0 0 0.133333 0 0 0 0 0.133333 0 0 0 0 0.27451 0 0 0 0.1 0"/>
<feBlend mode="normal" in2="BackgroundImageFix" result="effect1_dropShadow_554_7046"/>
<feBlend mode="normal" in="SourceGraphic" in2="effect1_dropShadow_554_7046" result="shape"/>
</filter>
<filter id="filter1_d_554_7046" x="0.477707" y="291.061" width="666.587" height="174.26" filterUnits="userSpaceOnUse" color-interpolation-filters="sRGB">
<feFlood flood-opacity="0" result="BackgroundImageFix"/>
<feColorMatrix in="SourceAlpha" type="matrix" values="0 0 0 0 0 0 0 0 0 0 0 0 0 0 0 0 0 0 127 0" result="hardAlpha"/>
<feOffset dx="13.9381" dy="20.71"/>
<feGaussianBlur stdDeviation="23.2302"/>
<feColorMatrix type="matrix" values="0 0 0 0 0.133333 0 0 0 0 0.133333 0 0 0 0 0.27451 0 0 0 0.1 0"/>
<feBlend mode="normal" in2="BackgroundImageFix" result="effect1_dropShadow_554_7046"/>
<feBlend mode="normal" in="SourceGraphic" in2="effect1_dropShadow_554_7046" result="shape"/>
</filter>
</defs>
</svg>
